<?xml version="1.0" standalone="no"?>
<!DOCTYPE svg PUBLIC "-//W3C//DTD SVG 1.1//EN" "http://www.w3.org/Graphics/SVG/1.1/DTD/svg11.dtd" >
<svg xmlns="http://www.w3.org/2000/svg" xmlns:xlink="http://www.w3.org/1999/xlink" version="1.1">
<metadata>
Created by FontForge 20170731 at Tue Jun 28 13:59:28 2016
 By Aleksey,,,
Copyright (c) 2012 by TypeTogether. All rights reserved.
</metadata>
<defs>
<font id="AdelleSans-Bold" horiz-adv-x="570" >
  <font-face 
    font-family="Adelle Sans"
    font-weight="700"
    font-stretch="normal"
    units-per-em="1000"
    panose-1="2 0 5 3 0 0 0 2 0 4"
    ascent="800"
    descent="-200"
    x-height="521"
    cap-height="724"
    bbox="-160 -291 1250 1089"
    underline-thickness="50"
    underline-position="-200"
    unicode-range="U+000D-FB06"
  />
<missing-glyph horiz-adv-x="500" 
 />
    <glyph glyph-name="ij" unicode="ij" horiz-adv-x="534" 
d="M211 0h-151v521h151v-521zM227 681q0 -44 -24 -68t-67 -24q-44 0 -67.5 24t-23.5 68t23.5 67.5t67.5 23.5q43 0 67 -23.5t24 -67.5zM293 -223q-41 0 -75 9t-48 19l11 113q13 -6 35.5 -13t46.5 -7q27 0 46 15.5t19 62.5v545h151v-562q0 -49 -13.5 -83.5t-38 -56.5t-59 -32
t-75.5 -10zM495 684q0 -45 -23.5 -69t-67.5 -24q-43 0 -67 24t-24 69q0 44 24 67t67 23q44 0 67.5 -23t23.5 -67z" />
    <glyph glyph-name="ff" unicode="ff" horiz-adv-x="699" 
d="M360 642q-35 11 -65 11q-32 0 -50 -16.5t-18 -63.5v-52h183v60q0 48 14 83t39 57.5t60 33.5t78 11q42 0 72 -6.5t43 -12.5l-5 -107q-15 5 -33.5 9t-36.5 4t-32.5 -3.5t-25 -12.5t-16.5 -26t-6 -44v-46h138v-110h-138v-411h-151v411h-183v-411h-151v411h-70v110h70v60
q0 97 49 141t132 44q36 0 66 -6.5t43 -12.5z" />
    <glyph glyph-name="fi" unicode="fi" horiz-adv-x="619" 
d="M562 0h-151v411h-184v-411h-151v411h-70v110h70v60q0 97 49 141t132 44q29 0 53 -4.5t40 -9.5l-5 -110q-13 4 -26.5 6.5t-28.5 2.5q-29 0 -46 -16t-17 -63v-51h335v-521zM578 688q0 -44 -24 -68t-68 -24q-43 0 -66.5 24t-23.5 68q0 45 23.5 68t66.5 23q44 0 68 -23
t24 -68z" />
    <glyph glyph-name="fl" unicode="fl" horiz-adv-x="619" 
d="M360 641q-35 11 -65 11q-32 0 -50 -16.5t-18 -63.5v-51h124v-110h-124v-411h-151v411h-70v110h70v60q0 97 49 141t132 44q36 0 66 -6.5t43 -12.5zM562 0h-151v755h151v-755z" />
    <glyph glyph-name="ffi" unicode="ffi" horiz-adv-x="953" 
d="M897 0h-151v411h-184v-411h-151v411h-184v-411h-151v411h-70v110h70v60q0 97 49 141t132 44q36 0 66 -6.5t43 -12.5l-6 -105q-35 11 -65 11q-32 0 -50 -16.5t-18 -63.5v-52h184v60q0 97 49 141t132 44q29 0 53 -4.5t40 -9.5l-5 -110q-13 4 -26.5 6.5t-28.5 2.5
q-29 0 -46 -16t-17 -63v-51h335v-521zM913 688q0 -44 -24 -68t-68 -24q-43 0 -66.5 24t-23.5 68q0 45 23.5 68t66.5 23q44 0 68 -23t24 -68z" />
    <glyph glyph-name="ffl" unicode="ffl" horiz-adv-x="953" 
d="M695 641q-35 11 -65 11q-32 0 -50 -16.5t-18 -63.5v-51h124v-110h-124v-411h-151v411h-184v-411h-151v411h-70v110h70v60q0 97 49 141t132 44q36 0 66 -6.5t43 -12.5l-6 -105q-35 11 -65 11q-32 0 -50 -16.5t-18 -63.5v-52h184v60q0 97 49 141t132 44q36 0 66 -6.5
t43 -12.5zM897 0h-151v755h151v-755z" />
    <glyph glyph-name="f_k" unicode="fk" horiz-adv-x="917" 
d="M360 640q-35 11 -65 11q-32 0 -50 -16.5t-18 -63.5v-50h124v-110h-124v-411h-151v411h-70v110h70v60q0 97 49 141t132 44q36 0 66 -6.5t43 -12.5zM562 338l172 183h168l-173 -187l186 -334h-167l-135 238l-51 -49v-189h-151v755h151v-417z" />
    <glyph glyph-name="f_b" unicode="fb" horiz-adv-x="945" 
d="M360 641q-35 11 -65 11q-32 0 -50 -16.5t-18 -63.5v-51h124v-110h-124v-411h-151v411h-70v110h70v60q0 97 49 141t132 44q36 0 66 -6.5t43 -12.5zM411 0v755h148v-281q32 31 70.5 44.5t86.5 13.5q39 0 74 -13.5t61.5 -44.5t41.5 -80.5t15 -121.5q0 -77 -16.5 -130.5
t-45.5 -88t-68.5 -50t-86.5 -15.5q-48 0 -83.5 16t-59.5 40h-3l-7 -44h-127zM561 143q14 -11 38 -22.5t53 -11.5q51 0 74 39t23 120q0 31 -4.5 57.5t-15 45.5t-28 29.5t-44.5 10.5t-53 -12.5t-43 -27.5v-228z" />
    <glyph glyph-name="f_h" unicode="fh" horiz-adv-x="937" 
d="M360 641q-35 11 -65 11q-32 0 -50 -16.5t-18 -63.5v-51h124v-110h-124v-411h-151v411h-70v110h70v60q0 97 49 141t132 44q36 0 66 -6.5t43 -12.5zM884 0h-151v329q0 42 -17 61t-52 19q-31 0 -59 -13.5t-43 -27.5v-368h-151v755h150v-282q28 22 66.5 40.5t94.5 18.5
q85 0 123.5 -43t38.5 -133v-356z" />
    <glyph glyph-name="f_t" unicode="ft" horiz-adv-x="738" 
d="M731 27q-20 -13 -62 -26t-91 -13q-83 0 -125 39.5t-42 129.5v254h-184v-411h-151v411h-70v110h70v60q0 97 49 141t132 44q36 0 66 -6.5t43 -12.5l-6 -106q-35 11 -65 11q-32 0 -50 -16.5t-18 -63.5v-51h184v154l151 20v-174h138v-110h-138v-234q0 -35 12.5 -52.5
t48.5 -17.5q23 0 47 7.5t39 16.5z" />
    <glyph glyph-name="f_j" unicode="fj" horiz-adv-x="617" 
d="M376 -223q-42 0 -75.5 9t-47.5 19l11 110q13 -6 35.5 -13t46.5 -7q27 0 46 15.5t19 62.5v438h-184v-411h-151v411h-70v110h70v60q0 97 49 141t132 44q29 0 54 -4.5t42 -9.5l-6 -110q-13 3 -27.5 6t-29.5 3q-29 0 -46 -16t-17 -63v-51h335v-562q0 -49 -13.5 -83.5
t-38 -56.5t-59 -32t-75.5 -10zM578 691q0 -44 -23.5 -68t-67.5 -24q-43 0 -67 24t-24 68t24 67.5t67 23.5q44 0 67.5 -23.5t23.5 -67.5z" />
    <glyph glyph-name="f_f_j" unicode="ffj" horiz-adv-x="951" 
d="M710 -223q-42 0 -75.5 9t-47.5 19l11 110q13 -6 35.5 -13t46.5 -7q27 0 46 15.5t19 62.5v438h-184v-411h-151v411h-183v-411h-151v411h-70v110h70v60q0 97 49 141t132 44q36 0 66 -6.5t43 -12.5l-6 -105q-35 11 -65 11q-32 0 -50 -16.5t-18 -63.5v-52h183v60q0 97 49 141
t132 44q29 0 54 -4.5t42 -9.5l-6 -110q-13 3 -27.5 6t-29.5 3q-29 0 -46 -16t-17 -63v-51h335v-562q0 -49 -13.5 -83.5t-38 -56.5t-59 -32t-75.5 -10zM912 691q0 -44 -23.5 -68t-67.5 -24q-43 0 -67 24t-24 68t24 67.5t67 23.5q44 0 67.5 -23.5t23.5 -67.5z" />
    <glyph glyph-name="f_f_k" unicode="ffk" horiz-adv-x="1251" 
d="M695 640q-35 11 -65 11q-32 0 -50 -16.5t-18 -63.5v-50h124v-110h-124v-411h-151v411h-184v-411h-151v411h-70v110h70v60q0 97 49 141t132 44q36 0 66 -6.5t43 -12.5l-6 -105q-35 11 -65 11q-32 0 -50 -16.5t-18 -63.5v-52h184v60q0 97 49 141t132 44q36 0 66 -6.5
t43 -12.5zM897 338l172 183h168l-173 -187l186 -334h-167l-135 238l-51 -49v-189h-151v755h151v-417z" />
    <glyph glyph-name="f_f_b" unicode="ffb" horiz-adv-x="1280" 
d="M695 641q-35 11 -65 11q-32 0 -50 -16.5t-18 -63.5v-51h124v-110h-124v-411h-151v411h-184v-411h-151v411h-70v110h70v60q0 97 49 141t132 44q36 0 66 -6.5t43 -12.5l-6 -105q-35 11 -65 11q-32 0 -50 -16.5t-18 -63.5v-52h184v60q0 97 49 141t132 44q36 0 66 -6.5
t43 -12.5zM746 0v755h148v-281q32 31 70.5 44.5t86.5 13.5q39 0 74 -13.5t61.5 -44.5t41.5 -80.5t15 -121.5q0 -77 -16.5 -130.5t-45.5 -88t-68.5 -50t-86.5 -15.5q-48 0 -83.5 16t-59.5 40h-3l-7 -44h-127zM896 143q14 -11 38 -22.5t53 -11.5q51 0 74 39t23 120
q0 31 -4.5 57.5t-15 45.5t-28 29.5t-44.5 10.5t-53 -12.5t-43 -27.5v-228z" />
    <glyph glyph-name="f_f_h" unicode="ffh" horiz-adv-x="1272" 
d="M695 641q-35 11 -65 11q-32 0 -50 -16.5t-18 -63.5v-51h124v-110h-124v-411h-151v411h-184v-411h-151v411h-70v110h70v60q0 97 49 141t132 44q36 0 66 -6.5t43 -12.5l-6 -105q-35 11 -65 11q-32 0 -50 -16.5t-18 -63.5v-52h184v60q0 97 49 141t132 44q36 0 66 -6.5
t43 -12.5zM1219 0h-151v329q0 42 -17 61t-52 19q-31 0 -59 -13.5t-43 -27.5v-368h-151v755h150v-282q28 22 66.5 40.5t94.5 18.5q85 0 123.5 -43t38.5 -133v-356z" />
    <glyph glyph-name="f_f_t" unicode="fft" horiz-adv-x="1073" 
d="M695 641q-35 11 -65 11q-32 0 -50 -16.5t-18 -63.5v-51h184v154l151 20v-174h138v-110h-138v-234q0 -35 12.5 -52.5t48.5 -17.5q23 0 47 7.5t39 16.5l22 -104q-20 -13 -62 -26t-91 -13q-83 0 -125 39.5t-42 129.5v254h-184v-411h-151v411h-184v-411h-151v411h-70v110h70
v60q0 97 49 141t132 44q36 0 66 -6.5t43 -12.5l-6 -105q-35 11 -65 11q-32 0 -50 -16.5t-18 -63.5v-52h184v60q0 97 49 141t132 44q36 0 66 -6.5t43 -12.5z" />
    <glyph glyph-name="f_iacute" unicode="f&#xed;" horiz-adv-x="619" 
d="M562 0h-151v411h-184v-411h-151v411h-70v110h70v60q0 97 49 141t132 44q29 0 54 -4.5t42 -9.5l-6 -110q-13 3 -27.5 6t-29.5 3q-29 0 -46 -16t-17 -63v-51h335v-521zM528 572l-101 9l74 162h162z" />
    <glyph glyph-name="t_t" unicode="tt" horiz-adv-x="749" 
d="M742 27q-20 -13 -62 -26t-91 -13q-82 0 -124.5 39.5t-42.5 129.5v253h-186v-232q0 -35 10.5 -53t46.5 -18q16 0 34 5t35 13l23 -106q-21 -11 -56.5 -21t-77.5 -10q-82 0 -124 39.5t-42 129.5v253h-78v111h78v154l151 20v-174h186v154l151 20v-174h138v-111h-138v-232
q0 -35 12.5 -52.5t49.5 -17.5q23 0 46.5 7.5t39.5 16.5z" />
    <glyph glyph-name=".notdef" horiz-adv-x="500" 
 />
    <glyph glyph-name=".null" horiz-adv-x="0" 
 />
    <glyph glyph-name=".null" horiz-adv-x="0" 
 />
    <glyph glyph-name="nonmarkingreturn" unicode="&#xd;" horiz-adv-x="500" 
 />
    <glyph glyph-name="space" unicode=" " horiz-adv-x="174" 
 />
    <glyph glyph-name="exclam" unicode="!" horiz-adv-x="290" 
d="M83 197l-19 527h164l-19 -527h-126zM235 68q0 -38 -22 -59t-67 -21q-90 0 -90 80q0 39 22.5 60t67.5 21t67 -21t22 -60z" />
    <glyph glyph-name="quotedbl" unicode="&#x22;" horiz-adv-x="429" 
d="M50 465v259h135v-259h-135zM244 465v259h135v-259h-135z" />
    <glyph glyph-name="numbersign" unicode="#" horiz-adv-x="607" 
d="M299 0l21 139h-87l-21 -139h-104l21 139h-99l21 104h94l17 110h-100l21 105h94l20 135h104l-20 -135h86l20 135h104l-20 -135h101l-20 -105h-96l-17 -110h101l-20 -104h-96l-22 -139h-103zM352 353h-86l-17 -110h87z" />
    <glyph glyph-name="dollar" unicode="$" horiz-adv-x="550" 
d="M276 594q-47 0 -68 -20t-21 -51q0 -45 33.5 -67.5t95.5 -38.5q37 -10 74 -23t66 -35.5t47.5 -58t18.5 -89.5q0 -47 -15 -84t-41.5 -63t-62 -42.5t-76.5 -23.5v-80h-128v80q-33 4 -64 16t-56 35t-42 59.5t-23 89.5l132 25q4 -28 11.5 -49t21 -35.5t35.5 -22t55 -7.5
q47 0 76 19.5t29 61.5q0 25 -11.5 41t-30.5 27t-44 18.5t-52 15.5q-36 10 -72 23.5t-65 36.5t-47 59t-18 90q0 42 13.5 75.5t37 58.5t55 42t67.5 25v90h127v-89q34 -4 64 -16.5t53 -35t37.5 -56t17.5 -80.5l-134 -16q-7 47 -26.5 71t-69.5 24z" />
    <glyph glyph-name="percent" unicode="%" horiz-adv-x="831" 
d="M188 375q-48 0 -80 14t-51.5 38t-28 56t-8.5 68q0 85 42.5 136t133.5 51q45 0 76.5 -12.5t52 -35t29.5 -54.5t9 -72q0 -86 -43.5 -137.5t-131.5 -51.5zM193 463q31 0 44 23t13 74q0 46 -12.5 67.5t-44.5 21.5q-31 0 -44.5 -23t-13.5 -68q0 -49 13 -72t45 -23zM630 -12
q-48 0 -80 14t-51.5 38t-28 56t-8.5 68q0 85 42.5 136t133.5 51q45 0 76.5 -12.5t52 -35t29.5 -54.5t9 -72q0 -86 -43.5 -137.5t-131.5 -51.5zM635 76q31 0 44 23t13 74q0 46 -12.5 67.5t-44.5 21.5q-31 0 -44.5 -23t-13.5 -68q0 -49 13 -72t45 -23zM120 -13l438 737h132
l-437 -737h-133z" />
    <glyph glyph-name="ampersand" unicode="&#x26;" horiz-adv-x="743" 
d="M540 558q0 -22 -6 -45.5t-23.5 -47t-49 -47t-81.5 -44.5l-14 -6q29 -41 61.5 -79.5t70.5 -80.5q17 32 23 70t6 80h133q2 -55 -12.5 -112.5t-52.5 -109.5q35 -22 72 -22q18 0 38 6l16 -114q-20 -8 -41.5 -11t-41.5 -4q-42 0 -79 12.5t-73 35.5q-30 -23 -79.5 -37
t-116.5 -14q-62 0 -109.5 16t-79.5 44t-48 65.5t-16 80.5q0 72 35.5 120.5t110.5 80.5q-19 32 -27 60.5t-8 60.5q0 43 16.5 77.5t45.5 58.5t68.5 36.5t85.5 12.5q33 0 65 -7.5t56.5 -24t39.5 -44t15 -67.5zM315 98q43 0 75 16q-45 42 -82 87.5t-75 101.5
q-17 -14 -29.5 -35.5t-12.5 -57.5q0 -47 31 -79.5t93 -32.5zM295 541q0 -23 7 -44.5t20 -45.5q15 7 31.5 15.5t30 20t22 27t8.5 36.5q0 23 -14 38t-42 15q-26 0 -44.5 -16t-18.5 -46z" />
    <glyph glyph-name="quotesingle" unicode="'" horiz-adv-x="235" 
d="M50 465v259h135v-259h-135z" />
    <glyph glyph-name="parenleft" unicode="(" horiz-adv-x="363" 
d="M189 -153q-27 39 -53.5 86.5t-47.5 102t-33.5 115.5t-12.5 129q0 67 12.5 127.5t34 115.5t50.5 105t62 96h156q-33 -48 -61 -97t-48.5 -103t-32.5 -113.5t-12 -127.5q0 -69 12 -129.5t32 -113.5t46 -100.5t54 -92.5h-158z" />
    <glyph glyph-name="parenright" unicode=")" horiz-adv-x="363" 
d="M158.034 723.972q26.9951 -38.9922 53.4902 -86.4834q26.4951 -47.4922 47.4912 -101.981q20.9971 -54.4902 33.4941 -115.479q12.498 -60.9883 12.498 -128.977q0 -66.9873 -12.498 -127.477q-12.4971 -60.4883 -33.9932 -115.479t-50.4912 -104.98
q-28.9941 -49.9912 -61.9883 -95.9824h-155.972q32.9941 47.9912 60.9893 96.9824q27.9941 48.9902 48.4902 102.98q20.4971 53.9902 32.4941 113.479q11.998 59.4893 11.998 127.477q0 68.9873 -11.998 129.477q-11.9971 60.4883 -31.9941 113.479
q-19.9961 52.9902 -45.9912 100.481t-53.9902 92.4824h157.971z" />
    <glyph glyph-name="asterisk" unicode="*" horiz-adv-x="477" 
d="M289 633l113 27l21 -72l-107 -54l72 -108l-57 -45l-98 92l-95 -95l-58 46l71 110l-109 53l22 72l115 -28l20 124h72z" />
    <glyph glyph-name="plus" unicode="+" 
d="M224 121v143h-133v119h133v139h120v-139h134v-119h-134v-143h-120z" />
    <glyph glyph-name="comma" unicode="," horiz-adv-x="244" 
d="M56 132h158l-98 -269l-123 12z" />
    <glyph glyph-name="hyphen" unicode="-" horiz-adv-x="313" 
d="M20 227v129h271v-129h-271z" />
    <glyph glyph-name="period" unicode="." horiz-adv-x="251" 
d="M219 76q0 -88 -93 -88t-93 88q0 89 93 89t93 -89z" />
    <glyph glyph-name="slash" unicode="/" horiz-adv-x="443" 
d="M9 -92l281 847h137l-280 -847h-138z" />
    <glyph glyph-name="zero" unicode="0" horiz-adv-x="585" 
d="M289 -12q-75 0 -124.5 25t-79 73t-42 118t-12.5 160t14 159.5t45.5 117t82.5 72t126 24.5t124.5 -24.5t78.5 -71.5t40.5 -115t11.5 -154q0 -93 -13.5 -165t-44 -120.5t-81.5 -73.5t-126 -25zM293 106q30 0 50 14.5t31 46t15.5 81t4.5 118.5q0 67 -4 115t-14.5 78.5
t-29.5 44.5t-49 14q-31 0 -51 -14t-32 -44.5t-17 -79t-5 -117.5q0 -68 4 -116.5t15.5 -79.5t31 -46t50.5 -15z" />
    <glyph glyph-name="one" unicode="1" horiz-adv-x="442" 
d="M193 0v544q-13 -7 -34 -12.5t-44 -9.5t-44 -6.5t-33 -2.5l-7 128q67 5 120 24.5t89 58.5h103v-724h-150z" />
    <glyph glyph-name="two" unicode="2" horiz-adv-x="542" 
d="M277 737q109 0 163.5 -48.5t54.5 -138.5q0 -39 -9.5 -72t-28.5 -66t-48.5 -69t-69.5 -80l-118 -130v-3h285v-130h-462v126l155 181q34 39 61 70.5t45.5 58.5t28 52.5t9.5 53.5q0 36 -19.5 56t-61.5 20q-48 0 -69.5 -28t-29.5 -79l-136 23q6 54 27 92t54 63t76 36.5
t93 11.5z" />
    <glyph glyph-name="three" unicode="3" horiz-adv-x="555" 
d="M155 200q6 -46 28.5 -70.5t73.5 -24.5q43 0 72.5 25.5t29.5 82.5q0 58 -30 81t-87 23h-71v114h47q64 0 97.5 29.5t33.5 80.5q0 36 -17.5 58t-64.5 22t-68.5 -23t-31.5 -67l-130 26q10 51 33.5 85.5t56 55.5t72.5 30t82 9q105 0 161 -46t56 -130q0 -36 -12 -64t-31.5 -49
t-43.5 -35.5t-49 -22.5v-4q72 -17 111.5 -59.5t39.5 -121.5q0 -50 -18 -90.5t-51.5 -68.5t-81 -43t-105.5 -15q-43 0 -83 9.5t-72.5 31.5t-54 58t-27.5 88z" />
    <glyph glyph-name="four" unicode="4" horiz-adv-x="597" 
d="M351 0v162h-324v107l287 455h184v-440h81v-122h-82v-162h-146zM351 284v302l-191 -302h191z" />
    <glyph glyph-name="five" unicode="5" horiz-adv-x="560" 
d="M91 724h381v-130h-271l-17 -181q23 20 56.5 34t81.5 14q40 0 75 -12.5t61 -39t41 -68.5t15 -101t-18.5 -106t-52 -79.5t-81.5 -49.5t-107 -17q-44 0 -83.5 9.5t-71 31.5t-53 57.5t-28.5 87.5l131 27q6 -43 30 -68.5t75 -25.5q22 0 41.5 7.5t34.5 23t24 39.5t9 57t-8 54.5
t-21.5 34t-31 17.5t-35.5 5q-32 0 -59 -14t-47 -34l-98 41z" />
    <glyph glyph-name="six" unicode="6" horiz-adv-x="578" 
d="M405 532q-8 51 -29 69.5t-56 18.5q-34 0 -58 -20.5t-39.5 -53.5t-23 -74t-7.5 -82q26 23 66 39t90 16q43 0 79 -13t61.5 -39t40 -65.5t14.5 -91.5q0 -64 -19 -110.5t-52 -77t-78 -45.5t-97 -15q-75 0 -123.5 27.5t-76.5 75.5t-39 113t-11 140q0 42 5 87.5t17.5 89.5
t33.5 83t52.5 68.5t75 47t101.5 17.5q37 0 70 -8t60 -27.5t47 -51.5t30 -81zM200 287q1 -36 5 -69.5t15 -59t30 -40.5t51 -15q45 0 67 33t22 89q0 54 -19 80.5t-66 26.5q-27 0 -56 -14t-49 -31z" />
    <glyph glyph-name="seven" unicode="7" horiz-adv-x="531" 
d="M70 -1l279 595h-318v130h475v-116l-276 -609h-160z" />
    <glyph glyph-name="eight" unicode="8" horiz-adv-x="569" 
d="M409 394q73 -33 106 -77t33 -119q0 -43 -19 -81.5t-54 -67t-85.5 -45t-114.5 -16.5q-66 0 -114 15.5t-79 41.5t-46 60t-15 72q0 66 33 113.5t106 80.5q-61 29 -86 72.5t-25 94.5q0 47 18 84t50.5 62.5t78 39t101.5 13.5q114 0 173 -46.5t59 -122.5q0 -62 -32 -101
t-88 -73zM254 315q-35 -20 -60 -48t-25 -74q0 -41 25 -65.5t84 -24.5q55 0 82 26t27 63q0 26 -11 44.5t-30 33t-43 25t-49 20.5zM308 445q35 21 55.5 49.5t20.5 61.5q0 35 -21 53.5t-69 18.5q-40 0 -64.5 -18t-24.5 -51q0 -40 27 -65t76 -49z" />
    <glyph glyph-name="nine" unicode="9" horiz-adv-x="577" 
d="M165 200q9 -51 31 -74t64 -23q33 0 57 18.5t39.5 50t23.5 73t9 87.5q-26 -23 -66.5 -37.5t-90.5 -14.5q-43 0 -79 13t-61.5 39t-40 66t-14.5 94q0 63 19.5 109t53.5 76t79.5 45t98.5 15q73 0 120 -27.5t75 -75.5t39 -113t11 -140q0 -66 -10.5 -136t-40.5 -127t-84 -93.5
t-142 -36.5q-41 0 -78 8t-66.5 28t-50.5 53t-30 83zM380 435q-2 39 -6 73t-14.5 59t-30 39.5t-50.5 14.5q-45 0 -67 -31.5t-22 -88.5q0 -54 20 -82.5t66 -28.5q27 0 54.5 12.5t49.5 32.5z" />
    <glyph glyph-name="colon" unicode=":" horiz-adv-x="266" 
d="M226 76q0 -88 -93 -88t-93 88q0 89 93 89t93 -89zM226 419q0 -88 -93 -88t-93 88q0 89 93 89t93 -89z" />
    <glyph glyph-name="semicolon" unicode=";" horiz-adv-x="260" 
d="M58 132h158l-98 -269l-123 12zM240 419q0 -88 -93 -88t-93 88q0 89 93 89t93 -89z" />
    <glyph glyph-name="less" unicode="&#x3c;" 
d="M69 220v142l391 140v-125l-261 -85l261 -86v-123z" />
    <glyph glyph-name="equal" unicode="=" 
d="M92 127v120h386v-120h-386zM92 316v120h386v-120h-386z" />
    <glyph glyph-name="greater" unicode="&#x3e;" 
d="M97 85v122l261 85l-261 85v125l391 -140v-140z" />
    <glyph glyph-name="question" unicode="?" horiz-adv-x="547" 
d="M155 197v183q36 3 72 10.5t64 23.5t45.5 42t17.5 66q0 48 -24.5 67.5t-62.5 19.5q-47 0 -72 -25t-34 -79l-147 23q12 96 78 151t183 55q46 0 89 -10.5t76 -35.5t53 -66t20 -102q0 -95 -54.5 -152t-153.5 -80v-91h-150zM317 68q0 -38 -22 -59t-67 -21q-89 0 -89 80
q0 39 22 60t67 21t67 -21t22 -60z" />
    <glyph glyph-name="at" unicode="@" horiz-adv-x="855" 
d="M651 -145q-35 -23 -90.5 -35.5t-129.5 -12.5q-81 0 -152.5 23t-124.5 69.5t-83.5 117.5t-30.5 167q0 88 29.5 161.5t83.5 126t130 82t169 29.5q80 0 146.5 -23t114.5 -66t74.5 -105t26.5 -140q0 -67 -14 -115.5t-39.5 -80t-60.5 -47t-77 -15.5q-45 0 -75.5 14t-42.5 37
q-22 -28 -51.5 -39t-62.5 -11q-36 0 -63 13.5t-45.5 38.5t-28 59.5t-9.5 75.5q0 46 11.5 86t33 69.5t52.5 46t70 16.5q28 0 50 -9.5t36 -25.5l8 29h81v-263q0 -23 8 -38.5t36 -15.5q24 0 39.5 16.5t24.5 41t13 54t4 56.5q0 55 -15.5 101t-47.5 79t-83 51t-121 18
q-81 0 -137.5 -26.5t-92.5 -69.5t-52.5 -97t-16.5 -109q0 -77 22 -132t61 -90t93.5 -51.5t119.5 -16.5q52 0 96 11t82 30zM491 296q-21 23 -58 23t-60.5 -30t-23.5 -97q0 -51 14.5 -85t54.5 -34q23 0 39.5 10t33.5 30v183z" />
    <glyph glyph-name="A" unicode="A" horiz-adv-x="709" 
d="M443 724l256 -724h-169l-60 176h-241l-56 -176h-159l237 724h192zM348 579h-4l-89 -280h183z" />
    <glyph glyph-name="B" unicode="B" horiz-adv-x="637" 
d="M74 0v724h287q64 0 106.5 -13.5t67.5 -37.5t35 -56.5t10 -69.5q0 -36 -11 -64.5t-30 -49t-44 -34.5t-52 -21v-2q87 -11 127.5 -56.5t40.5 -120.5q0 -56 -20.5 -94t-57 -61t-86.5 -33.5t-109 -10.5h-264zM307 119q31 0 57 3.5t44.5 14t28.5 28.5t10 48t-10 49t-27 29
t-39.5 13.5t-48.5 3.5h-94v-189h79zM285 425q27 0 53 3.5t46 13.5t32.5 29t12.5 51q0 29 -9 45.5t-25.5 25t-38.5 10.5t-48 2h-80v-180h57z" />
    <glyph glyph-name="C" unicode="C" horiz-adv-x="695" 
d="M372 -12q-90 0 -153.5 25.5t-103.5 73.5t-58.5 115.5t-18.5 151.5q0 86 22.5 156.5t67 121t109.5 78t150 27.5q61 0 112 -15t88.5 -46.5t59.5 -81t25 -117.5l-141 -12q-7 78 -41.5 111.5t-104.5 33.5q-89 0 -138.5 -59.5t-49.5 -188.5q0 -67 11.5 -114t34 -76.5t55.5 -43
t76 -13.5q39 0 66 9.5t45 27t29 41t17 52.5l139 -24q-9 -65 -38 -109.5t-70.5 -72t-91 -39.5t-98.5 -12z" />
    <glyph glyph-name="D" unicode="D" horiz-adv-x="724" 
d="M74 0v724h254q94 0 162 -24.5t111.5 -70t64.5 -110.5t21 -146q0 -83 -22.5 -152t-68.5 -118t-117 -76t-168 -27h-237zM304 124q63 0 106 16.5t69.5 47.5t38 76t11.5 101q0 67 -13 112.5t-40 72.5t-67 38.5t-94 11.5h-87v-476h76z" />
    <glyph glyph-name="E" unicode="E" horiz-adv-x="583" 
d="M228 130h323v-130h-477v724h459v-129h-305v-170h287v-126h-287v-169z" />
    <glyph glyph-name="F" unicode="F" horiz-adv-x="553" 
d="M228 0h-154v724h456v-129h-302v-184h278v-127h-278v-284z" />
    <glyph glyph-name="G" unicode="G" horiz-adv-x="739" 
d="M552 89q-12 -24 -33 -43t-48.5 -32t-60 -19.5t-65.5 -6.5q-82 0 -140 27t-95 75t-54.5 114.5t-17.5 145.5q0 88 22.5 159.5t66.5 122t109.5 78t152.5 27.5q59 0 109.5 -14t88 -44.5t60.5 -78.5t28 -116l-144 -14q-3 29 -11.5 54.5t-25 44.5t-43 30t-65.5 11
q-96 0 -142 -64.5t-46 -181.5q0 -130 43.5 -191t139.5 -61q36 0 64 10t46.5 27t28 40t9.5 49v26h-132v113h284v-377h-112z" />
    <glyph glyph-name="H" unicode="H" horiz-adv-x="733" 
d="M660 0h-155v297h-277v-297h-154v724h154v-294h277v294h155v-724z" />
    <glyph glyph-name="I" unicode="I" horiz-adv-x="302" 
d="M228 0h-154v724h154v-724z" />
    <glyph glyph-name="J" unicode="J" horiz-adv-x="530" 
d="M308 724h155v-521q0 -108 -57.5 -161.5t-170.5 -53.5q-47 0 -86.5 10t-68.5 34t-46 63.5t-19 97.5l148 22q2 -23 5.5 -41.5t11 -31.5t21 -20.5t36.5 -7.5q35 0 53 18.5t18 66.5v525z" />
    <glyph glyph-name="K" unicode="K" horiz-adv-x="673" 
d="M227 414l281 310h164l-265 -301l261 -423h-180l-191 303l-70 -76v-227h-153v724h153v-310z" />
    <glyph glyph-name="L" unicode="L" horiz-adv-x="568" 
d="M228 130h310v-130h-464v724h154v-594z" />
    <glyph glyph-name="M" unicode="M" horiz-adv-x="915" 
d="M842 0h-144v568h-4l-171 -568h-139l-165 569h-4v-569h-141v724h230l153 -529h4l152 529h229v-724z" />
    <glyph glyph-name="N" unicode="N" horiz-adv-x="745" 
d="M494 0l-279 511v-511h-141v724h184l274 -513v513h140v-724h-178z" />
    <glyph glyph-name="O" unicode="O" horiz-adv-x="760" 
d="M375 -12q-90 0 -153.5 27.5t-104.5 77t-60 117.5t-19 149t22 150t66.5 119.5t110.5 79.5t154 29t151 -28.5t103 -78t59 -116t19 -141.5q0 -88 -21.5 -159t-64.5 -121.5t-108.5 -77.5t-153.5 -27zM381 118q40 0 74 13.5t58 42.5t37.5 76t13.5 114q0 126 -46 184.5
t-130 58.5q-88 0 -139.5 -59.5t-51.5 -185.5q0 -65 12.5 -111t36.5 -75.5t58 -43.5t77 -14z" />
    <glyph glyph-name="P" unicode="P" horiz-adv-x="621" 
d="M227 0h-153v724h274q69 0 115.5 -19t74.5 -50.5t39.5 -72.5t11.5 -84q0 -131 -70.5 -197.5t-212.5 -66.5h-79v-234zM289 358q30 0 55.5 5t45 19.5t30.5 39.5t11 65q0 35 -10 57t-27 34.5t-41 17t-52 4.5h-74v-242h62z" />
    <glyph glyph-name="Q" unicode="Q" horiz-adv-x="760" 
d="M375 -12q-90 0 -153.5 27.5t-104.5 77t-60 117.5t-19 149t22 150t66.5 119.5t110.5 79.5t154 29t151 -28.5t103 -78t59 -116t19 -141.5q0 -169 -83 -270l82 -88l-96 -81l-83 90q-35 -17 -76.5 -26.5t-91.5 -9.5zM383 115q18 0 35.5 2.5t33.5 7.5l-113 120l93 83l107 -121
q14 28 20 68t6 89q0 126 -46.5 184.5t-130.5 58.5q-88 0 -139.5 -59.5t-51.5 -185.5q0 -65 13 -111.5t37 -76.5t58.5 -44.5t77.5 -14.5z" />
    <glyph glyph-name="R" unicode="R" horiz-adv-x="642" 
d="M635 0h-166l-143 275h-99v-275h-153v724h282q67 0 113 -17t74.5 -45t40.5 -65t12 -77q0 -81 -34.5 -131t-90.5 -76zM306 396q27 0 51 5.5t41.5 18t28 33.5t10.5 52q0 52 -31.5 73.5t-93.5 21.5h-85v-204h79z" />
    <glyph glyph-name="S" unicode="S" horiz-adv-x="596" 
d="M300 618q-56 0 -82 -21t-26 -56q0 -28 16 -46t42.5 -30.5t60.5 -22t69 -20.5t69 -25.5t60.5 -38t42.5 -57.5t16 -84q0 -62 -23 -105t-61.5 -71t-88.5 -40.5t-104 -12.5q-49 0 -97 9.5t-87 35t-65 70t-31 115.5l140 21q4 -26 12.5 -49.5t24.5 -41t41.5 -28t65.5 -10.5
q24 0 45.5 4.5t38 15t26.5 27.5t10 42q0 28 -16 45.5t-42.5 29.5t-60.5 20.5t-69.5 18.5t-69.5 24t-60.5 37.5t-42.5 58.5t-16 86q0 53 20.5 93.5t56.5 68.5t84 42t103 14q48 0 93 -9t80 -32.5t58 -65t27 -105.5l-141 -16q-2 25 -9 45.5t-21 34.5t-35.5 21.5t-53.5 7.5z" />
    <glyph glyph-name="T" unicode="T" horiz-adv-x="595" 
d="M221 0v594h-213v130h579v-130h-211v-594h-155z" />
    <glyph glyph-name="U" unicode="U" horiz-adv-x="708" 
d="M356 117q38 0 63.5 9.5t40.5 29.5t21.5 51.5t6.5 75.5v441h154v-463q0 -72 -20 -123.5t-58 -85t-92 -49t-122 -15.5q-150 0 -217.5 67.5t-67.5 209.5v459h155v-438q0 -42 6 -74t21.5 -53t42 -31.5t66.5 -10.5z" />
    <glyph glyph-name="V" unicode="V" horiz-adv-x="662" 
d="M232 0l-235 724h173l165 -572h6l165 572h159l-225 -724h-208z" />
    <glyph glyph-name="W" unicode="W" horiz-adv-x="964" 
d="M604 0l-117 499h-4l-116 -499h-203l-156 724h161l102 -558h4l129 558h165l133 -561h5l94 561h155l-155 -724h-197z" />
    <glyph glyph-name="X" unicode="X" horiz-adv-x="651" 
d="M414 366l238 -366h-178l-158 241l-151 -241h-166l234 365l-223 359h172l148 -245l150 245h160z" />
    <glyph glyph-name="Y" unicode="Y" horiz-adv-x="606" 
d="M388 0h-155v271l-251 453h169l159 -310h5l153 310h156l-236 -451v-273z" />
    <glyph glyph-name="Z" unicode="Z" horiz-adv-x="592" 
d="M212 130h351v-130h-536v113l343 482h-334v129h513v-115z" />
    <glyph glyph-name="bracketleft" unicode="[" horiz-adv-x="318" 
d="M55 -143v867h227v-98h-81v-671h81v-98h-227z" />
    <glyph glyph-name="backslash" unicode="\" horiz-adv-x="446" 
d="M299 -92l-280 847h137l281 -847h-138z" />
    <glyph glyph-name="bracketright" unicode="]" horiz-adv-x="318" 
d="M263.01 -143v867h-226.958v-98h80.9854v-671h-80.9854v-98h226.958z" />
    <glyph glyph-name="asciicircum" unicode="^" horiz-adv-x="683" 
d="M474 299l-133 236l-130 -236h-142l197 365h153l199 -365h-144z" />
    <glyph glyph-name="underscore" unicode="_" horiz-adv-x="500" 
d="M0 -181v110h500v-110h-500z" />
    <glyph glyph-name="grave" unicode="`" horiz-adv-x="500" 
d="M95 743h162l74 -162l-101 -9z" />
    <glyph glyph-name="a" unicode="a" horiz-adv-x="558" 
d="M481 130q0 -21 5.5 -30.5t25.5 -9.5q11 0 31 6l4 -87q-15 -8 -43.5 -14t-52.5 -6q-45 0 -72 14.5t-35 51.5q-25 -32 -63 -49.5t-92 -17.5q-49 0 -79 14.5t-47 35.5t-23 45t-6 44q0 60 28 96t71.5 55t96.5 25t103 6v19q0 22 -2.5 39.5t-10 30t-22 19t-39.5 6.5
q-38 0 -54.5 -17t-24.5 -55l-128 25q6 37 21 66t41.5 49t65.5 30.5t92 10.5q105 0 157 -43t52 -141v-218zM334 221h-24q-27 -1 -50 -4.5t-39.5 -11t-25.5 -20.5t-9 -33q0 -23 12.5 -40t48.5 -17q27 0 51 11t36 23v92z" />
    <glyph glyph-name="b" unicode="b" horiz-adv-x="592" 
d="M59 0v755h148v-281q32 31 70.5 44.5t86.5 13.5q39 0 74 -13.5t61.5 -44.5t41.5 -80.5t15 -121.5q0 -77 -16.5 -130.5t-45.5 -88t-68.5 -50t-86.5 -15.5q-48 0 -83.5 16t-59.5 40h-3l-7 -44h-127zM209 143q14 -11 38 -22.5t53 -11.5q51 0 74 39t23 120q0 31 -4.5 57.5
t-15 45.5t-28 29.5t-44.5 10.5t-53 -12.5t-43 -27.5v-228z" />
    <glyph glyph-name="c" unicode="c" horiz-adv-x="544" 
d="M285 -12q-65 0 -112.5 19.5t-78.5 54.5t-45.5 83.5t-14.5 106.5q0 135 69 207.5t197 72.5q94 0 151.5 -50.5t65.5 -146.5l-135 -20q-5 49 -22.5 75t-62.5 26q-21 0 -40.5 -6t-33.5 -22.5t-22.5 -45.5t-8.5 -74t7 -76t20.5 -50t32.5 -27.5t43 -8.5q44 0 67 22.5t30 72.5
l127 -24q-7 -49 -27 -84.5t-51 -59t-70.5 -34.5t-85.5 -11z" />
    <glyph glyph-name="d" unicode="d" horiz-adv-x="591" 
d="M534 0h-126l-9 51l-3 1q-27 -30 -64.5 -47t-89.5 -17q-46 0 -83.5 14.5t-64.5 46t-42 81.5t-15 120q0 78 19 132t50.5 87.5t70.5 48t80 14.5q44 0 75.5 -10.5t56.5 -33.5v267h145v-755zM384 383q-15 11 -36.5 20t-47.5 9q-29 0 -48.5 -12t-32.5 -33t-18.5 -49.5
t-5.5 -62.5q0 -70 23 -109t77 -39q24 0 47.5 10t41.5 27v239z" />
    <glyph glyph-name="e" unicode="e" horiz-adv-x="547" 
d="M289 -12q-72 0 -121 22.5t-79 60t-42.5 86.5t-12.5 102q0 70 20 121.5t55 85.5t81 50t99 16q59 0 101.5 -17.5t69.5 -49t40 -76t13 -98.5q0 -13 -0.5 -33.5t-2.5 -34.5h-317q2 -65 28.5 -91.5t76.5 -26.5q41 0 59 20.5t26 53.5l127 -31q-14 -73 -70.5 -116.5
t-150.5 -43.5zM357 319q0 57 -19.5 80.5t-56.5 23.5q-16 0 -31.5 -5.5t-27.5 -18t-19.5 -32.5t-7.5 -48h162z" />
    <glyph glyph-name="f" unicode="f" horiz-adv-x="366" 
d="M377 640q-15 5 -33.5 9t-36.5 4t-32.5 -3.5t-25 -12.5t-16.5 -26t-6 -44v-46h138v-110h-138v-411h-151v411h-70v110h70v60q0 48 14 83t39 57.5t60.5 33.5t78.5 11q41 0 71.5 -6.5t43.5 -12.5z" />
    <glyph glyph-name="g" unicode="g" horiz-adv-x="560" 
d="M274 532q43 0 77.5 -7.5t60.5 -24.5q7 15 16 29t20.5 25t26.5 18t33 7q19 0 42 -9v-99q-23 2 -43.5 0.5t-42.5 -8.5q23 -26 33 -55.5t10 -61.5q0 -44 -17 -78.5t-47.5 -58.5t-72.5 -37t-92 -13q-26 0 -45.5 2.5t-41.5 8.5q-7 -7 -13 -14.5t-6 -17.5q0 -11 9 -18t38 -9
l148 -9q42 -3 74.5 -12t55 -26.5t34 -45t11.5 -66.5q0 -48 -21 -81.5t-57.5 -55t-86.5 -31t-107 -9.5q-72 0 -120 9t-77 24.5t-41.5 38t-12.5 49.5q0 37 25.5 61.5t68.5 32.5v4q-76 22 -76 88q0 39 22 64.5t59 51.5q-35 20 -55.5 55.5t-20.5 85.5q0 42 15.5 77t45 61
t72.5 40.5t99 14.5zM369 347q0 41 -23.5 60t-65.5 19q-41 0 -68 -18.5t-27 -60.5q0 -39 22.5 -59.5t70.5 -20.5q41 0 66 21t25 59zM395 -75q0 15 -12 27t-52 14l-145 9q-14 -11 -22.5 -23.5t-8.5 -26.5q0 -15 10 -25.5t27 -16.5t40.5 -8.5t49.5 -2.5q51 0 82 10.5t31 42.5z
" />
    <glyph glyph-name="h" unicode="h" horiz-adv-x="583" 
d="M530 0h-151v329q0 42 -17 61t-52 19q-31 0 -59 -13.5t-43 -27.5v-368h-151v755h150v-282q28 22 66.5 40.5t94.5 18.5q85 0 123.5 -43t38.5 -133v-356z" />
    <glyph glyph-name="i" unicode="i" horiz-adv-x="268" 
d="M211 0h-151v521h151v-521zM227 681q0 -44 -24 -68t-67 -24q-44 0 -67.5 24t-23.5 68t23.5 67.5t67.5 23.5q43 0 67 -23.5t24 -67.5z" />
    <glyph glyph-name="j" unicode="j" horiz-adv-x="266" 
d="M25 -223q-41 0 -75 9t-48 19l11 113q13 -6 35.5 -13t46.5 -7q27 0 46 15.5t19 62.5v545h151v-562q0 -49 -13.5 -83.5t-38 -56.5t-59 -32t-75.5 -10zM227 684q0 -45 -23.5 -69t-67.5 -24q-43 0 -67 24t-24 69q0 44 24 67t67 23q44 0 67.5 -23t23.5 -67z" />
    <glyph glyph-name="k" unicode="k" horiz-adv-x="564" 
d="M210 339l172 182h167l-173 -187l186 -334h-167l-135 238l-50 -49v-189h-151v755h151v-416z" />
    <glyph glyph-name="l" unicode="l" horiz-adv-x="268" 
d="M211 0h-151v755h151v-755z" />
    <glyph glyph-name="m" unicode="m" horiz-adv-x="854" 
d="M208 0h-151v521h128l7 -49q31 26 69 43t89 17q47 0 81 -15t52 -50q28 29 68.5 47t93.5 18q156 0 156 -173v-359h-151v335q0 37 -13 56t-46 19q-21 0 -46.5 -10.5t-39.5 -25.5q0 -3 0.5 -6t0.5 -7v-361h-151v335q0 37 -13 56t-45 19q-23 0 -48.5 -11t-40.5 -26v-373z" />
    <glyph glyph-name="n" unicode="n" horiz-adv-x="583" 
d="M530 0h-151v330q0 42 -17 61t-52 19q-31 0 -59 -13.5t-43 -27.5v-369h-151v521h134l8 -52q29 26 70.5 44.5t95.5 18.5q87 0 126 -43t39 -133v-356z" />
    <glyph glyph-name="o" unicode="o" horiz-adv-x="587" 
d="M288 -12q-71 0 -119.5 20t-78.5 56t-43 85.5t-13 108.5q0 63 16.5 113.5t49.5 86t83.5 55t118.5 19.5t115.5 -19.5t77.5 -54.5t44 -83t14 -106q0 -64 -15 -116t-47.5 -88.5t-82.5 -56.5t-120 -20zM295 100q25 0 43.5 8.5t31.5 28t19.5 50.5t6.5 77q0 85 -24 119.5
t-74 34.5q-51 0 -78.5 -35.5t-27.5 -120.5q0 -87 23.5 -124.5t79.5 -37.5z" />
    <glyph glyph-name="p" unicode="p" horiz-adv-x="592" 
d="M59 521h128l9 -53q34 34 76.5 49t86.5 15q42 0 77.5 -13.5t62 -44.5t41.5 -80.5t15 -121.5q0 -78 -17 -132t-46 -87.5t-67.5 -49t-81.5 -15.5q-48 0 -80.5 13.5t-57.5 36.5v-250h-146v733zM208 144q11 -11 37 -23t54 -12q53 0 75.5 41.5t22.5 117.5q0 79 -23 111.5
t-69 32.5q-26 0 -53 -13t-44 -27v-228z" />
    <glyph glyph-name="q" unicode="q" horiz-adv-x="590" 
d="M534 -212h-144v257q-29 -28 -65 -42.5t-85 -14.5q-46 0 -83.5 14.5t-64 46.5t-41 82t-14.5 121q0 78 19 131.5t50.5 86.5t71 47.5t80.5 14.5q89 0 138 -59l14 48h124v-733zM384 381q-15 13 -38 22t-48 9q-56 0 -79.5 -43t-23.5 -111q0 -34 5 -61.5t17 -47t31 -30.5
t47 -11q24 0 47.5 10t41.5 26v237z" />
    <glyph glyph-name="r" unicode="r" horiz-adv-x="393" 
d="M387 384q-51 5 -98.5 -8t-80.5 -39v-337h-151v521h129l11 -82q26 38 65 65.5t99 27.5q6 0 12.5 -0.5t13.5 -0.5v-147z" />
    <glyph glyph-name="s" unicode="s" horiz-adv-x="501" 
d="M257 532q89 0 139 -36t69 -102l-124 -39q-10 33 -29 52t-61 19q-66 0 -66 -46q0 -14 8 -23.5t22 -15.5t33.5 -10t42.5 -8q34 -6 67 -14.5t58.5 -25t41.5 -45t16 -74.5q0 -45 -18 -78t-48.5 -54.5t-72.5 -32.5t-90 -11q-101 0 -154.5 39t-67.5 104l123 40q4 -15 11 -29
t19 -25.5t29.5 -18t44.5 -6.5q75 0 75 49q0 29 -25.5 38.5t-71.5 17.5q-34 6 -67.5 15t-60.5 26.5t-43.5 46.5t-16.5 77q0 43 17.5 75t47.5 53t69 31.5t83 10.5z" />
    <glyph glyph-name="t" unicode="t" horiz-adv-x="412" 
d="M404 25q-20 -13 -61.5 -25t-91.5 -12q-82 0 -124 39.5t-42 129.5v254h-78v110h78v154l151 20v-174h138v-110h-138v-233q0 -35 12.5 -52.5t48.5 -17.5q23 0 47 7.5t39 16.5z" />
    <glyph glyph-name="u" unicode="u" horiz-adv-x="578" 
d="M55 521h151v-329q0 -42 15 -61.5t51 -19.5q29 0 56.5 13.5t42.5 27.5v369h151v-521h-130l-11 56q-28 -32 -70 -49.5t-96 -17.5q-160 0 -160 173v359z" />
    <glyph glyph-name="v" unicode="v" horiz-adv-x="536" 
d="M180 0l-184 521h163l111 -376h4l111 376h155l-184 -521h-176z" />
    <glyph glyph-name="w" unicode="w" horiz-adv-x="813" 
d="M150 0l-154 521h151l95 -366h2l92 366h148l92 -364h3l91 364h147l-155 -521h-170l-84 340h-2l-77 -340h-179z" />
    <glyph glyph-name="x" unicode="x" horiz-adv-x="531" 
d="M350 268l175 -268h-161l-106 161l-103 -161h-145l170 261l-173 260h163l101 -159l104 159h145z" />
    <glyph glyph-name="y" unicode="y" horiz-adv-x="526" 
d="M-4 521h163l109 -363h3l105 363h155q-52 -146 -105.5 -293.5t-101.5 -278.5q-17 -46 -34.5 -78.5t-40 -53.5t-52 -30.5t-69.5 -9.5q-31 0 -64 7t-50 15l11 109q21 -7 41.5 -11.5t37.5 -4.5q26 0 44 13t30 43l16 41z" />
    <glyph glyph-name="z" unicode="z" horiz-adv-x="466" 
d="M199 121h246v-121h-418v107l240 301h-238v113h402v-107z" />
    <glyph glyph-name="braceleft" unicode="{" horiz-adv-x="337" 
d="M304 -145h-76q-155 0 -155 130q0 45 7 91t7 100q0 35 -15 53.5t-49 18.5h-21v92h21q35 0 49.5 19t14.5 53q0 54 -7 103t-7 92q0 68 39 99t116 31h76v-101h-22q-29 0 -38 -12.5t-9 -35.5q0 -45 7.5 -93t7.5 -93q0 -50 -22 -72t-62 -37q20 -7 35.5 -15.5t26.5 -20.5
t16.5 -29t5.5 -41q0 -46 -7.5 -91.5t-7.5 -89.5q0 -23 9.5 -36.5t41.5 -13.5h18v-101z" />
    <glyph glyph-name="bar" unicode="|" horiz-adv-x="280" 
d="M72 -143v898h137v-898h-137z" />
    <glyph glyph-name="braceright" unicode="}" horiz-adv-x="337" 
d="M33 737h76q155 0 155 -130q0 -45 -7 -91t-7 -100q0 -35 15 -53.5t49 -18.5h21v-92h-21q-35 0 -49.5 -19t-14.5 -53q0 -54 7 -103t7 -92q0 -68 -39 -99t-116 -31h-76v101h22q29 0 38 12.5t9 35.5q0 45 -7.5 93t-7.5 93q0 50 22 72t62 37q-20 7 -35.5 15.5t-26.5 20.5
t-16.5 29t-5.5 41q0 46 7.5 91.5t7.5 89.5q0 23 -9.5 36.5t-41.5 13.5h-18v101z" />
    <glyph glyph-name="asciitilde" unicode="~" horiz-adv-x="600" 
d="M176 450q24 0 59 -7t70 -15t66 -15t48 -7t23.5 9.5t6.5 34.5l83 -4q4 -31 0 -57.5t-16 -46.5t-32.5 -31.5t-49.5 -11.5q-26 0 -61.5 7t-71.5 15t-67 15t-47 7t-24 -9.5t-4 -37.5l-89 3q-8 66 19 108.5t87 42.5z" />
    <glyph glyph-name="uni00A0" unicode="&#xa0;" horiz-adv-x="174" 
 />
    <glyph glyph-name="exclamdown" unicode="&#xa1;" horiz-adv-x="290" 
d="M211.016 323.036l18.9961 -526.903h-163.97l18.9961 526.903h125.978zM59.043 452.013q0 37.9932 21.9961 58.9893t66.9873 20.9961q89.9834 0 89.9834 -79.9854q0 -38.9932 -22.4951 -59.9893q-22.4961 -20.9961 -67.4883 -20.9961q-44.9912 0 -66.9873 20.9961
t-21.9961 59.9893z" />
    <glyph glyph-name="cent" unicode="&#xa2;" horiz-adv-x="537" 
d="M355 711v-104q66 -12 107 -58.5t47 -120.5l-136 -20q-5 46 -21.5 68t-54.5 22q-21 0 -38.5 -5.5t-31 -20.5t-21 -40.5t-7.5 -65.5q0 -71 22 -107t76 -36q42 0 61 20.5t27 66.5l126 -23q-11 -75 -55 -118.5t-109 -56.5v-112h-127v112q-89 17 -132.5 82t-43.5 157
q0 106 48.5 170.5t135.5 83.5v106h127z" />
    <glyph glyph-name="sterling" unicode="&#xa3;" horiz-adv-x="593" 
d="M75 120q35 31 51.5 58t16.5 65q0 32 -17 69h-96v110h65q-12 21 -26 51.5t-14 69.5q0 43 17 79t49.5 61.5t78.5 39.5t104 14q100 0 159 -43.5t75 -147.5l-134 -23q-3 21 -9 39.5t-17 32.5t-29 22t-45 8q-92 0 -92 -84q0 -32 13 -62t27 -57h193v-110h-165q11 -28 11 -60
q0 -38 -13.5 -68.5t-47.5 -63.5h105q31 0 51 5t33 16t19.5 29.5t11.5 44.5l127 -22q-8 -101 -62 -147t-166 -46h-333v120h59z" />
    <glyph glyph-name="currency" unicode="&#xa4;" 
d="M475 -4l-87 86q-24 -14 -53.5 -22t-65.5 -8t-67 9t-54 23q-7 -8 -19.5 -20.5l-26 -26l-25 -25l-16.5 -16.5l-80 82l91 91q-12 25 -18 53.5t-6 57.5q0 55 26 104l-90 89l83 84l85 -84q53 33 124 33q74 0 122 -30l82 80l78 -82l-84 -85q23 -48 23 -105q0 -30 -7.5 -60
t-21.5 -56l90 -89zM274 163q50 0 75 34t25 83q0 54 -25.5 84t-77.5 30q-50 0 -75 -32t-25 -82q0 -49 24.5 -83t78.5 -34z" />
    <glyph glyph-name="yen" unicode="&#xa5;" horiz-adv-x="574" 
d="M407 417h88v-94h-129v-69h129v-94h-129v-160h-151v160h-127v94h127v69h-127v94h83l-159 307h162l119 -253h4l115 253h151z" />
    <glyph glyph-name="brokenbar" unicode="&#xa6;" horiz-adv-x="280" 
d="M72 -143v388h137v-388h-137zM72 417v338h137v-338h-137z" />
    <glyph glyph-name="section" unicode="&#xa7;" horiz-adv-x="569" 
d="M41 236q0 46 22.5 81t67.5 64q-23 22 -40.5 54t-17.5 80q0 46 18.5 82t51 61t75 38t90.5 13q43 0 80.5 -10t66.5 -32.5t47.5 -58t23.5 -86.5l-130 -15q-4 46 -24.5 70.5t-68.5 24.5q-39 0 -62 -17t-23 -50q0 -34 23.5 -52.5t58.5 -31.5t75.5 -24.5t75.5 -30.5t58.5 -50
t23.5 -83q0 -46 -24 -83.5t-66 -67.5q23 -21 40 -52.5t17 -78.5q0 -46 -16.5 -82.5t-47 -61.5t-74 -38t-96.5 -13q-44 0 -81.5 10t-67 32t-48 57t-23.5 86l131 15q4 -46 24.5 -70.5t68.5 -24.5q39 0 62.5 18t23.5 52t-23.5 51.5t-58.5 29.5t-75.5 22.5t-75.5 30t-58.5 52.5
t-23.5 89zM176 270q0 -25 15.5 -40.5t41 -26t57 -19t63.5 -20.5q20 12 32.5 27.5t12.5 35.5q0 24 -16.5 38.5t-43 25t-59 19t-64.5 21.5q-39 -25 -39 -61z" />
    <glyph glyph-name="dieresis" unicode="&#xa8;" horiz-adv-x="500" 
d="M221 679q0 -38 -24.5 -60.5t-63.5 -22.5q-41 0 -66 22.5t-25 60.5t25 61t66 23q39 0 63.5 -23t24.5 -61zM456 679q0 -38 -24 -60.5t-64 -22.5q-41 0 -65.5 22.5t-24.5 60.5t24.5 61t65.5 23q40 0 64 -23t24 -61z" />
    <glyph glyph-name="copyright" unicode="&#xa9;" horiz-adv-x="802" 
d="M753 340q0 -79 -26 -144t-72.5 -111t-111 -71.5t-142.5 -25.5q-87 0 -152.5 26t-110 71t-66.5 107t-22 134q0 82 27.5 147.5t75.5 110.5t112.5 69t137.5 24q81 0 146 -24t110.5 -68t69.5 -106t24 -139zM403 67q62 0 111.5 18.5t84 53t52.5 84t18 111.5q0 65 -20 114.5
t-55 83t-84 50.5t-107 17q-57 0 -106 -18t-85 -53t-56 -85.5t-20 -115.5q0 -122 70 -191t197 -69zM565 268q-5 -39 -22.5 -64t-40.5 -39.5t-48.5 -20t-47.5 -5.5q-48 0 -82 14.5t-55.5 41t-31 62t-9.5 77.5t12 78t35 61.5t57 40t78 14.5q29 0 55.5 -8t47 -24.5t33.5 -41.5
t15 -60l-73 -8q-5 40 -24.5 58t-57.5 18q-41 0 -68.5 -29.5t-27.5 -100.5q0 -26 4.5 -49t16 -40.5t30 -28t45.5 -10.5q42 0 61.5 21t26.5 56z" />
    <glyph glyph-name="ordfeminine" unicode="&#xaa;" horiz-adv-x="397" 
d="M341 378q0 -18 8 -23.5t30 1.5l3 -66q-11 -5 -28.5 -9t-35.5 -4q-32 0 -52.5 10.5t-27.5 36.5q-17 -21 -42 -34.5t-63 -13.5q-33 0 -54 9.5t-33 23.5t-16 30t-4 29q0 40 20.5 63.5t50.5 35t65 15t64 3.5v13q0 22 -6.5 37.5t-37.5 15.5q-22 0 -32.5 -11t-14.5 -35l-100 18
q4 24 14.5 44t29.5 35t46.5 23t65.5 8q75 0 112.5 -28.5t37.5 -92.5v-134zM227 422q-10 0 -24 -0.5t-27 -4.5t-22.5 -11.5t-9.5 -22.5q0 -13 7.5 -21.5t28.5 -8.5q16 0 28 6t19 12v51z" />
    <glyph glyph-name="guillemotleft" unicode="&#xab;" horiz-adv-x="464" 
d="M123 103l-86 154l89 151h122l-88 -147l84 -158h-121zM309 103l-86 154l89 151h122l-88 -147l84 -158h-121z" />
    <glyph glyph-name="logicalnot" unicode="&#xac;" 
d="M361 170v95h-276v119h387v-214h-111z" />
    <glyph glyph-name="uni00AD" unicode="&#xad;" horiz-adv-x="311" 
d="M20 227v129h271v-129h-271z" />
    <glyph glyph-name="registered" unicode="&#xae;" horiz-adv-x="465" 
d="M425 474q0 -43 -14 -78.5t-39.5 -61t-61.5 -39.5t-79 -14q-47 0 -82.5 14.5t-59.5 39t-36.5 58.5t-12.5 73q0 45 15 81t41.5 61t61.5 38.5t75 13.5q44 0 79.5 -13.5t60.5 -37.5t38.5 -58.5t13.5 -76.5zM375 471q0 70 -40.5 106t-101.5 36q-30 0 -55.5 -10t-45 -28.5
t-30.5 -45.5t-11 -61q0 -65 38 -102t104 -37t104 38t38 104zM327 382h-53l-42 71h-17v-71h-47v190h71q42 0 57 -17t15 -38q0 -22 -10.5 -33.5t-24.5 -16.5zM228 487q16 0 25.5 5.5t9.5 20.5q0 14 -9 19t-21 5h-18v-50h13z" />
    <glyph glyph-name="macron" unicode="&#xaf;" horiz-adv-x="500" 
d="M94 601v102h311v-102h-311z" />
    <glyph glyph-name="degree" unicode="&#xb0;" horiz-adv-x="358" 
d="M181 580q21 0 34.5 14.5t13.5 37.5t-14 37t-34 14t-35 -14.5t-15 -39.5q0 -21 13.5 -35t36.5 -14zM298 632q0 -54 -32.5 -86t-84.5 -32q-54 0 -86.5 31.5t-32.5 83.5q0 28 9.5 50t25.5 37.5t38 24t46 8.5q49 0 83 -31.5t34 -85.5z" />
    <glyph glyph-name="plusminus" unicode="&#xb1;" 
d="M91 0v119h387v-119h-387zM224 144v120h-133v119h133v139h120v-139h134v-119h-134v-120h-120z" />
    <glyph glyph-name="twosuperior" unicode="&#xb2;" horiz-adv-x="405" 
d="M203 809q83 0 120.5 -33.5t37.5 -86.5q0 -27 -8 -49.5t-24.5 -45t-42 -46.5t-61.5 -54l-32 -33v-4h175v-108h-327v108l97 97q25 25 42.5 44t28 33t15 25.5t4.5 23.5q0 34 -34 34q-43 0 -50 -57l-114 15q4 36 19 62t38.5 42.5t53 24.5t62.5 8z" />
    <glyph glyph-name="threesuperior" unicode="&#xb3;" horiz-adv-x="412" 
d="M136 487q3 -28 16 -39t36 -11q21 0 34.5 11.5t13.5 36.5q0 27 -12.5 38.5t-44.5 11.5h-50v86h31q36 0 53 16t17 43q0 17 -9 26.5t-29 9.5q-21 0 -32.5 -12t-16.5 -35l-110 20q6 35 23 58t40 37t51.5 19.5t57.5 5.5q74 0 114.5 -27.5t40.5 -81.5q0 -23 -7.5 -40.5
t-19.5 -30t-27.5 -22t-32.5 -15.5v-3q98 -20 98 -107q0 -34 -13.5 -60t-38 -44t-57.5 -27t-72 -9q-29 0 -57 5.5t-51 20t-39.5 38.5t-20.5 60z" />
    <glyph glyph-name="acute" unicode="&#xb4;" horiz-adv-x="500" 
d="M272 572l-101 9l75 162h161z" />
    <glyph glyph-name="mu" unicode="&#xb5;" horiz-adv-x="629" 
d="M81 521h151v-330q0 -43 11.5 -62.5t43.5 -19.5t58.5 14.5t43.5 28.5v369h151v-521h-125l-5 54h-5q-35 -34 -77.5 -50t-99.5 -5l-1 -1l10 -174h-156v697z" />
    <glyph glyph-name="paragraph" unicode="&#xb6;" horiz-adv-x="601" 
d="M530 -133h-105v763h-66v-763h-105v377q-111 7 -163.5 67.5t-52.5 163.5q0 69 22 116.5t60 77t89.5 42.5t110.5 13h209z" />
    <glyph glyph-name="periodcentered" unicode="&#xb7;" horiz-adv-x="238" 
d="M205 309q0 -79 -85 -79q-86 0 -86 79q0 80 86 80q85 0 85 -80z" />
    <glyph glyph-name="cedilla" unicode="&#xb8;" horiz-adv-x="500" 
d="M151 -162q12 -3 23.5 -5t24.5 -2q23 0 36.5 8.5t13.5 28.5q0 23 -17 29.5t-47 7.5l16 125l72 -8l-9 -67q16 -3 31.5 -9t27.5 -17t19 -27t7 -39q0 -55 -37.5 -82t-93.5 -27q-46 0 -82 14z" />
    <glyph glyph-name="onesuperior" unicode="&#xb9;" horiz-adv-x="328" 
d="M137 347v314q-8 -4 -22 -7t-29 -5.5t-28.5 -4t-21.5 -1.5l-5 104q42 3 80 15.5t62 36.5h97v-452h-133z" />
    <glyph glyph-name="ordmasculine" unicode="&#xba;" horiz-adv-x="416" 
d="M203 276q-50 0 -84 13t-55 36.5t-30 56t-9 71.5q0 83 45.5 131.5t142.5 48.5q48 0 82 -13t55.5 -35.5t31 -54.5t9.5 -69q0 -85 -44.5 -135t-143.5 -50zM208 358q31 0 45.5 21t14.5 78q0 53 -13.5 73t-44.5 20t-46.5 -21t-15.5 -73q0 -53 13.5 -75.5t46.5 -22.5z" />
    <glyph glyph-name="guillemotright" unicode="&#xbb;" horiz-adv-x="464" 
d="M153 408l89 -153l-87 -152h-120l84 153l-88 152h122zM339 408l89 -153l-87 -152h-120l84 153l-88 152h122z" />
    <glyph glyph-name="onequarter" unicode="&#xbc;" horiz-adv-x="1012" 
d="M233 -12l354 736h138l-353 -736h-139zM153 281v314q-8 -4 -22 -7t-29 -5.5t-28.5 -4t-21.5 -1.5l-5 104q42 3 80 15.5t62 36.5h97v-452h-133zM784 2v92h-208v89l176 271h159v-260h52v-100h-51v-92h-128zM784 194v150l-98 -150h98z" />
    <glyph glyph-name="onehalf" unicode="&#xbd;" horiz-adv-x="1012" 
d="M228 -12l354 736h138l-353 -736h-139zM156 281v314q-8 -4 -22 -7t-29 -5.5t-28.5 -4t-21.5 -1.5l-5 104q42 3 80 15.5t62 36.5h97v-452h-133zM787 462q83 0 120.5 -33.5t37.5 -86.5q0 -27 -8 -49.5t-24.5 -45t-42 -46.5t-61.5 -54l-32 -33v-4h175v-108h-327v108l97 97
q25 25 42.5 44t28 33t15 25.5t4.5 23.5q0 34 -34 34q-43 0 -50 -57l-114 15q4 36 19 62t38.5 42.5t53 24.5t62.5 8z" />
    <glyph glyph-name="threequarters" unicode="&#xbe;" horiz-adv-x="1012" 
d="M265 -12l354 736h138l-353 -736h-139zM796 2v92h-208v89l176 271h159v-260h52v-100h-51v-92h-128zM796 194v150l-98 -150h98zM154 421q3 -28 16 -39t36 -11q21 0 34.5 11.5t13.5 36.5q0 27 -12.5 38.5t-44.5 11.5h-50v86h31q36 0 53 16t17 43q0 17 -9 26.5t-29 9.5
q-21 0 -32.5 -12t-16.5 -35l-110 20q6 35 23 58t40 37t51.5 19.5t57.5 5.5q74 0 114.5 -27.5t40.5 -81.5q0 -23 -7.5 -40.5t-19.5 -30t-27.5 -22t-32.5 -15.5v-3q98 -20 98 -107q0 -34 -13.5 -60t-38 -44t-57.5 -27t-72 -9q-29 0 -57 5.5t-51 20t-39.5 38.5t-20.5 60z" />
    <glyph glyph-name="questiondown" unicode="&#xbf;" horiz-adv-x="536" 
d="M386.028 323.036v-182.967q-35.9932 -2.99902 -71.9863 -10.498q-35.9941 -7.49805 -63.9883 -23.4951q-27.9951 -15.9971 -45.4922 -41.9922q-17.4971 -25.9961 -17.4971 -65.9883q0 -47.9912 24.4961 -67.4873q24.4951 -19.4971 62.4883 -19.4971
q46.9912 0 71.9873 24.9961q24.9951 24.9951 33.9932 78.9854l146.974 -22.9961q-11.998 -95.9824 -77.9863 -150.973q-65.9873 -54.9893 -182.966 -54.9893q-45.9922 0 -88.9844 10.498t-75.9863 35.4932q-32.9932 24.9951 -52.9902 65.9883
q-19.9961 40.9922 -19.9961 101.981q0 94.9824 54.4902 151.972t153.472 79.9854v90.9834h149.973zM224.058 452.013q0 37.9932 21.9961 58.9893t66.9883 20.9961q88.9834 0 88.9834 -79.9854q0 -38.9932 -21.9961 -59.9893t-66.9873 -20.9961q-44.9922 0 -66.9883 20.9961
t-21.9961 59.9893z" />
    <glyph glyph-name="Agrave" unicode="&#xc0;" horiz-adv-x="709" 
d="M443 724l256 -724h-169l-60 176h-241l-56 -176h-159l237 724h192zM348 579h-4l-89 -280h183zM180 916h162l91 -140l-107 -8z" />
    <glyph glyph-name="Aacute" unicode="&#xc1;" horiz-adv-x="709" 
d="M443 724l256 -724h-169l-60 176h-241l-56 -176h-159l237 724h192zM348 579h-4l-89 -280h183zM365 768l-107 8l91 140h162z" />
    <glyph glyph-name="Acircumflex" unicode="&#xc2;" horiz-adv-x="709" 
d="M443 724l256 -724h-169l-60 176h-241l-56 -176h-159l237 724h192zM348 579h-4l-89 -280h183zM348 841l-75 -73l-102 7l107 142h140l102 -142l-100 -6z" />
    <glyph glyph-name="Atilde" unicode="&#xc3;" horiz-adv-x="709" 
d="M443 724l256 -724h-169l-60 176h-241l-56 -176h-159l237 724h192zM348 579h-4l-89 -280h183zM271 930q24 0 44 -6.5t37.5 -15t33.5 -15t33 -6.5t23.5 9.5t6.5 34.5l76 -4q7 -62 -15.5 -101.5t-75.5 -39.5q-26 0 -47 7t-39 15t-34 15t-32 7t-24 -9.5t-4 -37.5l-82 3
q-8 66 20 105t79 39z" />
    <glyph glyph-name="Adieresis" unicode="&#xc4;" horiz-adv-x="709" 
d="M443 724l256 -724h-169l-60 176h-241l-56 -176h-159l237 724h192zM348 579h-4l-89 -280h183zM317 858q0 -38 -24.5 -60.5t-63.5 -22.5q-41 0 -66 22.5t-25 60.5t25 61t66 23q39 0 63.5 -23t24.5 -61zM552 858q0 -38 -24 -60.5t-64 -22.5q-41 0 -65.5 22.5t-24.5 60.5
t24.5 61t65.5 23q40 0 64 -23t24 -61z" />
    <glyph glyph-name="Aring" unicode="&#xc5;" horiz-adv-x="709" 
d="M472 798q0 -49 -27 -79l254 -719h-169l-60 176h-241l-56 -176h-159l234 717q-27 30 -27 76q0 30 10 53t27 38t39.5 22.5t48.5 7.5t49 -7.5t40 -22t27 -36t10 -50.5zM348 579h-4l-89 -280h183zM346 747q23 0 37 13t14 40q0 26 -14 38t-37 12t-38.5 -12.5t-15.5 -38.5
t14.5 -39t39.5 -13z" />
    <glyph glyph-name="AE" unicode="&#xc6;" horiz-adv-x="1003" 
d="M644 130h324v-130h-478v286h-178l-136 -286h-163l353 724h583v-130h-305v-181h287v-125h-287v-158zM490 594h-43l-90 -186h133v186z" />
    <glyph glyph-name="Ccedilla" unicode="&#xc7;" horiz-adv-x="695" 
d="M282 -162q12 -3 23.5 -5t24.5 -2q23 0 36.5 8.5t13.5 28.5q0 23 -17 29.5t-47 7.5l11 85q-78 6 -132.5 34.5t-89.5 75.5t-51 111t-16 143q0 86 22.5 156.5t67 121t109.5 78t150 27.5q61 0 112 -15t88.5 -46.5t59.5 -81t25 -117.5l-141 -12q-7 78 -41.5 111.5t-104.5 33.5
q-89 0 -138.5 -59.5t-49.5 -188.5q0 -67 11.5 -114t34 -76.5t55.5 -43t76 -13.5q39 0 66 9.5t45 27t29 41t17 52.5l139 -24q-8 -60 -34.5 -103t-63.5 -70.5t-82 -41.5t-91 -17l-4 -34q16 -3 31.5 -9t27.5 -17t19 -27t7 -39q0 -55 -37.5 -82t-93.5 -27q-46 0 -82 14z" />
    <glyph glyph-name="Egrave" unicode="&#xc8;" horiz-adv-x="583" 
d="M228 130h323v-130h-477v724h459v-129h-305v-170h287v-126h-287v-169zM141 916h162l91 -140l-107 -8z" />
    <glyph glyph-name="Eacute" unicode="&#xc9;" horiz-adv-x="583" 
d="M228 130h323v-130h-477v724h459v-129h-305v-170h287v-126h-287v-169zM326 768l-107 8l91 140h162z" />
    <glyph glyph-name="Ecircumflex" unicode="&#xca;" horiz-adv-x="583" 
d="M228 130h323v-130h-477v724h459v-129h-305v-170h287v-126h-287v-169zM309 841l-75 -73l-102 7l107 142h140l102 -142l-100 -6z" />
    <glyph glyph-name="Edieresis" unicode="&#xcb;" horiz-adv-x="583" 
d="M228 130h323v-130h-477v724h459v-129h-305v-170h287v-126h-287v-169zM278 858q0 -38 -24.5 -60.5t-63.5 -22.5q-41 0 -66 22.5t-25 60.5t25 61t66 23q39 0 63.5 -23t24.5 -61zM513 858q0 -38 -24 -60.5t-64 -22.5q-41 0 -65.5 22.5t-24.5 60.5t24.5 61t65.5 23
q40 0 64 -23t24 -61z" />
    <glyph glyph-name="Igrave" unicode="&#xcc;" horiz-adv-x="302" 
d="M228 0h-154v724h154v-724zM-13 916h162l91 -140l-107 -8z" />
    <glyph glyph-name="Iacute" unicode="&#xcd;" horiz-adv-x="302" 
d="M228 0h-154v724h154v-724zM172 768l-107 8l91 140h162z" />
    <glyph glyph-name="Icircumflex" unicode="&#xce;" horiz-adv-x="302" 
d="M228 0h-154v724h154v-724zM155 841l-75 -73l-102 7l107 142h140l102 -142l-100 -6z" />
    <glyph glyph-name="Idieresis" unicode="&#xcf;" horiz-adv-x="302" 
d="M228 0h-154v724h154v-724zM124 858q0 -38 -24.5 -60.5t-63.5 -22.5q-41 0 -66 22.5t-25 60.5t25 61t66 23q39 0 63.5 -23t24.5 -61zM359 858q0 -38 -24 -60.5t-64 -22.5q-41 0 -65.5 22.5t-24.5 60.5t24.5 61t65.5 23q40 0 64 -23t24 -61z" />
    <glyph glyph-name="Eth" unicode="&#xd0;" horiz-adv-x="724" 
d="M74 0v305h-67v129h67v290h254q94 0 162 -24.5t111.5 -70t64.5 -110.5t21 -146q0 -83 -22.5 -152t-68.5 -118t-117 -76t-168 -27h-237zM304 124q63 0 106 16.5t69.5 47.5t38 76t11.5 101q0 67 -13 112.5t-40 72.5t-67 38.5t-94 11.5h-87v-166h171v-129h-171v-181h76z" />
    <glyph glyph-name="Ntilde" unicode="&#xd1;" horiz-adv-x="745" 
d="M494 0l-279 511v-511h-141v724h184l274 -513v513h140v-724h-178zM297 930q24 0 44 -6.5t37.5 -15t33.5 -15t33 -6.5t23.5 9.5t6.5 34.5l76 -4q7 -62 -15.5 -101.5t-75.5 -39.5q-26 0 -47 7t-39 15t-34 15t-32 7t-24 -9.5t-4 -37.5l-82 3q-8 66 20 105t79 39z" />
    <glyph glyph-name="Ograve" unicode="&#xd2;" horiz-adv-x="760" 
d="M375 -12q-90 0 -153.5 27.5t-104.5 77t-60 117.5t-19 149t22 150t66.5 119.5t110.5 79.5t154 29t151 -28.5t103 -78t59 -116t19 -141.5q0 -88 -21.5 -159t-64.5 -121.5t-108.5 -77.5t-153.5 -27zM381 118q40 0 74 13.5t58 42.5t37.5 76t13.5 114q0 126 -46 184.5
t-130 58.5q-88 0 -139.5 -59.5t-51.5 -185.5q0 -65 12.5 -111t36.5 -75.5t58 -43.5t77 -14zM224 916h162l91 -140l-107 -8z" />
    <glyph glyph-name="Oacute" unicode="&#xd3;" horiz-adv-x="760" 
d="M375 -12q-90 0 -153.5 27.5t-104.5 77t-60 117.5t-19 149t22 150t66.5 119.5t110.5 79.5t154 29t151 -28.5t103 -78t59 -116t19 -141.5q0 -88 -21.5 -159t-64.5 -121.5t-108.5 -77.5t-153.5 -27zM381 118q40 0 74 13.5t58 42.5t37.5 76t13.5 114q0 126 -46 184.5
t-130 58.5q-88 0 -139.5 -59.5t-51.5 -185.5q0 -65 12.5 -111t36.5 -75.5t58 -43.5t77 -14zM409 768l-107 8l91 140h162z" />
    <glyph glyph-name="Ocircumflex" unicode="&#xd4;" horiz-adv-x="760" 
d="M375 -12q-90 0 -153.5 27.5t-104.5 77t-60 117.5t-19 149t22 150t66.5 119.5t110.5 79.5t154 29t151 -28.5t103 -78t59 -116t19 -141.5q0 -88 -21.5 -159t-64.5 -121.5t-108.5 -77.5t-153.5 -27zM381 118q40 0 74 13.5t58 42.5t37.5 76t13.5 114q0 126 -46 184.5
t-130 58.5q-88 0 -139.5 -59.5t-51.5 -185.5q0 -65 12.5 -111t36.5 -75.5t58 -43.5t77 -14zM392 841l-75 -73l-102 7l107 142h140l102 -142l-100 -6z" />
    <glyph glyph-name="Otilde" unicode="&#xd5;" horiz-adv-x="760" 
d="M375 -12q-90 0 -153.5 27.5t-104.5 77t-60 117.5t-19 149t22 150t66.5 119.5t110.5 79.5t154 29t151 -28.5t103 -78t59 -116t19 -141.5q0 -88 -21.5 -159t-64.5 -121.5t-108.5 -77.5t-153.5 -27zM381 118q40 0 74 13.5t58 42.5t37.5 76t13.5 114q0 126 -46 184.5
t-130 58.5q-88 0 -139.5 -59.5t-51.5 -185.5q0 -65 12.5 -111t36.5 -75.5t58 -43.5t77 -14zM315 930q24 0 44 -6.5t37.5 -15t33.5 -15t33 -6.5t23.5 9.5t6.5 34.5l76 -4q7 -62 -15.5 -101.5t-75.5 -39.5q-26 0 -47 7t-39 15t-34 15t-32 7t-24 -9.5t-4 -37.5l-82 3
q-8 66 20 105t79 39z" />
    <glyph glyph-name="Odieresis" unicode="&#xd6;" horiz-adv-x="760" 
d="M375 -12q-90 0 -153.5 27.5t-104.5 77t-60 117.5t-19 149t22 150t66.5 119.5t110.5 79.5t154 29t151 -28.5t103 -78t59 -116t19 -141.5q0 -88 -21.5 -159t-64.5 -121.5t-108.5 -77.5t-153.5 -27zM381 118q40 0 74 13.5t58 42.5t37.5 76t13.5 114q0 126 -46 184.5
t-130 58.5q-88 0 -139.5 -59.5t-51.5 -185.5q0 -65 12.5 -111t36.5 -75.5t58 -43.5t77 -14zM361 858q0 -38 -24.5 -60.5t-63.5 -22.5q-41 0 -66 22.5t-25 60.5t25 61t66 23q39 0 63.5 -23t24.5 -61zM596 858q0 -38 -24 -60.5t-64 -22.5q-41 0 -65.5 22.5t-24.5 60.5t24.5 61
t65.5 23q40 0 64 -23t24 -61z" />
    <glyph glyph-name="multiply" unicode="&#xd7;" 
d="M285 235l-99 -99l-84 87l99 98l-99 99l84 87l99 -99l99 99l84 -87l-99 -99l99 -98l-84 -87z" />
    <glyph glyph-name="Oslash" unicode="&#xd8;" horiz-adv-x="760" 
d="M375 -12q-40 0 -76 6l-27 -66h-143l46 112q-72 48 -104.5 130.5t-32.5 188.5q0 81 22 150t66.5 119.5t110.5 79.5t154 29q39 0 72 -6l27 63h142l-46 -110q71 -48 104 -130t33 -181q0 -88 -21.5 -159t-64.5 -121.5t-108.5 -77.5t-153.5 -27zM197 362q0 -59 10 -102t30 -73
l174 418q-5 1 -11 1.5t-12 0.5q-88 0 -139.5 -59.5t-51.5 -185.5zM381 118q40 0 74 13.5t58 42.5t37.5 76t13.5 114q0 57 -10 100t-29 73l-174 -418q8 -1 15 -1h15z" />
    <glyph glyph-name="Ugrave" unicode="&#xd9;" horiz-adv-x="708" 
d="M356 117q38 0 63.5 9.5t40.5 29.5t21.5 51.5t6.5 75.5v441h154v-463q0 -72 -20 -123.5t-58 -85t-92 -49t-122 -15.5q-150 0 -217.5 67.5t-67.5 209.5v459h155v-438q0 -42 6 -74t21.5 -53t42 -31.5t66.5 -10.5zM187 916h162l91 -140l-107 -8z" />
    <glyph glyph-name="Uacute" unicode="&#xda;" horiz-adv-x="708" 
d="M356 117q38 0 63.5 9.5t40.5 29.5t21.5 51.5t6.5 75.5v441h154v-463q0 -72 -20 -123.5t-58 -85t-92 -49t-122 -15.5q-150 0 -217.5 67.5t-67.5 209.5v459h155v-438q0 -42 6 -74t21.5 -53t42 -31.5t66.5 -10.5zM380 768l-107 8l91 140h162z" />
    <glyph glyph-name="Ucircumflex" unicode="&#xdb;" horiz-adv-x="708" 
d="M356 117q38 0 63.5 9.5t40.5 29.5t21.5 51.5t6.5 75.5v441h154v-463q0 -72 -20 -123.5t-58 -85t-92 -49t-122 -15.5q-150 0 -217.5 67.5t-67.5 209.5v459h155v-438q0 -42 6 -74t21.5 -53t42 -31.5t66.5 -10.5zM355 841l-75 -73l-102 7l107 142h140l102 -142l-100 -6z" />
    <glyph glyph-name="Udieresis" unicode="&#xdc;" horiz-adv-x="708" 
d="M356 117q38 0 63.5 9.5t40.5 29.5t21.5 51.5t6.5 75.5v441h154v-463q0 -72 -20 -123.5t-58 -85t-92 -49t-122 -15.5q-150 0 -217.5 67.5t-67.5 209.5v459h155v-438q0 -42 6 -74t21.5 -53t42 -31.5t66.5 -10.5zM324 858q0 -38 -24.5 -60.5t-63.5 -22.5q-41 0 -66 22.5
t-25 60.5t25 61t66 23q39 0 63.5 -23t24.5 -61zM559 858q0 -38 -24 -60.5t-64 -22.5q-41 0 -65.5 22.5t-24.5 60.5t24.5 61t65.5 23q40 0 64 -23t24 -61z" />
    <glyph glyph-name="Yacute" unicode="&#xdd;" horiz-adv-x="606" 
d="M388 0h-155v271l-251 453h169l159 -310h5l153 310h156l-236 -451v-273zM327 768l-107 8l91 140h162z" />
    <glyph glyph-name="Thorn" unicode="&#xde;" horiz-adv-x="621" 
d="M227 0h-153v724h153v-116h121q69 0 115.5 -19t74.5 -50t39.5 -71t11.5 -81q0 -259 -283 -259h-79v-128zM289 252q30 0 55.5 4.5t45 18t30.5 37.5t11 64q0 32 -10 53t-27 33t-41 17t-52 5h-74v-232h62z" />
    <glyph glyph-name="germandbls" unicode="&#xdf;" horiz-adv-x="656" 
d="M57 0v513q0 72 20 120.5t55.5 78.5t84 43t105.5 13q117 0 181.5 -50t64.5 -142q0 -38 -10.5 -66t-27 -48.5t-35.5 -33.5t-37 -20v-3q31 -7 60.5 -19.5t52 -35t36 -58t13.5 -87.5q0 -43 -12.5 -82t-39 -69t-67 -48t-96.5 -18q-48 0 -94 14.5t-79 57.5l57 92
q14 -17 39.5 -35t57.5 -18q37 0 59.5 26.5t22.5 89.5q0 36 -11 59t-29.5 36.5t-43 18.5t-52.5 5h-35v108h17q29 0 48.5 8.5t31.5 23.5t17.5 35t5.5 44q0 57 -27.5 82t-72.5 25q-24 0 -44.5 -6t-34.5 -21t-22 -41.5t-8 -68.5v-523h-151z" />
    <glyph glyph-name="agrave" unicode="&#xe0;" horiz-adv-x="558" 
d="M481 130q0 -21 5.5 -30.5t25.5 -9.5q11 0 31 6l4 -87q-15 -8 -43.5 -14t-52.5 -6q-45 0 -72 14.5t-35 51.5q-25 -32 -63 -49.5t-92 -17.5q-49 0 -79 14.5t-47 35.5t-23 45t-6 44q0 60 28 96t71.5 55t96.5 25t103 6v19q0 22 -2.5 39.5t-10 30t-22 19t-39.5 6.5
q-38 0 -54.5 -17t-24.5 -55l-128 25q6 37 21 66t41.5 49t65.5 30.5t92 10.5q105 0 157 -43t52 -141v-218zM334 221h-24q-27 -1 -50 -4.5t-39.5 -11t-25.5 -20.5t-9 -33q0 -23 12.5 -40t48.5 -17q27 0 51 11t36 23v92zM115 743h162l74 -162l-101 -9z" />
    <glyph glyph-name="aacute" unicode="&#xe1;" horiz-adv-x="558" 
d="M481 130q0 -21 5.5 -30.5t25.5 -9.5q11 0 31 6l4 -87q-15 -8 -43.5 -14t-52.5 -6q-45 0 -72 14.5t-35 51.5q-25 -32 -63 -49.5t-92 -17.5q-49 0 -79 14.5t-47 35.5t-23 45t-6 44q0 60 28 96t71.5 55t96.5 25t103 6v19q0 22 -2.5 39.5t-10 30t-22 19t-39.5 6.5
q-38 0 -54.5 -17t-24.5 -55l-128 25q6 37 21 66t41.5 49t65.5 30.5t92 10.5q105 0 157 -43t52 -141v-218zM334 221h-24q-27 -1 -50 -4.5t-39.5 -11t-25.5 -20.5t-9 -33q0 -23 12.5 -40t48.5 -17q27 0 51 11t36 23v92zM292 572l-101 9l75 162h161z" />
    <glyph glyph-name="acircumflex" unicode="&#xe2;" horiz-adv-x="558" 
d="M481 130q0 -21 5.5 -30.5t25.5 -9.5q11 0 31 6l4 -87q-15 -8 -43.5 -14t-52.5 -6q-45 0 -72 14.5t-35 51.5q-25 -32 -63 -49.5t-92 -17.5q-49 0 -79 14.5t-47 35.5t-23 45t-6 44q0 60 28 96t71.5 55t96.5 25t103 6v19q0 22 -2.5 39.5t-10 30t-22 19t-39.5 6.5
q-38 0 -54.5 -17t-24.5 -55l-128 25q6 37 21 66t41.5 49t65.5 30.5t92 10.5q105 0 157 -43t52 -141v-218zM334 221h-24q-27 -1 -50 -4.5t-39.5 -11t-25.5 -20.5t-9 -33q0 -23 12.5 -40t48.5 -17q27 0 51 11t36 23v92zM344 576l-73 94l-76 -95l-101 6l105 164h144l101 -164z
" />
    <glyph glyph-name="atilde" unicode="&#xe3;" horiz-adv-x="558" 
d="M481 130q0 -21 5.5 -30.5t25.5 -9.5q11 0 31 6l4 -87q-15 -8 -43.5 -14t-52.5 -6q-45 0 -72 14.5t-35 51.5q-25 -32 -63 -49.5t-92 -17.5q-49 0 -79 14.5t-47 35.5t-23 45t-6 44q0 60 28 96t71.5 55t96.5 25t103 6v19q0 22 -2.5 39.5t-10 30t-22 19t-39.5 6.5
q-38 0 -54.5 -17t-24.5 -55l-128 25q6 37 21 66t41.5 49t65.5 30.5t92 10.5q105 0 157 -43t52 -141v-218zM334 221h-24q-27 -1 -50 -4.5t-39.5 -11t-25.5 -20.5t-9 -33q0 -23 12.5 -40t48.5 -17q27 0 51 11t36 23v92zM193 732q24 0 44 -7t37.5 -15t33.5 -15t33 -7t23.5 9.5
t6.5 34.5l76 -4q7 -62 -15.5 -101.5t-75.5 -39.5q-26 0 -47 7t-39 15t-34 15t-32 7t-24 -9.5t-4 -37.5l-82 3q-8 66 20 105.5t79 39.5z" />
    <glyph glyph-name="adieresis" unicode="&#xe4;" horiz-adv-x="558" 
d="M481 130q0 -21 5.5 -30.5t25.5 -9.5q11 0 31 6l4 -87q-15 -8 -43.5 -14t-52.5 -6q-45 0 -72 14.5t-35 51.5q-25 -32 -63 -49.5t-92 -17.5q-49 0 -79 14.5t-47 35.5t-23 45t-6 44q0 60 28 96t71.5 55t96.5 25t103 6v19q0 22 -2.5 39.5t-10 30t-22 19t-39.5 6.5
q-38 0 -54.5 -17t-24.5 -55l-128 25q6 37 21 66t41.5 49t65.5 30.5t92 10.5q105 0 157 -43t52 -141v-218zM334 221h-24q-27 -1 -50 -4.5t-39.5 -11t-25.5 -20.5t-9 -33q0 -23 12.5 -40t48.5 -17q27 0 51 11t36 23v92zM241 679q0 -38 -24.5 -60.5t-63.5 -22.5q-41 0 -66 22.5
t-25 60.5t25 61t66 23q39 0 63.5 -23t24.5 -61zM476 679q0 -38 -24 -60.5t-64 -22.5q-41 0 -65.5 22.5t-24.5 60.5t24.5 61t65.5 23q40 0 64 -23t24 -61z" />
    <glyph glyph-name="aring" unicode="&#xe5;" horiz-adv-x="558" 
d="M481 130q0 -21 5.5 -30.5t25.5 -9.5q11 0 31 6l4 -87q-15 -8 -43.5 -14t-52.5 -6q-45 0 -72 14.5t-35 51.5q-25 -32 -63 -49.5t-92 -17.5q-49 0 -79 14.5t-47 35.5t-23 45t-6 44q0 60 28 96t71.5 55t96.5 25t103 6v19q0 22 -2.5 39.5t-10 30t-22 19t-39.5 6.5
q-38 0 -54.5 -17t-24.5 -55l-128 25q6 37 21 66t41.5 49t65.5 30.5t92 10.5q105 0 157 -43t52 -141v-218zM334 221h-24q-27 -1 -50 -4.5t-39.5 -11t-25.5 -20.5t-9 -33q0 -23 12.5 -40t48.5 -17q27 0 51 11t36 23v92zM383 675q0 -51 -31 -78t-82 -27q-50 0 -81 26t-31 75
q0 54 33.5 81.5t78.5 27.5q47 0 80 -26.5t33 -78.5zM270 630q20 0 32 11t12 34q0 21 -12 31.5t-32 10.5q-19 0 -32 -11t-13 -32q0 -23 12.5 -33.5t32.5 -10.5z" />
    <glyph glyph-name="ae" unicode="&#xe6;" horiz-adv-x="838" 
d="M580 -12q-71 0 -118 21t-76 57q-43 -42 -90 -60t-101 -18q-51 0 -82.5 14.5t-49 35.5t-23.5 45t-6 44q0 61 27 96.5t69.5 54.5t96 24t106.5 5v21q0 22 -2.5 39.5t-10 30t-22 19t-39.5 6.5q-38 0 -54.5 -17t-24.5 -55l-128 25q6 37 21 66t41.5 49t65.5 30.5t92 10.5
t89 -16.5t59 -54.5q26 33 71 52t98 19q56 0 96.5 -17.5t67 -49t39 -76t12.5 -98.5q0 -13 -0.5 -31t-2.5 -32h-317q1 -68 28 -95.5t77 -27.5q41 0 59 20.5t26 53.5l127 -31q-14 -73 -70.5 -116.5t-150.5 -43.5zM247 95q25 0 53.5 11.5t48.5 28.5q-8 20 -12 41.5t-6 44.5h-21
q-27 -1 -50 -4.5t-39.5 -11t-25.5 -20.5t-9 -33q0 -23 12.5 -40t48.5 -17zM648 319q2 58 -18.5 81t-57.5 23q-16 0 -31.5 -5.5t-27.5 -18t-19.5 -32.5t-7.5 -48h162z" />
    <glyph glyph-name="ccedilla" unicode="&#xe7;" horiz-adv-x="544" 
d="M196 -162q12 -3 23.5 -5t24.5 -2q23 0 36.5 8.5t13.5 28.5q0 23 -17 29.5t-47 7.5l11 86q-54 6 -93 28t-64.5 56t-37.5 79t-12 98q0 135 69 207.5t197 72.5q94 0 151.5 -50.5t65.5 -146.5l-135 -20q-5 49 -22.5 75t-62.5 26q-21 0 -40.5 -6t-33.5 -22.5t-22.5 -45.5
t-8.5 -74t7 -76t20.5 -50t32.5 -27.5t43 -8.5q44 0 67 22.5t30 72.5l127 -24q-13 -91 -69 -136t-137 -52l-4 -34q16 -3 31.5 -9t27.5 -17t19 -27t7 -39q0 -55 -37.5 -82t-93.5 -27q-46 0 -82 14z" />
    <glyph glyph-name="egrave" unicode="&#xe8;" horiz-adv-x="547" 
d="M289 -12q-72 0 -121 22.5t-79 60t-42.5 86.5t-12.5 102q0 70 20 121.5t55 85.5t81 50t99 16q59 0 101.5 -17.5t69.5 -49t40 -76t13 -98.5q0 -13 -0.5 -33.5t-2.5 -34.5h-317q2 -65 28.5 -91.5t76.5 -26.5q41 0 59 20.5t26 53.5l127 -31q-14 -73 -70.5 -116.5
t-150.5 -43.5zM357 319q0 57 -19.5 80.5t-56.5 23.5q-16 0 -31.5 -5.5t-27.5 -18t-19.5 -32.5t-7.5 -48h162zM130 743h162l74 -162l-101 -9z" />
    <glyph glyph-name="eacute" unicode="&#xe9;" horiz-adv-x="547" 
d="M289 -12q-72 0 -121 22.5t-79 60t-42.5 86.5t-12.5 102q0 70 20 121.5t55 85.5t81 50t99 16q59 0 101.5 -17.5t69.5 -49t40 -76t13 -98.5q0 -13 -0.5 -33.5t-2.5 -34.5h-317q2 -65 28.5 -91.5t76.5 -26.5q41 0 59 20.5t26 53.5l127 -31q-14 -73 -70.5 -116.5
t-150.5 -43.5zM357 319q0 57 -19.5 80.5t-56.5 23.5q-16 0 -31.5 -5.5t-27.5 -18t-19.5 -32.5t-7.5 -48h162zM307 572l-101 9l75 162h161z" />
    <glyph glyph-name="ecircumflex" unicode="&#xea;" horiz-adv-x="547" 
d="M289 -12q-72 0 -121 22.5t-79 60t-42.5 86.5t-12.5 102q0 70 20 121.5t55 85.5t81 50t99 16q59 0 101.5 -17.5t69.5 -49t40 -76t13 -98.5q0 -13 -0.5 -33.5t-2.5 -34.5h-317q2 -65 28.5 -91.5t76.5 -26.5q41 0 59 20.5t26 53.5l127 -31q-14 -73 -70.5 -116.5
t-150.5 -43.5zM357 319q0 57 -19.5 80.5t-56.5 23.5q-16 0 -31.5 -5.5t-27.5 -18t-19.5 -32.5t-7.5 -48h162zM359 576l-73 94l-76 -95l-101 6l105 164h144l101 -164z" />
    <glyph glyph-name="edieresis" unicode="&#xeb;" horiz-adv-x="547" 
d="M289 -12q-72 0 -121 22.5t-79 60t-42.5 86.5t-12.5 102q0 70 20 121.5t55 85.5t81 50t99 16q59 0 101.5 -17.5t69.5 -49t40 -76t13 -98.5q0 -13 -0.5 -33.5t-2.5 -34.5h-317q2 -65 28.5 -91.5t76.5 -26.5q41 0 59 20.5t26 53.5l127 -31q-14 -73 -70.5 -116.5
t-150.5 -43.5zM357 319q0 57 -19.5 80.5t-56.5 23.5q-16 0 -31.5 -5.5t-27.5 -18t-19.5 -32.5t-7.5 -48h162zM256 679q0 -38 -24.5 -60.5t-63.5 -22.5q-41 0 -66 22.5t-25 60.5t25 61t66 23q39 0 63.5 -23t24.5 -61zM491 679q0 -38 -24 -60.5t-64 -22.5q-41 0 -65.5 22.5
t-24.5 60.5t24.5 61t65.5 23q40 0 64 -23t24 -61z" />
    <glyph glyph-name="igrave" unicode="&#xec;" horiz-adv-x="268" 
d="M211 0h-151v521h151v-521zM-18 743h162l74 -162l-101 -9z" />
    <glyph glyph-name="iacute" unicode="&#xed;" horiz-adv-x="268" 
d="M211 0h-151v521h151v-521zM159 572l-101 9l75 162h161z" />
    <glyph glyph-name="icircumflex" unicode="&#xee;" horiz-adv-x="268" 
d="M211 0h-151v521h151v-521zM211 576l-73 94l-76 -95l-101 6l105 164h144l101 -164z" />
    <glyph glyph-name="idieresis" unicode="&#xef;" horiz-adv-x="268" 
d="M211 0h-151v521h151v-521zM108 679q0 -38 -24.5 -60.5t-63.5 -22.5q-41 0 -66 22.5t-25 60.5t25 61t66 23q39 0 63.5 -23t24.5 -61zM343 679q0 -38 -24 -60.5t-64 -22.5q-41 0 -65.5 22.5t-24.5 60.5t24.5 61t65.5 23q40 0 64 -23t24 -61z" />
    <glyph glyph-name="eth" unicode="&#xf0;" horiz-adv-x="588" 
d="M31 249q0 53 14 99.5t42 81.5t70.5 55.5t99.5 20.5q31 0 60 -6.5t60 -20.5l4 5q-15 40 -44.5 70.5t-64 52t-70 34t-64.5 17.5l54 122q50 -9 90.5 -24.5t75.5 -37.5l108 70l66 -94l-83 -53q57 -67 80.5 -150.5t23.5 -171.5q0 -73 -14.5 -134t-47 -104.5t-84 -68
t-124.5 -24.5q-65 0 -112.5 19t-78.5 53.5t-46 82.5t-15 106zM189 252q0 -81 25 -120t76 -39q58 0 84 53t26 159q0 16 -1.5 32t-3.5 33q-19 14 -45 23.5t-55 9.5q-24 0 -44 -7.5t-33.5 -25t-21 -46.5t-7.5 -72z" />
    <glyph glyph-name="ntilde" unicode="&#xf1;" horiz-adv-x="583" 
d="M530 0h-151v330q0 42 -17 61t-52 19q-31 0 -59 -13.5t-43 -27.5v-369h-151v521h134l8 -52q29 26 70.5 44.5t95.5 18.5q87 0 126 -43t39 -133v-356zM212 732q24 0 44 -7t37.5 -15t33.5 -15t33 -7t23.5 9.5t6.5 34.5l76 -4q7 -62 -15.5 -101.5t-75.5 -39.5q-26 0 -47 7
t-39 15t-34 15t-32 7t-24 -9.5t-4 -37.5l-82 3q-8 66 20 105.5t79 39.5z" />
    <glyph glyph-name="ograve" unicode="&#xf2;" horiz-adv-x="587" 
d="M288 -12q-71 0 -119.5 20t-78.5 56t-43 85.5t-13 108.5q0 63 16.5 113.5t49.5 86t83.5 55t118.5 19.5t115.5 -19.5t77.5 -54.5t44 -83t14 -106q0 -64 -15 -116t-47.5 -88.5t-82.5 -56.5t-120 -20zM295 100q25 0 43.5 8.5t31.5 28t19.5 50.5t6.5 77q0 85 -24 119.5
t-74 34.5q-51 0 -78.5 -35.5t-27.5 -120.5q0 -87 23.5 -124.5t79.5 -37.5zM145 743h162l74 -162l-101 -9z" />
    <glyph glyph-name="oacute" unicode="&#xf3;" horiz-adv-x="587" 
d="M288 -12q-71 0 -119.5 20t-78.5 56t-43 85.5t-13 108.5q0 63 16.5 113.5t49.5 86t83.5 55t118.5 19.5t115.5 -19.5t77.5 -54.5t44 -83t14 -106q0 -64 -15 -116t-47.5 -88.5t-82.5 -56.5t-120 -20zM295 100q25 0 43.5 8.5t31.5 28t19.5 50.5t6.5 77q0 85 -24 119.5
t-74 34.5q-51 0 -78.5 -35.5t-27.5 -120.5q0 -87 23.5 -124.5t79.5 -37.5zM322 572l-101 9l75 162h161z" />
    <glyph glyph-name="ocircumflex" unicode="&#xf4;" horiz-adv-x="587" 
d="M288 -12q-71 0 -119.5 20t-78.5 56t-43 85.5t-13 108.5q0 63 16.5 113.5t49.5 86t83.5 55t118.5 19.5t115.5 -19.5t77.5 -54.5t44 -83t14 -106q0 -64 -15 -116t-47.5 -88.5t-82.5 -56.5t-120 -20zM295 100q25 0 43.5 8.5t31.5 28t19.5 50.5t6.5 77q0 85 -24 119.5
t-74 34.5q-51 0 -78.5 -35.5t-27.5 -120.5q0 -87 23.5 -124.5t79.5 -37.5zM374 576l-73 94l-76 -95l-101 6l105 164h144l101 -164z" />
    <glyph glyph-name="otilde" unicode="&#xf5;" horiz-adv-x="587" 
d="M288 -12q-71 0 -119.5 20t-78.5 56t-43 85.5t-13 108.5q0 63 16.5 113.5t49.5 86t83.5 55t118.5 19.5t115.5 -19.5t77.5 -54.5t44 -83t14 -106q0 -64 -15 -116t-47.5 -88.5t-82.5 -56.5t-120 -20zM295 100q25 0 43.5 8.5t31.5 28t19.5 50.5t6.5 77q0 85 -24 119.5
t-74 34.5q-51 0 -78.5 -35.5t-27.5 -120.5q0 -87 23.5 -124.5t79.5 -37.5zM223 732q24 0 44 -7t37.5 -15t33.5 -15t33 -7t23.5 9.5t6.5 34.5l76 -4q7 -62 -15.5 -101.5t-75.5 -39.5q-26 0 -47 7t-39 15t-34 15t-32 7t-24 -9.5t-4 -37.5l-82 3q-8 66 20 105.5t79 39.5z" />
    <glyph glyph-name="odieresis" unicode="&#xf6;" horiz-adv-x="587" 
d="M288 -12q-71 0 -119.5 20t-78.5 56t-43 85.5t-13 108.5q0 63 16.5 113.5t49.5 86t83.5 55t118.5 19.5t115.5 -19.5t77.5 -54.5t44 -83t14 -106q0 -64 -15 -116t-47.5 -88.5t-82.5 -56.5t-120 -20zM295 100q25 0 43.5 8.5t31.5 28t19.5 50.5t6.5 77q0 85 -24 119.5
t-74 34.5q-51 0 -78.5 -35.5t-27.5 -120.5q0 -87 23.5 -124.5t79.5 -37.5zM271 679q0 -38 -24.5 -60.5t-63.5 -22.5q-41 0 -66 22.5t-25 60.5t25 61t66 23q39 0 63.5 -23t24.5 -61zM506 679q0 -38 -24 -60.5t-64 -22.5q-41 0 -65.5 22.5t-24.5 60.5t24.5 61t65.5 23
q40 0 64 -23t24 -61z" />
    <glyph glyph-name="divide" unicode="&#xf7;" 
d="M361 155q0 -35 -19.5 -54.5t-59.5 -19.5t-59.5 19.5t-19.5 54.5q0 32 19.5 53t59.5 21t59.5 -21t19.5 -53zM91 261v120h387v-120h-387zM361 487q0 -35 -19.5 -54t-59.5 -19q-79 0 -79 73q0 32 19.5 53t59.5 21t59.5 -21t19.5 -53z" />
    <glyph glyph-name="oslash" unicode="&#xf8;" horiz-adv-x="587" 
d="M288 -12q-18 0 -34 1.5t-31 3.5l-28 -65h-106l43 99q-54 35 -76 94.5t-22 136.5q0 63 16.5 113.5t49.5 86t83.5 55t118.5 19.5q14 0 27 -1t25 -3l26 58h105l-39 -88q57 -32 82 -91.5t25 -137.5q0 -64 -15 -116t-47.5 -88.5t-82.5 -56.5t-120 -20zM295 100q25 0 43.5 8.5
t31.5 28t19.5 50.5t6.5 77q0 59 -12 94l-113 -256q6 -1 11.5 -1.5t12.5 -0.5zM192 262q0 -52 7 -84l106 240h-7q-51 0 -78.5 -35.5t-27.5 -120.5z" />
    <glyph glyph-name="ugrave" unicode="&#xf9;" horiz-adv-x="578" 
d="M55 521h151v-329q0 -42 15 -61.5t51 -19.5q29 0 56.5 13.5t42.5 27.5v369h151v-521h-130l-11 56q-28 -32 -70 -49.5t-96 -17.5q-160 0 -160 173v359zM133 743h162l74 -162l-101 -9z" />
    <glyph glyph-name="uacute" unicode="&#xfa;" horiz-adv-x="578" 
d="M55 521h151v-329q0 -42 15 -61.5t51 -19.5q29 0 56.5 13.5t42.5 27.5v369h151v-521h-130l-11 56q-28 -32 -70 -49.5t-96 -17.5q-160 0 -160 173v359zM310 572l-101 9l75 162h161z" />
    <glyph glyph-name="ucircumflex" unicode="&#xfb;" horiz-adv-x="578" 
d="M55 521h151v-329q0 -42 15 -61.5t51 -19.5q29 0 56.5 13.5t42.5 27.5v369h151v-521h-130l-11 56q-28 -32 -70 -49.5t-96 -17.5q-160 0 -160 173v359zM362 576l-73 94l-76 -95l-101 6l105 164h144l101 -164z" />
    <glyph glyph-name="udieresis" unicode="&#xfc;" horiz-adv-x="578" 
d="M55 521h151v-329q0 -42 15 -61.5t51 -19.5q29 0 56.5 13.5t42.5 27.5v369h151v-521h-130l-11 56q-28 -32 -70 -49.5t-96 -17.5q-160 0 -160 173v359zM259 679q0 -38 -24.5 -60.5t-63.5 -22.5q-41 0 -66 22.5t-25 60.5t25 61t66 23q39 0 63.5 -23t24.5 -61zM494 679
q0 -38 -24 -60.5t-64 -22.5q-41 0 -65.5 22.5t-24.5 60.5t24.5 61t65.5 23q40 0 64 -23t24 -61z" />
    <glyph glyph-name="yacute" unicode="&#xfd;" horiz-adv-x="526" 
d="M-4 521h163l109 -363h3l105 363h155q-52 -146 -105.5 -293.5t-101.5 -278.5q-17 -46 -34.5 -78.5t-40 -53.5t-52 -30.5t-69.5 -9.5q-31 0 -64 7t-50 15l11 109q21 -7 41.5 -11.5t37.5 -4.5q26 0 44 13t30 43l16 41zM285 572l-101 9l75 162h161z" />
    <glyph glyph-name="thorn" unicode="&#xfe;" horiz-adv-x="592" 
d="M59 755h148v-281q32 31 70.5 44.5t84.5 13.5q40 0 75.5 -13.5t62 -44.5t41.5 -80.5t15 -121.5q0 -78 -17 -132t-46 -87.5t-67.5 -49t-81.5 -15.5q-48 0 -80.5 13.5t-57.5 36.5v-250h-147v967zM209 144q11 -11 37 -23t54 -12q53 0 75.5 41.5t22.5 117.5q0 79 -23 111.5
t-69 32.5q-26 0 -53 -13t-44 -27v-228z" />
    <glyph glyph-name="ydieresis" unicode="&#xff;" horiz-adv-x="526" 
d="M-4 521h163l109 -363h3l105 363h155q-52 -146 -105.5 -293.5t-101.5 -278.5q-17 -46 -34.5 -78.5t-40 -53.5t-52 -30.5t-69.5 -9.5q-31 0 -64 7t-50 15l11 109q21 -7 41.5 -11.5t37.5 -4.5q26 0 44 13t30 43l16 41zM234 679q0 -38 -24.5 -60.5t-63.5 -22.5
q-41 0 -66 22.5t-25 60.5t25 61t66 23q39 0 63.5 -23t24.5 -61zM469 679q0 -38 -24 -60.5t-64 -22.5q-41 0 -65.5 22.5t-24.5 60.5t24.5 61t65.5 23q40 0 64 -23t24 -61z" />
    <glyph glyph-name="Amacron" unicode="&#x100;" horiz-adv-x="709" 
d="M443 724l256 -724h-169l-60 176h-241l-56 -176h-159l237 724h192zM348 579h-4l-89 -280h183zM187 784v103h317v-103h-317z" />
    <glyph glyph-name="amacron" unicode="&#x101;" horiz-adv-x="558" 
d="M481 130q0 -21 5.5 -30.5t25.5 -9.5q11 0 31 6l4 -87q-15 -8 -43.5 -14t-52.5 -6q-45 0 -72 14.5t-35 51.5q-25 -32 -63 -49.5t-92 -17.5q-49 0 -79 14.5t-47 35.5t-23 45t-6 44q0 60 28 96t71.5 55t96.5 25t103 6v19q0 22 -2.5 39.5t-10 30t-22 19t-39.5 6.5
q-38 0 -54.5 -17t-24.5 -55l-128 25q6 37 21 66t41.5 49t65.5 30.5t92 10.5q105 0 157 -43t52 -141v-218zM334 221h-24q-27 -1 -50 -4.5t-39.5 -11t-25.5 -20.5t-9 -33q0 -23 12.5 -40t48.5 -17q27 0 51 11t36 23v92zM114 601v102h311v-102h-311z" />
    <glyph glyph-name="Abreve" unicode="&#x102;" horiz-adv-x="709" 
d="M443 724l256 -724h-169l-60 176h-241l-56 -176h-159l237 724h192zM348 579h-4l-89 -280h183zM351 861q32 0 50 14.5t26 52.5l96 -6q-8 -81 -55.5 -117t-121.5 -36q-72 0 -116.5 35.5t-49.5 115.5l100 10q6 -38 22.5 -53.5t48.5 -15.5z" />
    <glyph glyph-name="abreve" unicode="&#x103;" horiz-adv-x="558" 
d="M481 130q0 -21 5.5 -30.5t25.5 -9.5q11 0 31 6l4 -87q-15 -8 -43.5 -14t-52.5 -6q-45 0 -72 14.5t-35 51.5q-25 -32 -63 -49.5t-92 -17.5q-49 0 -79 14.5t-47 35.5t-23 45t-6 44q0 60 28 96t71.5 55t96.5 25t103 6v19q0 22 -2.5 39.5t-10 30t-22 19t-39.5 6.5
q-38 0 -54.5 -17t-24.5 -55l-128 25q6 37 21 66t41.5 49t65.5 30.5t92 10.5q105 0 157 -43t52 -141v-218zM334 221h-24q-27 -1 -50 -4.5t-39.5 -11t-25.5 -20.5t-9 -33q0 -23 12.5 -40t48.5 -17q27 0 51 11t36 23v92zM446 730q-6 -85 -54 -123t-124 -38q-74 0 -119 37.5
t-48 120.5l100 11q5 -42 22 -59.5t50 -17.5q34 0 52.5 16t24.5 60z" />
    <glyph glyph-name="Aogonek" unicode="&#x104;" horiz-adv-x="709" 
d="M730 -139q-17 -49 -54.5 -75t-85.5 -26q-57 0 -86.5 25.5t-29.5 72.5q0 45 27.5 79t73.5 63h-45l-60 176h-241l-56 -176h-159l237 724h192l256 -724q-57 -26 -85 -57t-28 -60q0 -33 31 -33q14 0 26 9.5t22 31.5zM348 579h-4l-89 -280h183z" />
    <glyph glyph-name="aogonek" unicode="&#x105;" horiz-adv-x="558" 
d="M571 -139q-17 -49 -54.5 -75t-85.5 -26q-57 0 -86.5 25.5t-29.5 72.5q0 42 25 76t60 61q-46 12 -56 60q-25 -32 -63 -49.5t-92 -17.5q-49 0 -79 14.5t-47 35.5t-23 45t-6 44q0 60 28 96t71.5 55t96.5 25t103 6v19q0 22 -2.5 39.5t-10 30t-22 19t-39.5 6.5
q-38 0 -54.5 -17t-24.5 -55l-128 25q6 37 21 66t41.5 49t65.5 30.5t92 10.5q105 0 157 -43t52 -141v-218q0 -21 5.5 -30.5t25.5 -9.5q11 0 31 6l4 -87q-24 -6 -46 -21t-38.5 -33t-26 -37.5t-9.5 -34.5q0 -33 31 -33q14 0 26 9.5t22 31.5zM334 221h-24q-27 -1 -50 -4.5
t-39.5 -11t-25.5 -20.5t-9 -33q0 -23 12.5 -40t48.5 -17q27 0 51 11t36 23v92z" />
    <glyph glyph-name="Cacute" unicode="&#x106;" horiz-adv-x="695" 
d="M372 -12q-90 0 -153.5 25.5t-103.5 73.5t-58.5 115.5t-18.5 151.5q0 86 22.5 156.5t67 121t109.5 78t150 27.5q61 0 112 -15t88.5 -46.5t59.5 -81t25 -117.5l-141 -12q-7 78 -41.5 111.5t-104.5 33.5q-89 0 -138.5 -59.5t-49.5 -188.5q0 -67 11.5 -114t34 -76.5t55.5 -43
t76 -13.5q39 0 66 9.5t45 27t29 41t17 52.5l139 -24q-9 -65 -38 -109.5t-70.5 -72t-91 -39.5t-98.5 -12zM405 768l-107 8l91 140h162z" />
    <glyph glyph-name="cacute" unicode="&#x107;" horiz-adv-x="544" 
d="M285 -12q-65 0 -112.5 19.5t-78.5 54.5t-45.5 83.5t-14.5 106.5q0 135 69 207.5t197 72.5q94 0 151.5 -50.5t65.5 -146.5l-135 -20q-5 49 -22.5 75t-62.5 26q-21 0 -40.5 -6t-33.5 -22.5t-22.5 -45.5t-8.5 -74t7 -76t20.5 -50t32.5 -27.5t43 -8.5q44 0 67 22.5t30 72.5
l127 -24q-7 -49 -27 -84.5t-51 -59t-70.5 -34.5t-85.5 -11zM321 572l-101 9l75 162h161z" />
    <glyph glyph-name="Ccircumflex" unicode="&#x108;" horiz-adv-x="695" 
d="M372 -12q-90 0 -153.5 25.5t-103.5 73.5t-58.5 115.5t-18.5 151.5q0 86 22.5 156.5t67 121t109.5 78t150 27.5q61 0 112 -15t88.5 -46.5t59.5 -81t25 -117.5l-141 -12q-7 78 -41.5 111.5t-104.5 33.5q-89 0 -138.5 -59.5t-49.5 -188.5q0 -67 11.5 -114t34 -76.5t55.5 -43
t76 -13.5q39 0 66 9.5t45 27t29 41t17 52.5l139 -24q-9 -65 -38 -109.5t-70.5 -72t-91 -39.5t-98.5 -12zM388 841l-75 -73l-102 7l107 142h140l102 -142l-100 -6z" />
    <glyph glyph-name="ccircumflex" unicode="&#x109;" horiz-adv-x="544" 
d="M285 -12q-65 0 -112.5 19.5t-78.5 54.5t-45.5 83.5t-14.5 106.5q0 135 69 207.5t197 72.5q94 0 151.5 -50.5t65.5 -146.5l-135 -20q-5 49 -22.5 75t-62.5 26q-21 0 -40.5 -6t-33.5 -22.5t-22.5 -45.5t-8.5 -74t7 -76t20.5 -50t32.5 -27.5t43 -8.5q44 0 67 22.5t30 72.5
l127 -24q-7 -49 -27 -84.5t-51 -59t-70.5 -34.5t-85.5 -11zM373 576l-73 94l-76 -95l-101 6l105 164h144l101 -164z" />
    <glyph glyph-name="Cdotaccent" unicode="&#x10a;" horiz-adv-x="695" 
d="M372 -12q-90 0 -153.5 25.5t-103.5 73.5t-58.5 115.5t-18.5 151.5q0 86 22.5 156.5t67 121t109.5 78t150 27.5q61 0 112 -15t88.5 -46.5t59.5 -81t25 -117.5l-141 -12q-7 78 -41.5 111.5t-104.5 33.5q-89 0 -138.5 -59.5t-49.5 -188.5q0 -67 11.5 -114t34 -76.5t55.5 -43
t76 -13.5q39 0 66 9.5t45 27t29 41t17 52.5l139 -24q-9 -65 -38 -109.5t-70.5 -72t-91 -39.5t-98.5 -12zM476 868q0 -45 -23.5 -69t-67.5 -24q-43 0 -66.5 24t-23.5 69q0 44 23.5 67t66.5 23q44 0 67.5 -23t23.5 -67z" />
    <glyph glyph-name="cdotaccent" unicode="&#x10b;" horiz-adv-x="544" 
d="M285 -12q-65 0 -112.5 19.5t-78.5 54.5t-45.5 83.5t-14.5 106.5q0 135 69 207.5t197 72.5q94 0 151.5 -50.5t65.5 -146.5l-135 -20q-5 49 -22.5 75t-62.5 26q-21 0 -40.5 -6t-33.5 -22.5t-22.5 -45.5t-8.5 -74t7 -76t20.5 -50t32.5 -27.5t43 -8.5q44 0 67 22.5t30 72.5
l127 -24q-7 -49 -27 -84.5t-51 -59t-70.5 -34.5t-85.5 -11zM390 681q0 -44 -23.5 -68t-67.5 -24q-43 0 -66.5 24t-23.5 68t23.5 67.5t66.5 23.5q44 0 67.5 -23.5t23.5 -67.5z" />
    <glyph glyph-name="Ccaron" unicode="&#x10c;" horiz-adv-x="695" 
d="M372 -12q-90 0 -153.5 25.5t-103.5 73.5t-58.5 115.5t-18.5 151.5q0 86 22.5 156.5t67 121t109.5 78t150 27.5q61 0 112 -15t88.5 -46.5t59.5 -81t25 -117.5l-141 -12q-7 78 -41.5 111.5t-104.5 33.5q-89 0 -138.5 -59.5t-49.5 -188.5q0 -67 11.5 -114t34 -76.5t55.5 -43
t76 -13.5q39 0 66 9.5t45 27t29 41t17 52.5l139 -24q-9 -65 -38 -109.5t-70.5 -72t-91 -39.5t-98.5 -12zM385 846l75 73l102 -7l-107 -142h-140l-102 142l100 6z" />
    <glyph glyph-name="ccaron" unicode="&#x10d;" horiz-adv-x="544" 
d="M285 -12q-65 0 -112.5 19.5t-78.5 54.5t-45.5 83.5t-14.5 106.5q0 135 69 207.5t197 72.5q94 0 151.5 -50.5t65.5 -146.5l-135 -20q-5 49 -22.5 75t-62.5 26q-21 0 -40.5 -6t-33.5 -22.5t-22.5 -45.5t-8.5 -74t7 -76t20.5 -50t32.5 -27.5t43 -8.5q44 0 67 22.5t30 72.5
l127 -24q-7 -49 -27 -84.5t-51 -59t-70.5 -34.5t-85.5 -11zM227 741l73 -93l76 94l99 -6l-105 -164h-144l-101 164z" />
    <glyph glyph-name="Dcaron" unicode="&#x10e;" horiz-adv-x="724" 
d="M74 0v724h254q94 0 162 -24.5t111.5 -70t64.5 -110.5t21 -146q0 -83 -22.5 -152t-68.5 -118t-117 -76t-168 -27h-237zM304 124q63 0 106 16.5t69.5 47.5t38 76t11.5 101q0 67 -13 112.5t-40 72.5t-67 38.5t-94 11.5h-87v-476h76zM330 846l75 73l102 -7l-107 -142h-140
l-102 142l100 6z" />
    <glyph glyph-name="dcaron" unicode="&#x10f;" horiz-adv-x="719" 
d="M534 0h-126l-9 51l-3 1q-27 -30 -64.5 -47t-89.5 -17q-46 0 -83.5 14.5t-64.5 46t-42 81.5t-15 120q0 78 19 132t50.5 87.5t70.5 48t80 14.5q44 0 75.5 -10.5t56.5 -33.5v267h145v-755zM384 383q-15 11 -36.5 20t-47.5 9q-29 0 -48.5 -12t-32.5 -33t-18.5 -49.5
t-5.5 -62.5q0 -70 23 -109t77 -39q24 0 47.5 10t41.5 27v239zM608 755h138l-66 -202l-105 9z" />
    <glyph glyph-name="Dcroat" unicode="&#x110;" horiz-adv-x="724" 
d="M74 0v305h-67v129h67v290h254q94 0 162 -24.5t111.5 -70t64.5 -110.5t21 -146q0 -83 -22.5 -152t-68.5 -118t-117 -76t-168 -27h-237zM304 124q63 0 106 16.5t69.5 47.5t38 76t11.5 101q0 67 -13 112.5t-40 72.5t-67 38.5t-94 11.5h-87v-166h171v-129h-171v-181h76z" />
    <glyph glyph-name="dcroat" unicode="&#x111;" horiz-adv-x="591" 
d="M214 677h175v78h145v-78h64v-101h-64v-576h-126l-9 51l-3 1q-27 -30 -64.5 -47t-89.5 -17q-46 0 -83.5 14.5t-64.5 46t-42 80.5t-15 118q0 77 19 130t50.5 85.5t70.5 47t80 14.5q44 0 75 -10.5t57 -33.5v96h-175v101zM384 375q-15 11 -36.5 20t-47.5 9q-29 0 -48.5 -11.5
t-32.5 -32t-18.5 -48t-5.5 -60.5q0 -68 23 -106.5t77 -38.5q24 0 47.5 10t41.5 27v231z" />
    <glyph glyph-name="Emacron" unicode="&#x112;" horiz-adv-x="583" 
d="M228 130h323v-130h-477v724h459v-129h-305v-170h287v-126h-287v-169zM148 784v103h317v-103h-317z" />
    <glyph glyph-name="emacron" unicode="&#x113;" horiz-adv-x="547" 
d="M289 -12q-72 0 -121 22.5t-79 60t-42.5 86.5t-12.5 102q0 70 20 121.5t55 85.5t81 50t99 16q59 0 101.5 -17.5t69.5 -49t40 -76t13 -98.5q0 -13 -0.5 -33.5t-2.5 -34.5h-317q2 -65 28.5 -91.5t76.5 -26.5q41 0 59 20.5t26 53.5l127 -31q-14 -73 -70.5 -116.5
t-150.5 -43.5zM357 319q0 57 -19.5 80.5t-56.5 23.5q-16 0 -31.5 -5.5t-27.5 -18t-19.5 -32.5t-7.5 -48h162zM129 601v102h311v-102h-311z" />
    <glyph glyph-name="Ebreve" unicode="&#x114;" horiz-adv-x="583" 
d="M228 130h323v-130h-477v724h459v-129h-305v-170h287v-126h-287v-169zM312 861q32 0 50 14.5t26 52.5l96 -6q-8 -81 -55.5 -117t-121.5 -36q-72 0 -116.5 35.5t-49.5 115.5l100 10q6 -38 22.5 -53.5t48.5 -15.5z" />
    <glyph glyph-name="ebreve" unicode="&#x115;" horiz-adv-x="547" 
d="M289 -12q-72 0 -121 22.5t-79 60t-42.5 86.5t-12.5 102q0 70 20 121.5t55 85.5t81 50t99 16q59 0 101.5 -17.5t69.5 -49t40 -76t13 -98.5q0 -13 -0.5 -33.5t-2.5 -34.5h-317q2 -65 28.5 -91.5t76.5 -26.5q41 0 59 20.5t26 53.5l127 -31q-14 -73 -70.5 -116.5
t-150.5 -43.5zM357 319q0 57 -19.5 80.5t-56.5 23.5q-16 0 -31.5 -5.5t-27.5 -18t-19.5 -32.5t-7.5 -48h162zM461 730q-6 -85 -54 -123t-124 -38q-74 0 -119 37.5t-48 120.5l100 11q5 -42 22 -59.5t50 -17.5q34 0 52.5 16t24.5 60z" />
    <glyph glyph-name="Edotaccent" unicode="&#x116;" horiz-adv-x="583" 
d="M228 130h323v-130h-477v724h459v-129h-305v-170h287v-126h-287v-169zM397 868q0 -45 -23.5 -69t-67.5 -24q-43 0 -66.5 24t-23.5 69q0 44 23.5 67t66.5 23q44 0 67.5 -23t23.5 -67z" />
    <glyph glyph-name="edotaccent" unicode="&#x117;" horiz-adv-x="547" 
d="M289 -12q-72 0 -121 22.5t-79 60t-42.5 86.5t-12.5 102q0 70 20 121.5t55 85.5t81 50t99 16q59 0 101.5 -17.5t69.5 -49t40 -76t13 -98.5q0 -13 -0.5 -33.5t-2.5 -34.5h-317q2 -65 28.5 -91.5t76.5 -26.5q41 0 59 20.5t26 53.5l127 -31q-14 -73 -70.5 -116.5
t-150.5 -43.5zM357 319q0 57 -19.5 80.5t-56.5 23.5q-16 0 -31.5 -5.5t-27.5 -18t-19.5 -32.5t-7.5 -48h162zM376 681q0 -44 -23.5 -68t-67.5 -24q-43 0 -66.5 24t-23.5 68t23.5 67.5t66.5 23.5q44 0 67.5 -23.5t23.5 -67.5z" />
    <glyph glyph-name="Eogonek" unicode="&#x118;" horiz-adv-x="583" 
d="M567 -139q-17 -49 -54.5 -75t-85.5 -26q-57 0 -86.5 25.5t-29.5 72.5q0 45 27 80t65 62h-329v724h459v-129h-305v-170h287v-126h-287v-169h323v-130h-50q-35 -34 -56.5 -61t-21.5 -56q0 -33 31 -33q14 0 26 9.5t22 31.5z" />
    <glyph glyph-name="eogonek" unicode="&#x119;" horiz-adv-x="547" 
d="M462 -139q-17 -49 -54.5 -75t-85.5 -26q-57 0 -86.5 25.5t-29.5 72.5q0 40 22.5 72t54.5 58q-71 1 -118.5 24t-76.5 60.5t-41.5 85.5t-12.5 101q0 70 20 121.5t55 85.5t81 50t99 16q59 0 101.5 -17.5t69.5 -49t40 -76t13 -98.5q0 -13 -0.5 -33.5t-2.5 -34.5h-317
q2 -65 28.5 -91.5t76.5 -26.5q41 0 59 20.5t26 53.5l127 -31q-9 -47 -34 -79t-63 -58q-44 -31 -69.5 -64.5t-25.5 -63.5q0 -33 31 -33q14 0 26 9.5t22 31.5zM357 319q0 57 -19.5 80.5t-56.5 23.5q-16 0 -31.5 -5.5t-27.5 -18t-19.5 -32.5t-7.5 -48h162z" />
    <glyph glyph-name="Ecaron" unicode="&#x11a;" horiz-adv-x="583" 
d="M228 130h323v-130h-477v724h459v-129h-305v-170h287v-126h-287v-169zM306 846l75 73l102 -7l-107 -142h-140l-102 142l100 6z" />
    <glyph glyph-name="ecaron" unicode="&#x11b;" horiz-adv-x="547" 
d="M289 -12q-72 0 -121 22.5t-79 60t-42.5 86.5t-12.5 102q0 70 20 121.5t55 85.5t81 50t99 16q59 0 101.5 -17.5t69.5 -49t40 -76t13 -98.5q0 -13 -0.5 -33.5t-2.5 -34.5h-317q2 -65 28.5 -91.5t76.5 -26.5q41 0 59 20.5t26 53.5l127 -31q-14 -73 -70.5 -116.5
t-150.5 -43.5zM357 319q0 57 -19.5 80.5t-56.5 23.5q-16 0 -31.5 -5.5t-27.5 -18t-19.5 -32.5t-7.5 -48h162zM213 741l73 -93l76 94l99 -6l-105 -164h-144l-101 164z" />
    <glyph glyph-name="Gcircumflex" unicode="&#x11c;" horiz-adv-x="739" 
d="M552 89q-12 -24 -33 -43t-48.5 -32t-60 -19.5t-65.5 -6.5q-82 0 -140 27t-95 75t-54.5 114.5t-17.5 145.5q0 88 22.5 159.5t66.5 122t109.5 78t152.5 27.5q59 0 109.5 -14t88 -44.5t60.5 -78.5t28 -116l-144 -14q-3 29 -11.5 54.5t-25 44.5t-43 30t-65.5 11
q-96 0 -142 -64.5t-46 -181.5q0 -130 43.5 -191t139.5 -61q36 0 64 10t46.5 27t28 40t9.5 49v26h-132v113h284v-377h-112zM388 841l-75 -73l-102 7l107 142h140l102 -142l-100 -6z" />
    <glyph glyph-name="gcircumflex" unicode="&#x11d;" horiz-adv-x="560" 
d="M274 532q43 0 77.5 -7.5t60.5 -24.5q7 15 16 29t20.5 25t26.5 18t33 7q19 0 42 -9v-99q-23 2 -43.5 0.5t-42.5 -8.5q23 -26 33 -55.5t10 -61.5q0 -44 -17 -78.5t-47.5 -58.5t-72.5 -37t-92 -13q-26 0 -45.5 2.5t-41.5 8.5q-7 -7 -13 -14.5t-6 -17.5q0 -11 9 -18t38 -9
l148 -9q42 -3 74.5 -12t55 -26.5t34 -45t11.5 -66.5q0 -48 -21 -81.5t-57.5 -55t-86.5 -31t-107 -9.5q-72 0 -120 9t-77 24.5t-41.5 38t-12.5 49.5q0 37 25.5 61.5t68.5 32.5v4q-76 22 -76 88q0 39 22 64.5t59 51.5q-35 20 -55.5 55.5t-20.5 85.5q0 42 15.5 77t45 61
t72.5 40.5t99 14.5zM369 347q0 41 -23.5 60t-65.5 19q-41 0 -68 -18.5t-27 -60.5q0 -39 22.5 -59.5t70.5 -20.5q41 0 66 21t25 59zM395 -75q0 15 -12 27t-52 14l-145 9q-14 -11 -22.5 -23.5t-8.5 -26.5q0 -15 10 -25.5t27 -16.5t40.5 -8.5t49.5 -2.5q51 0 82 10.5t31 42.5z
M353 576l-73 94l-76 -95l-101 6l105 164h144l101 -164z" />
    <glyph glyph-name="Gbreve" unicode="&#x11e;" horiz-adv-x="739" 
d="M552 89q-12 -24 -33 -43t-48.5 -32t-60 -19.5t-65.5 -6.5q-82 0 -140 27t-95 75t-54.5 114.5t-17.5 145.5q0 88 22.5 159.5t66.5 122t109.5 78t152.5 27.5q59 0 109.5 -14t88 -44.5t60.5 -78.5t28 -116l-144 -14q-3 29 -11.5 54.5t-25 44.5t-43 30t-65.5 11
q-96 0 -142 -64.5t-46 -181.5q0 -130 43.5 -191t139.5 -61q36 0 64 10t46.5 27t28 40t9.5 49v26h-132v113h284v-377h-112zM391 861q32 0 50 14.5t26 52.5l96 -6q-8 -81 -55.5 -117t-121.5 -36q-72 0 -116.5 35.5t-49.5 115.5l100 10q6 -38 22.5 -53.5t48.5 -15.5z" />
    <glyph glyph-name="gbreve" unicode="&#x11f;" horiz-adv-x="560" 
d="M274 532q43 0 77.5 -7.5t60.5 -24.5q7 15 16 29t20.5 25t26.5 18t33 7q19 0 42 -9v-99q-23 2 -43.5 0.5t-42.5 -8.5q23 -26 33 -55.5t10 -61.5q0 -44 -17 -78.5t-47.5 -58.5t-72.5 -37t-92 -13q-26 0 -45.5 2.5t-41.5 8.5q-7 -7 -13 -14.5t-6 -17.5q0 -11 9 -18t38 -9
l148 -9q42 -3 74.5 -12t55 -26.5t34 -45t11.5 -66.5q0 -48 -21 -81.5t-57.5 -55t-86.5 -31t-107 -9.5q-72 0 -120 9t-77 24.5t-41.5 38t-12.5 49.5q0 37 25.5 61.5t68.5 32.5v4q-76 22 -76 88q0 39 22 64.5t59 51.5q-35 20 -55.5 55.5t-20.5 85.5q0 42 15.5 77t45 61
t72.5 40.5t99 14.5zM369 347q0 41 -23.5 60t-65.5 19q-41 0 -68 -18.5t-27 -60.5q0 -39 22.5 -59.5t70.5 -20.5q41 0 66 21t25 59zM395 -75q0 15 -12 27t-52 14l-145 9q-14 -11 -22.5 -23.5t-8.5 -26.5q0 -15 10 -25.5t27 -16.5t40.5 -8.5t49.5 -2.5q51 0 82 10.5t31 42.5z
M455 730q-6 -85 -54 -123t-124 -38q-74 0 -119 37.5t-48 120.5l100 11q5 -42 22 -59.5t50 -17.5q34 0 52.5 16t24.5 60z" />
    <glyph glyph-name="Gdotaccent" unicode="&#x120;" horiz-adv-x="739" 
d="M552 89q-12 -24 -33 -43t-48.5 -32t-60 -19.5t-65.5 -6.5q-82 0 -140 27t-95 75t-54.5 114.5t-17.5 145.5q0 88 22.5 159.5t66.5 122t109.5 78t152.5 27.5q59 0 109.5 -14t88 -44.5t60.5 -78.5t28 -116l-144 -14q-3 29 -11.5 54.5t-25 44.5t-43 30t-65.5 11
q-96 0 -142 -64.5t-46 -181.5q0 -130 43.5 -191t139.5 -61q36 0 64 10t46.5 27t28 40t9.5 49v26h-132v113h284v-377h-112zM476 868q0 -45 -23.5 -69t-67.5 -24q-43 0 -66.5 24t-23.5 69q0 44 23.5 67t66.5 23q44 0 67.5 -23t23.5 -67z" />
    <glyph glyph-name="gdotaccent" unicode="&#x121;" horiz-adv-x="560" 
d="M274 532q43 0 77.5 -7.5t60.5 -24.5q7 15 16 29t20.5 25t26.5 18t33 7q19 0 42 -9v-99q-23 2 -43.5 0.5t-42.5 -8.5q23 -26 33 -55.5t10 -61.5q0 -44 -17 -78.5t-47.5 -58.5t-72.5 -37t-92 -13q-26 0 -45.5 2.5t-41.5 8.5q-7 -7 -13 -14.5t-6 -17.5q0 -11 9 -18t38 -9
l148 -9q42 -3 74.5 -12t55 -26.5t34 -45t11.5 -66.5q0 -48 -21 -81.5t-57.5 -55t-86.5 -31t-107 -9.5q-72 0 -120 9t-77 24.5t-41.5 38t-12.5 49.5q0 37 25.5 61.5t68.5 32.5v4q-76 22 -76 88q0 39 22 64.5t59 51.5q-35 20 -55.5 55.5t-20.5 85.5q0 42 15.5 77t45 61
t72.5 40.5t99 14.5zM369 347q0 41 -23.5 60t-65.5 19q-41 0 -68 -18.5t-27 -60.5q0 -39 22.5 -59.5t70.5 -20.5q41 0 66 21t25 59zM395 -75q0 15 -12 27t-52 14l-145 9q-14 -11 -22.5 -23.5t-8.5 -26.5q0 -15 10 -25.5t27 -16.5t40.5 -8.5t49.5 -2.5q51 0 82 10.5t31 42.5z
M370 681q0 -44 -23.5 -68t-67.5 -24q-43 0 -66.5 24t-23.5 68t23.5 67.5t66.5 23.5q44 0 67.5 -23.5t23.5 -67.5z" />
    <glyph glyph-name="Gcommaaccent" unicode="&#x122;" horiz-adv-x="739" 
d="M552 89q-12 -24 -33 -43t-48.5 -32t-60 -19.5t-65.5 -6.5q-82 0 -140 27t-95 75t-54.5 114.5t-17.5 145.5q0 88 22.5 159.5t66.5 122t109.5 78t152.5 27.5q59 0 109.5 -14t88 -44.5t60.5 -78.5t28 -116l-144 -14q-3 29 -11.5 54.5t-25 44.5t-43 30t-65.5 11
q-96 0 -142 -64.5t-46 -181.5q0 -130 43.5 -191t139.5 -61q36 0 64 10t46.5 27t28 40t9.5 49v26h-132v113h284v-377h-112zM308 -68h140l-83 -206l-103 15z" />
    <glyph glyph-name="gcommaaccent" unicode="&#x123;" horiz-adv-x="560" 
d="M274 532q43 0 77.5 -7.5t60.5 -24.5q7 15 16 29t20.5 25t26.5 18t33 7q19 0 42 -9v-99q-23 2 -43.5 0.5t-42.5 -8.5q23 -26 33 -55.5t10 -61.5q0 -44 -17 -78.5t-47.5 -58.5t-72.5 -37t-92 -13q-26 0 -45.5 2.5t-41.5 8.5q-7 -7 -13 -14.5t-6 -17.5q0 -11 9 -18t38 -9
l148 -9q42 -3 74.5 -12t55 -26.5t34 -45t11.5 -66.5q0 -48 -21 -81.5t-57.5 -55t-86.5 -31t-107 -9.5q-72 0 -120 9t-77 24.5t-41.5 38t-12.5 49.5q0 37 25.5 61.5t68.5 32.5v4q-76 22 -76 88q0 39 22 64.5t59 51.5q-35 20 -55.5 55.5t-20.5 85.5q0 42 15.5 77t45 61
t72.5 40.5t99 14.5zM369 347q0 41 -23.5 60t-65.5 19q-41 0 -68 -18.5t-27 -60.5q0 -39 22.5 -59.5t70.5 -20.5q41 0 66 21t25 59zM395 -75q0 15 -12 27t-52 14l-145 9q-14 -11 -22.5 -23.5t-8.5 -26.5q0 -15 10 -25.5t27 -16.5t40.5 -8.5t49.5 -2.5q51 0 82 10.5t31 42.5z
M337 569h-140l83 207l103 -15z" />
    <glyph glyph-name="Hcircumflex" unicode="&#x124;" horiz-adv-x="733" 
d="M660 0h-155v297h-277v-297h-154v724h154v-294h277v294h155v-724zM369 841l-75 -73l-102 7l107 142h140l102 -142l-100 -6z" />
    <glyph glyph-name="hcircumflex" unicode="&#x125;" horiz-adv-x="583" 
d="M530 0h-151v329q0 42 -17 61t-52 19q-31 0 -59 -13.5t-43 -27.5v-368h-151v755h150v-282q28 22 66.5 40.5t94.5 18.5q85 0 123.5 -43t38.5 -133v-356zM136 863l-75 -73l-102 7l107 142h140l102 -142l-100 -6z" />
    <glyph glyph-name="Hbar" unicode="&#x126;" horiz-adv-x="733" 
d="M660 630h66v-113h-66v-517h-155v297h-277v-297h-154v517h-67v113h67v94h154v-94h277v94h155v-94zM505 430v87h-277v-87h277z" />
    <glyph glyph-name="hbar" unicode="&#x127;" horiz-adv-x="583" 
d="M-1 677h58v78h150v-78h175v-101h-175v-110q28 22 66.5 40.5t94.5 18.5q85 0 123.5 -43t38.5 -133v-349h-151v322q0 42 -17 61t-52 19q-31 0 -59 -13.5t-43 -27.5v-361h-151v576h-58v101z" />
    <glyph glyph-name="Itilde" unicode="&#x128;" horiz-adv-x="302" 
d="M228 0h-154v724h154v-724zM78 930q24 0 44 -6.5t37.5 -15t33.5 -15t33 -6.5t23.5 9.5t6.5 34.5l76 -4q7 -62 -15.5 -101.5t-75.5 -39.5q-26 0 -47 7t-39 15t-34 15t-32 7t-24 -9.5t-4 -37.5l-82 3q-8 66 20 105t79 39z" />
    <glyph glyph-name="itilde" unicode="&#x129;" horiz-adv-x="268" 
d="M211 0h-151v521h151v-521zM60 732q24 0 44 -7t37.5 -15t33.5 -15t33 -7t23.5 9.5t6.5 34.5l76 -4q7 -62 -15.5 -101.5t-75.5 -39.5q-26 0 -47 7t-39 15t-34 15t-32 7t-24 -9.5t-4 -37.5l-82 3q-8 66 20 105.5t79 39.5z" />
    <glyph glyph-name="Imacron" unicode="&#x12a;" horiz-adv-x="302" 
d="M228 0h-154v724h154v-724zM-6 784v103h317v-103h-317z" />
    <glyph glyph-name="imacron" unicode="&#x12b;" horiz-adv-x="268" 
d="M211 0h-151v521h151v-521zM-19 601v102h311v-102h-311z" />
    <glyph glyph-name="Ibreve" unicode="&#x12c;" horiz-adv-x="302" 
d="M228 0h-154v724h154v-724zM158 861q32 0 50 14.5t26 52.5l96 -6q-8 -81 -55.5 -117t-121.5 -36q-72 0 -116.5 35.5t-49.5 115.5l100 10q6 -38 22.5 -53.5t48.5 -15.5z" />
    <glyph glyph-name="ibreve" unicode="&#x12d;" horiz-adv-x="268" 
d="M211 0h-151v521h151v-521zM313 730q-6 -85 -54 -123t-124 -38q-74 0 -119 37.5t-48 120.5l100 11q5 -42 22 -59.5t50 -17.5q34 0 52.5 16t24.5 60z" />
    <glyph glyph-name="Iogonek" unicode="&#x12e;" horiz-adv-x="302" 
d="M271 -139q-17 -49 -54.5 -75t-85.5 -26q-57 0 -86.5 25.5t-29.5 72.5q0 22 8.5 42t23 37.5t32.5 33t37 29.5h-42v724h154v-724q-53 -34 -77 -61t-24 -56q0 -33 31 -33q14 0 26 9.5t22 31.5z" />
    <glyph glyph-name="iogonek" unicode="&#x12f;" horiz-adv-x="268" 
d="M253 -139q-17 -49 -54.5 -75t-85.5 -26q-57 0 -86.5 25.5t-29.5 72.5q0 45 29.5 79t77.5 63h-44v521h151v-521q-54 -34 -78 -61t-24 -56q0 -33 31 -33q14 0 26 9.5t22 31.5zM227 681q0 -44 -24 -68t-67 -24q-44 0 -67.5 24t-23.5 68t23.5 67.5t67.5 23.5q43 0 67 -23.5
t24 -67.5z" />
    <glyph glyph-name="Idotaccent" unicode="&#x130;" horiz-adv-x="302" 
d="M228 0h-154v724h154v-724zM243 868q0 -45 -23.5 -69t-67.5 -24q-43 0 -66.5 24t-23.5 69q0 44 23.5 67t66.5 23q44 0 67.5 -23t23.5 -67z" />
    <glyph glyph-name="dotlessi" unicode="&#x131;" horiz-adv-x="268" 
d="M211 0h-151v521h151v-521z" />
    <glyph glyph-name="IJ" unicode="&#x132;" horiz-adv-x="832" 
d="M228 0h-154v724h154v-724zM610 724h155v-521q0 -108 -57.5 -161.5t-170.5 -53.5q-47 0 -86.5 10t-68.5 34t-46 63.5t-19 97.5l148 22q2 -23 5.5 -41.5t11 -31.5t21 -20.5t36.5 -7.5q35 0 53 18.5t18 66.5v525z" />
    <glyph glyph-name="Jcircumflex" unicode="&#x134;" horiz-adv-x="530" 
d="M308 724h155v-521q0 -108 -57.5 -161.5t-170.5 -53.5q-47 0 -86.5 10t-68.5 34t-46 63.5t-19 97.5l148 22q2 -23 5.5 -41.5t11 -31.5t21 -20.5t36.5 -7.5q35 0 53 18.5t18 66.5v525zM386 841l-75 -73l-102 7l107 142h140l102 -142l-100 -6z" />
    <glyph glyph-name="jcircumflex" unicode="&#x135;" horiz-adv-x="266" 
d="M25 -223q-41 0 -75 9t-48 19l11 113q13 -6 35.5 -13t46.5 -7q27 0 46 15.5t19 62.5v545h151v-562q0 -49 -13.5 -83.5t-38 -56.5t-59 -32t-75.5 -10zM211 576l-73 94l-76 -95l-101 6l105 164h144l101 -164z" />
    <glyph glyph-name="Kcommaaccent" unicode="&#x136;" horiz-adv-x="673" 
d="M227 414l281 310h164l-265 -301l261 -423h-180l-191 303l-70 -76v-227h-153v724h153v-310zM287 -68h140l-83 -206l-103 15z" />
    <glyph glyph-name="kcommaaccent" unicode="&#x137;" horiz-adv-x="564" 
d="M210 339l172 182h167l-173 -187l186 -334h-167l-135 238l-50 -49v-189h-151v755h151v-416zM230 -68h140l-83 -206l-103 15z" />
    <glyph glyph-name="kgreenlandic" unicode="&#x138;" horiz-adv-x="564" 
d="M210 339l172 182h167l-173 -187l186 -334h-167l-135 238l-50 -49v-189h-151v521h151v-182z" />
    <glyph glyph-name="Lacute" unicode="&#x139;" horiz-adv-x="568" 
d="M228 130h310v-130h-464v724h154v-594zM170 768l-107 8l91 140h162z" />
    <glyph glyph-name="lacute" unicode="&#x13a;" horiz-adv-x="268" 
d="M211 0h-151v755h151v-755zM150 789l-107 8l91 140h162z" />
    <glyph glyph-name="Lcommaaccent" unicode="&#x13b;" horiz-adv-x="568" 
d="M228 130h310v-130h-464v724h154v-594zM250 -68h140l-83 -206l-103 15z" />
    <glyph glyph-name="lcommaaccent" unicode="&#x13c;" horiz-adv-x="268" 
d="M211 0h-151v755h151v-755zM79 -68h140l-83 -206l-103 15z" />
    <glyph glyph-name="Lcaron" unicode="&#x13d;" horiz-adv-x="568" 
d="M228 130h310v-130h-464v724h154v-594zM345 726h138l-66 -202l-105 9z" />
    <glyph glyph-name="lcaron" unicode="&#x13e;" horiz-adv-x="396" 
d="M211 0h-151v755h151v-755zM285 755h138l-66 -202l-105 9z" />
    <glyph glyph-name="Ldot" unicode="&#x13f;" horiz-adv-x="568" 
d="M228 130h310v-130h-464v724h154v-594zM523 411q0 -45 -23.5 -69t-67.5 -24q-43 0 -66.5 24t-23.5 69q0 44 23.5 67t66.5 23q44 0 67.5 -23t23.5 -67z" />
    <glyph glyph-name="ldot" unicode="&#x140;" horiz-adv-x="398" 
d="M211 0h-151v755h151v-755zM422.466 403.12q0 -43.0391 -22.9805 -66.5146q-22.9814 -23.4756 -66.0088 -23.4756q-42.0498 0 -65.0312 23.4756q-22.9805 23.4756 -22.9805 66.5146q0 43.0381 22.9805 66.0244q22.9814 22.9863 65.0312 22.9863
q43.0273 0 66.0088 -22.9863q22.9805 -22.9863 22.9805 -66.0244z" />
    <glyph glyph-name="Lslash" unicode="&#x141;" horiz-adv-x="568" 
d="M228 441l195 79v-127l-195 -79v-184h310v-130h-464v252l-78 -31v126l78 31v346h154v-283z" />
    <glyph glyph-name="lslash" unicode="&#x142;" horiz-adv-x="279" 
d="M214 508l65 32v-133l-65 -32v-375h-151v316l-63 -30v133l63 30v306h151v-247z" />
    <glyph glyph-name="Nacute" unicode="&#x143;" horiz-adv-x="745" 
d="M494 0l-279 511v-511h-141v724h184l274 -513v513h140v-724h-178zM416 768l-107 8l91 140h162z" />
    <glyph glyph-name="nacute" unicode="&#x144;" horiz-adv-x="583" 
d="M530 0h-151v330q0 42 -17 61t-52 19q-31 0 -59 -13.5t-43 -27.5v-369h-151v521h134l8 -52q29 26 70.5 44.5t95.5 18.5q87 0 126 -43t39 -133v-356zM329 572l-101 9l75 162h161z" />
    <glyph glyph-name="Ncommaaccent" unicode="&#x145;" horiz-adv-x="745" 
d="M494 0l-279 511v-511h-141v724h184l274 -513v513h140v-724h-178zM313 -68h140l-83 -206l-103 15z" />
    <glyph glyph-name="ncommaaccent" unicode="&#x146;" horiz-adv-x="583" 
d="M530 0h-151v330q0 42 -17 61t-52 19q-31 0 -59 -13.5t-43 -27.5v-369h-151v521h134l8 -52q29 26 70.5 44.5t95.5 18.5q87 0 126 -43t39 -133v-356zM231 -68h140l-83 -206l-103 15z" />
    <glyph glyph-name="Ncaron" unicode="&#x147;" horiz-adv-x="745" 
d="M494 0l-279 511v-511h-141v724h184l274 -513v513h140v-724h-178zM384 846l75 73l102 -7l-107 -142h-140l-102 142l100 6z" />
    <glyph glyph-name="ncaron" unicode="&#x148;" horiz-adv-x="583" 
d="M530 0h-151v330q0 42 -17 61t-52 19q-31 0 -59 -13.5t-43 -27.5v-369h-151v521h134l8 -52q29 26 70.5 44.5t95.5 18.5q87 0 126 -43t39 -133v-356zM234 741l73 -93l76 94l99 -6l-105 -164h-144l-101 164z" />
    <glyph glyph-name="napostrophe" unicode="&#x149;" horiz-adv-x="640" 
d="M587 0h-151v330q0 42 -17 61t-52 19q-31 0 -59 -13.5t-43 -27.5v-369h-151v521h134l8 -52q29 26 70.5 44.5t95.5 18.5q87 0 126 -43t39 -133v-356zM20.9473 688.083h129.516l-76.7842 -191l-96.2119 12.9805z" />
    <glyph glyph-name="Eng" unicode="&#x14a;" horiz-adv-x="745" 
d="M478 -223q-44 0 -81 9t-53 19l16 116q14 -6 37.5 -13t50.5 -7q13 0 25.5 3t22.5 11t15.5 22.5t5.5 38.5v29l-302 506v-511h-141v724h184l274 -463v463h140v-765q0 -49 -15 -83.5t-41 -56.5t-61.5 -32t-76.5 -10z" />
    <glyph glyph-name="eng" unicode="&#x14b;" horiz-adv-x="583" 
d="M344 -223q-41 0 -75 9t-48 19l11 113q13 -6 35.5 -13t46.5 -7q27 0 46 15.5t19 62.5v354q0 42 -17 61t-52 19q-31 0 -59 -13.5t-43 -27.5v-369h-151v521h134l8 -52q29 26 70.5 44.5t95.5 18.5q87 0 126 -43t39 -133v-397q0 -49 -13.5 -83.5t-38 -56.5t-59 -32t-75.5 -10z
" />
    <glyph glyph-name="Omacron" unicode="&#x14c;" horiz-adv-x="760" 
d="M375 -12q-90 0 -153.5 27.5t-104.5 77t-60 117.5t-19 149t22 150t66.5 119.5t110.5 79.5t154 29t151 -28.5t103 -78t59 -116t19 -141.5q0 -88 -21.5 -159t-64.5 -121.5t-108.5 -77.5t-153.5 -27zM381 118q40 0 74 13.5t58 42.5t37.5 76t13.5 114q0 126 -46 184.5
t-130 58.5q-88 0 -139.5 -59.5t-51.5 -185.5q0 -65 12.5 -111t36.5 -75.5t58 -43.5t77 -14zM231 784v103h317v-103h-317z" />
    <glyph glyph-name="omacron" unicode="&#x14d;" horiz-adv-x="587" 
d="M288 -12q-71 0 -119.5 20t-78.5 56t-43 85.5t-13 108.5q0 63 16.5 113.5t49.5 86t83.5 55t118.5 19.5t115.5 -19.5t77.5 -54.5t44 -83t14 -106q0 -64 -15 -116t-47.5 -88.5t-82.5 -56.5t-120 -20zM295 100q25 0 43.5 8.5t31.5 28t19.5 50.5t6.5 77q0 85 -24 119.5
t-74 34.5q-51 0 -78.5 -35.5t-27.5 -120.5q0 -87 23.5 -124.5t79.5 -37.5zM144 601v102h311v-102h-311z" />
    <glyph glyph-name="Obreve" unicode="&#x14e;" horiz-adv-x="760" 
d="M375 -12q-90 0 -153.5 27.5t-104.5 77t-60 117.5t-19 149t22 150t66.5 119.5t110.5 79.5t154 29t151 -28.5t103 -78t59 -116t19 -141.5q0 -88 -21.5 -159t-64.5 -121.5t-108.5 -77.5t-153.5 -27zM381 118q40 0 74 13.5t58 42.5t37.5 76t13.5 114q0 126 -46 184.5
t-130 58.5q-88 0 -139.5 -59.5t-51.5 -185.5q0 -65 12.5 -111t36.5 -75.5t58 -43.5t77 -14zM395 861q32 0 50 14.5t26 52.5l96 -6q-8 -81 -55.5 -117t-121.5 -36q-72 0 -116.5 35.5t-49.5 115.5l100 10q6 -38 22.5 -53.5t48.5 -15.5z" />
    <glyph glyph-name="obreve" unicode="&#x14f;" horiz-adv-x="587" 
d="M288 -12q-71 0 -119.5 20t-78.5 56t-43 85.5t-13 108.5q0 63 16.5 113.5t49.5 86t83.5 55t118.5 19.5t115.5 -19.5t77.5 -54.5t44 -83t14 -106q0 -64 -15 -116t-47.5 -88.5t-82.5 -56.5t-120 -20zM295 100q25 0 43.5 8.5t31.5 28t19.5 50.5t6.5 77q0 85 -24 119.5
t-74 34.5q-51 0 -78.5 -35.5t-27.5 -120.5q0 -87 23.5 -124.5t79.5 -37.5zM476 730q-6 -85 -54 -123t-124 -38q-74 0 -119 37.5t-48 120.5l100 11q5 -42 22 -59.5t50 -17.5q34 0 52.5 16t24.5 60z" />
    <glyph glyph-name="Ohungarumlaut" unicode="&#x150;" horiz-adv-x="760" 
d="M375 -12q-90 0 -153.5 27.5t-104.5 77t-60 117.5t-19 149t22 150t66.5 119.5t110.5 79.5t154 29t151 -28.5t103 -78t59 -116t19 -141.5q0 -88 -21.5 -159t-64.5 -121.5t-108.5 -77.5t-153.5 -27zM381 118q40 0 74 13.5t58 42.5t37.5 76t13.5 114q0 126 -46 184.5
t-130 58.5q-88 0 -139.5 -59.5t-51.5 -185.5q0 -65 12.5 -111t36.5 -75.5t58 -43.5t77 -14zM348 768l-97 12l50 135h154zM504 768l-101 8l92 144h162z" />
    <glyph glyph-name="ohungarumlaut" unicode="&#x151;" horiz-adv-x="587" 
d="M288 -12q-71 0 -119.5 20t-78.5 56t-43 85.5t-13 108.5q0 63 16.5 113.5t49.5 86t83.5 55t118.5 19.5t115.5 -19.5t77.5 -54.5t44 -83t14 -106q0 -64 -15 -116t-47.5 -88.5t-82.5 -56.5t-120 -20zM295 100q25 0 43.5 8.5t31.5 28t19.5 50.5t6.5 77q0 85 -24 119.5
t-74 34.5q-51 0 -78.5 -35.5t-27.5 -120.5q0 -87 23.5 -124.5t79.5 -37.5zM266 572l-96 12l44 159h154zM423 572l-101 9l85 166h162z" />
    <glyph glyph-name="OE" unicode="&#x152;" horiz-adv-x="1073" 
d="M579 0v67q-35 -37 -89 -58t-115 -21q-90 0 -153.5 27.5t-104.5 77t-60 117.5t-19 149t22.5 150t66.5 119.5t108.5 79.5t148.5 29q68 0 114 -20t81 -57v64h443v-129h-305v-170h287v-126h-287v-170h324v-129h-462zM381 117q40 0 73 13t57.5 41.5t38 74t14.5 109.5
q1 131 -45 191.5t-131 60.5q-88 0 -139.5 -59.5t-51.5 -185.5q0 -65 12.5 -111.5t36.5 -76t58 -43.5t77 -14z" />
    <glyph glyph-name="oe" unicode="&#x153;" horiz-adv-x="899" 
d="M643 -12q-36 0 -63.5 7.5t-48.5 20t-36.5 28.5t-26.5 34q-27 -40 -73 -65t-115 -25q-66 0 -112.5 20t-76.5 56t-43.5 85.5t-13.5 108.5q0 63 17 113.5t50 86t81 55t110 19.5q68 0 110.5 -23t71.5 -64q27 39 72 63t103 24q55 0 95.5 -17.5t67.5 -49t40 -75.5t13 -98
q0 -13 -0.5 -34t-2.5 -35h-317q2 -65 28.5 -91.5t76.5 -26.5q41 0 60 21.5t25 52.5l127 -31q-14 -73 -71 -116.5t-148 -43.5zM295 100q50 0 75.5 37t25.5 126q0 86 -24 120.5t-74 34.5q-51 0 -78.5 -35.5t-27.5 -120.5q0 -87 23.5 -124.5t79.5 -37.5zM709 319q1 57 -19 80.5
t-57 23.5q-16 0 -31.5 -5.5t-27.5 -17.5t-19.5 -32t-7.5 -49h162z" />
    <glyph glyph-name="Racute" unicode="&#x154;" horiz-adv-x="642" 
d="M635 0h-166l-143 275h-99v-275h-153v724h282q67 0 113 -17t74.5 -45t40.5 -65t12 -77q0 -81 -34.5 -131t-90.5 -76zM306 396q27 0 51 5.5t41.5 18t28 33.5t10.5 52q0 52 -31.5 73.5t-93.5 21.5h-85v-204h79zM322 768l-107 8l91 140h162z" />
    <glyph glyph-name="racute" unicode="&#x155;" horiz-adv-x="393" 
d="M387 384q-51 5 -98.5 -8t-80.5 -39v-337h-151v521h129l11 -82q26 38 65 65.5t99 27.5q6 0 12.5 -0.5t13.5 -0.5v-147zM243 572l-101 9l75 162h161z" />
    <glyph glyph-name="Rcommaaccent" unicode="&#x156;" horiz-adv-x="642" 
d="M635 0h-166l-143 275h-99v-275h-153v724h282q67 0 113 -17t74.5 -45t40.5 -65t12 -77q0 -81 -34.5 -131t-90.5 -76zM306 396q27 0 51 5.5t41.5 18t28 33.5t10.5 52q0 52 -31.5 73.5t-93.5 21.5h-85v-204h79zM274 -68h140l-83 -206l-103 15z" />
    <glyph glyph-name="rcommaaccent" unicode="&#x157;" horiz-adv-x="393" 
d="M387 384q-51 5 -98.5 -8t-80.5 -39v-337h-151v521h129l11 -82q26 38 65 65.5t99 27.5q6 0 12.5 -0.5t13.5 -0.5v-147zM75 -68h140l-83 -206l-103 15z" />
    <glyph glyph-name="Rcaron" unicode="&#x158;" horiz-adv-x="642" 
d="M635 0h-166l-143 275h-99v-275h-153v724h282q67 0 113 -17t74.5 -45t40.5 -65t12 -77q0 -81 -34.5 -131t-90.5 -76zM306 396q27 0 51 5.5t41.5 18t28 33.5t10.5 52q0 52 -31.5 73.5t-93.5 21.5h-85v-204h79zM302 846l75 73l102 -7l-107 -142h-140l-102 142l100 6z" />
    <glyph glyph-name="rcaron" unicode="&#x159;" horiz-adv-x="393" 
d="M387 384q-51 5 -98.5 -8t-80.5 -39v-337h-151v521h129l11 -82q26 38 65 65.5t99 27.5q6 0 12.5 -0.5t13.5 -0.5v-147zM149 741l73 -93l76 94l99 -6l-105 -164h-144l-101 164z" />
    <glyph glyph-name="Sacute" unicode="&#x15a;" horiz-adv-x="596" 
d="M300 618q-56 0 -82 -21t-26 -56q0 -28 16 -46t42.5 -30.5t60.5 -22t69 -20.5t69 -25.5t60.5 -38t42.5 -57.5t16 -84q0 -62 -23 -105t-61.5 -71t-88.5 -40.5t-104 -12.5q-49 0 -97 9.5t-87 35t-65 70t-31 115.5l140 21q4 -26 12.5 -49.5t24.5 -41t41.5 -28t65.5 -10.5
q24 0 45.5 4.5t38 15t26.5 27.5t10 42q0 28 -16 45.5t-42.5 29.5t-60.5 20.5t-69.5 18.5t-69.5 24t-60.5 37.5t-42.5 58.5t-16 86q0 53 20.5 93.5t56.5 68.5t84 42t103 14q48 0 93 -9t80 -32.5t58 -65t27 -105.5l-141 -16q-2 25 -9 45.5t-21 34.5t-35.5 21.5t-53.5 7.5z
M320 768l-107 8l91 140h162z" />
    <glyph glyph-name="sacute" unicode="&#x15b;" horiz-adv-x="501" 
d="M257 532q89 0 139 -36t69 -102l-124 -39q-10 33 -29 52t-61 19q-66 0 -66 -46q0 -14 8 -23.5t22 -15.5t33.5 -10t42.5 -8q34 -6 67 -14.5t58.5 -25t41.5 -45t16 -74.5q0 -45 -18 -78t-48.5 -54.5t-72.5 -32.5t-90 -11q-101 0 -154.5 39t-67.5 104l123 40q4 -15 11 -29
t19 -25.5t29.5 -18t44.5 -6.5q75 0 75 49q0 29 -25.5 38.5t-71.5 17.5q-34 6 -67.5 15t-60.5 26.5t-43.5 46.5t-16.5 77q0 43 17.5 75t47.5 53t69 31.5t83 10.5zM274 572l-101 9l75 162h161z" />
    <glyph glyph-name="Scircumflex" unicode="&#x15c;" horiz-adv-x="596" 
d="M300 618q-56 0 -82 -21t-26 -56q0 -28 16 -46t42.5 -30.5t60.5 -22t69 -20.5t69 -25.5t60.5 -38t42.5 -57.5t16 -84q0 -62 -23 -105t-61.5 -71t-88.5 -40.5t-104 -12.5q-49 0 -97 9.5t-87 35t-65 70t-31 115.5l140 21q4 -26 12.5 -49.5t24.5 -41t41.5 -28t65.5 -10.5
q24 0 45.5 4.5t38 15t26.5 27.5t10 42q0 28 -16 45.5t-42.5 29.5t-60.5 20.5t-69.5 18.5t-69.5 24t-60.5 37.5t-42.5 58.5t-16 86q0 53 20.5 93.5t56.5 68.5t84 42t103 14q48 0 93 -9t80 -32.5t58 -65t27 -105.5l-141 -16q-2 25 -9 45.5t-21 34.5t-35.5 21.5t-53.5 7.5z
M303 841l-75 -73l-102 7l107 142h140l102 -142l-100 -6z" />
    <glyph glyph-name="scircumflex" unicode="&#x15d;" horiz-adv-x="501" 
d="M257 532q89 0 139 -36t69 -102l-124 -39q-10 33 -29 52t-61 19q-66 0 -66 -46q0 -14 8 -23.5t22 -15.5t33.5 -10t42.5 -8q34 -6 67 -14.5t58.5 -25t41.5 -45t16 -74.5q0 -45 -18 -78t-48.5 -54.5t-72.5 -32.5t-90 -11q-101 0 -154.5 39t-67.5 104l123 40q4 -15 11 -29
t19 -25.5t29.5 -18t44.5 -6.5q75 0 75 49q0 29 -25.5 38.5t-71.5 17.5q-34 6 -67.5 15t-60.5 26.5t-43.5 46.5t-16.5 77q0 43 17.5 75t47.5 53t69 31.5t83 10.5zM326 576l-73 94l-76 -95l-101 6l105 164h144l101 -164z" />
    <glyph glyph-name="Scedilla" unicode="&#x15e;" horiz-adv-x="596" 
d="M211 -162q12 -3 23.5 -5t24.5 -2q23 0 36.5 8.5t13.5 28.5q0 23 -17 29.5t-47 7.5l11 85q-45 3 -87 14.5t-75.5 38t-56 69t-26.5 106.5l140 21q4 -26 12.5 -49.5t24.5 -41t41.5 -28t65.5 -10.5q24 0 45.5 4.5t38 15t26.5 27.5t10 42q0 28 -16 45.5t-42.5 29.5t-60.5 20.5
t-69.5 18.5t-69.5 24t-60.5 37.5t-42.5 58.5t-16 86q0 53 20.5 93.5t56.5 68.5t84 42t103 14q48 0 93 -9t80 -32.5t58 -65t27 -105.5l-141 -16q-2 25 -9 45.5t-21 34.5t-35.5 21.5t-53.5 7.5q-56 0 -82 -21t-26 -56q0 -28 16 -46t42.5 -30.5t60.5 -22t69 -20.5t69 -25.5
t60.5 -38t42.5 -57.5t16 -84q0 -56 -19.5 -97t-52.5 -69t-76.5 -42.5t-91.5 -18.5l-4 -35q16 -3 31.5 -9t27.5 -17t19 -27t7 -39q0 -55 -37.5 -82t-93.5 -27q-46 0 -82 14z" />
    <glyph glyph-name="scedilla" unicode="&#x15f;" horiz-adv-x="501" 
d="M164 -162q12 -3 23.5 -5t24.5 -2q23 0 36.5 8.5t13.5 28.5q0 23 -17 29.5t-47 7.5l11 85q-84 7 -129 44.5t-57 96.5l123 40q4 -15 11 -29t19 -25.5t29.5 -18t44.5 -6.5q75 0 75 49q0 29 -25.5 38.5t-71.5 17.5q-34 6 -67.5 15t-60.5 26.5t-43.5 46.5t-16.5 77
q0 43 17.5 75t47.5 53t69 31.5t83 10.5q89 0 139 -36t69 -102l-124 -39q-10 33 -29 52t-61 19q-66 0 -66 -46q0 -14 8 -23.5t22 -15.5t33.5 -10t42.5 -8q34 -6 67 -14.5t58.5 -25t41.5 -45t16 -74.5q0 -41 -14.5 -71.5t-40.5 -52t-61.5 -34t-76.5 -16.5l-4 -35
q16 -3 31.5 -9t27.5 -17t19 -27t7 -39q0 -55 -37.5 -82t-93.5 -27q-46 0 -82 14z" />
    <glyph glyph-name="Scaron" unicode="&#x160;" horiz-adv-x="596" 
d="M300 618q-56 0 -82 -21t-26 -56q0 -28 16 -46t42.5 -30.5t60.5 -22t69 -20.5t69 -25.5t60.5 -38t42.5 -57.5t16 -84q0 -62 -23 -105t-61.5 -71t-88.5 -40.5t-104 -12.5q-49 0 -97 9.5t-87 35t-65 70t-31 115.5l140 21q4 -26 12.5 -49.5t24.5 -41t41.5 -28t65.5 -10.5
q24 0 45.5 4.5t38 15t26.5 27.5t10 42q0 28 -16 45.5t-42.5 29.5t-60.5 20.5t-69.5 18.5t-69.5 24t-60.5 37.5t-42.5 58.5t-16 86q0 53 20.5 93.5t56.5 68.5t84 42t103 14q48 0 93 -9t80 -32.5t58 -65t27 -105.5l-141 -16q-2 25 -9 45.5t-21 34.5t-35.5 21.5t-53.5 7.5z
M300 846l75 73l102 -7l-107 -142h-140l-102 142l100 6z" />
    <glyph glyph-name="scaron" unicode="&#x161;" horiz-adv-x="501" 
d="M257 532q89 0 139 -36t69 -102l-124 -39q-10 33 -29 52t-61 19q-66 0 -66 -46q0 -14 8 -23.5t22 -15.5t33.5 -10t42.5 -8q34 -6 67 -14.5t58.5 -25t41.5 -45t16 -74.5q0 -45 -18 -78t-48.5 -54.5t-72.5 -32.5t-90 -11q-101 0 -154.5 39t-67.5 104l123 40q4 -15 11 -29
t19 -25.5t29.5 -18t44.5 -6.5q75 0 75 49q0 29 -25.5 38.5t-71.5 17.5q-34 6 -67.5 15t-60.5 26.5t-43.5 46.5t-16.5 77q0 43 17.5 75t47.5 53t69 31.5t83 10.5zM180 741l73 -93l76 94l99 -6l-105 -164h-144l-101 164z" />
    <glyph glyph-name="uni0162" unicode="&#x162;" horiz-adv-x="595" 
d="M215 -162q12 -3 23.5 -5t24.5 -2q23 0 36.5 8.5t13.5 28.5q0 23 -17 29.5t-47 7.5l12 95h-40v594h-213v130h579v-130h-211v-594h-42l-6 -45q16 -3 31.5 -9t27.5 -17t19 -27t7 -39q0 -55 -37.5 -82t-93.5 -27q-46 0 -82 14z" />
    <glyph glyph-name="uni0163" unicode="&#x163;" horiz-adv-x="412" 
d="M153 -162q12 -3 23.5 -5t24.5 -2q23 0 36.5 8.5t13.5 28.5q0 23 -17 29.5t-47 7.5l11 88q-57 11 -85 50.5t-28 113.5v254h-78v110h78v154l151 20v-174h138v-110h-138v-233q0 -35 12.5 -52.5t48.5 -17.5q23 0 47 7.5t39 16.5l21 -107q-18 -12 -54 -23t-80 -13l-4 -34
q16 -3 31.5 -9t27.5 -17t19 -27t7 -39q0 -55 -37.5 -82t-93.5 -27q-46 0 -82 14z" />
    <glyph glyph-name="Tcaron" unicode="&#x164;" horiz-adv-x="595" 
d="M221 0v594h-213v130h579v-130h-211v-594h-155zM296 846l75 73l102 -7l-107 -142h-140l-102 142l100 6z" />
    <glyph glyph-name="tcaron" unicode="&#x165;" horiz-adv-x="412" 
d="M404 25q-20 -13 -61.5 -25t-91.5 -12q-82 0 -124 39.5t-42 129.5v254h-78v110h78v154l151 20v-174h138v-110h-138v-233q0 -35 12.5 -52.5t48.5 -17.5q23 0 47 7.5t39 16.5zM311 774h138l-66 -202l-105 9z" />
    <glyph glyph-name="Tbar" unicode="&#x166;" horiz-adv-x="595" 
d="M221 0v295h-142v124h142v175h-213v130h579v-130h-211v-175h140v-124h-140v-295h-155z" />
    <glyph glyph-name="tbar" unicode="&#x167;" horiz-adv-x="412" 
d="M404 25q-20 -13 -61.5 -25t-91.5 -12q-82 0 -124 39.5t-42 129.5v69h-78v106h78v79h-78v110h78v154l151 20v-174h138v-110h-138v-79h138v-106h-138v-48q0 -35 12.5 -52.5t48.5 -17.5q23 0 47 7.5t39 16.5z" />
    <glyph glyph-name="Utilde" unicode="&#x168;" horiz-adv-x="708" 
d="M356 117q38 0 63.5 9.5t40.5 29.5t21.5 51.5t6.5 75.5v441h154v-463q0 -72 -20 -123.5t-58 -85t-92 -49t-122 -15.5q-150 0 -217.5 67.5t-67.5 209.5v459h155v-438q0 -42 6 -74t21.5 -53t42 -31.5t66.5 -10.5zM278 930q24 0 44 -6.5t37.5 -15t33.5 -15t33 -6.5t23.5 9.5
t6.5 34.5l76 -4q7 -62 -15.5 -101.5t-75.5 -39.5q-26 0 -47 7t-39 15t-34 15t-32 7t-24 -9.5t-4 -37.5l-82 3q-8 66 20 105t79 39z" />
    <glyph glyph-name="utilde" unicode="&#x169;" horiz-adv-x="578" 
d="M55 521h151v-329q0 -42 15 -61.5t51 -19.5q29 0 56.5 13.5t42.5 27.5v369h151v-521h-130l-11 56q-28 -32 -70 -49.5t-96 -17.5q-160 0 -160 173v359zM211 732q24 0 44 -7t37.5 -15t33.5 -15t33 -7t23.5 9.5t6.5 34.5l76 -4q7 -62 -15.5 -101.5t-75.5 -39.5q-26 0 -47 7
t-39 15t-34 15t-32 7t-24 -9.5t-4 -37.5l-82 3q-8 66 20 105.5t79 39.5z" />
    <glyph glyph-name="Umacron" unicode="&#x16a;" horiz-adv-x="708" 
d="M356 117q38 0 63.5 9.5t40.5 29.5t21.5 51.5t6.5 75.5v441h154v-463q0 -72 -20 -123.5t-58 -85t-92 -49t-122 -15.5q-150 0 -217.5 67.5t-67.5 209.5v459h155v-438q0 -42 6 -74t21.5 -53t42 -31.5t66.5 -10.5zM194 784v103h317v-103h-317z" />
    <glyph glyph-name="umacron" unicode="&#x16b;" horiz-adv-x="578" 
d="M55 521h151v-329q0 -42 15 -61.5t51 -19.5q29 0 56.5 13.5t42.5 27.5v369h151v-521h-130l-11 56q-28 -32 -70 -49.5t-96 -17.5q-160 0 -160 173v359zM131 601v102h311v-102h-311z" />
    <glyph glyph-name="Ubreve" unicode="&#x16c;" horiz-adv-x="708" 
d="M356 117q38 0 63.5 9.5t40.5 29.5t21.5 51.5t6.5 75.5v441h154v-463q0 -72 -20 -123.5t-58 -85t-92 -49t-122 -15.5q-150 0 -217.5 67.5t-67.5 209.5v459h155v-438q0 -42 6 -74t21.5 -53t42 -31.5t66.5 -10.5zM358 861q32 0 50 14.5t26 52.5l96 -6q-8 -81 -55.5 -117
t-121.5 -36q-72 0 -116.5 35.5t-49.5 115.5l100 10q6 -38 22.5 -53.5t48.5 -15.5z" />
    <glyph glyph-name="ubreve" unicode="&#x16d;" horiz-adv-x="578" 
d="M55 521h151v-329q0 -42 15 -61.5t51 -19.5q29 0 56.5 13.5t42.5 27.5v369h151v-521h-130l-11 56q-28 -32 -70 -49.5t-96 -17.5q-160 0 -160 173v359zM462 730q-6 -85 -54 -123t-124 -38q-74 0 -119 37.5t-48 120.5l100 11q5 -42 22 -59.5t50 -17.5q34 0 52.5 16t24.5 60z
" />
    <glyph glyph-name="Uring" unicode="&#x16e;" horiz-adv-x="708" 
d="M356 117q38 0 63.5 9.5t40.5 29.5t21.5 51.5t6.5 75.5v441h154v-463q0 -72 -20 -123.5t-58 -85t-92 -49t-122 -15.5q-150 0 -217.5 67.5t-67.5 209.5v459h155v-438q0 -42 6 -74t21.5 -53t42 -31.5t66.5 -10.5zM469 835q0 -53 -32.5 -80.5t-83.5 -27.5t-83 26.5t-32 77.5
q0 28 9 48.5t25 34.5t37 21t44 7q48 0 82 -26.5t34 -80.5zM353 788q22 0 34.5 12t12.5 37q0 23 -12.5 34.5t-34.5 11.5q-21 0 -35 -11.5t-14 -35.5t13 -36t36 -12z" />
    <glyph glyph-name="uring" unicode="&#x16f;" horiz-adv-x="578" 
d="M55 521h151v-329q0 -42 15 -61.5t51 -19.5q29 0 56.5 13.5t42.5 27.5v369h151v-521h-130l-11 56q-28 -32 -70 -49.5t-96 -17.5q-160 0 -160 173v359zM401 675q0 -51 -31 -78t-82 -27q-50 0 -81 26t-31 75q0 54 33.5 81.5t78.5 27.5q47 0 80 -26.5t33 -78.5zM288 630
q20 0 32 11t12 34q0 21 -12 31.5t-32 10.5q-19 0 -32 -11t-13 -32q0 -23 12.5 -33.5t32.5 -10.5z" />
    <glyph glyph-name="Uhungarumlaut" unicode="&#x170;" horiz-adv-x="708" 
d="M356 117q38 0 63.5 9.5t40.5 29.5t21.5 51.5t6.5 75.5v441h154v-463q0 -72 -20 -123.5t-58 -85t-92 -49t-122 -15.5q-150 0 -217.5 67.5t-67.5 209.5v459h155v-438q0 -42 6 -74t21.5 -53t42 -31.5t66.5 -10.5zM311 768l-97 12l50 135h154zM467 768l-101 8l92 144h162z
" />
    <glyph glyph-name="uhungarumlaut" unicode="&#x171;" horiz-adv-x="578" 
d="M55 521h151v-329q0 -42 15 -61.5t51 -19.5q29 0 56.5 13.5t42.5 27.5v369h151v-521h-130l-11 56q-28 -32 -70 -49.5t-96 -17.5q-160 0 -160 173v359zM254 572l-96 12l44 159h154zM411 572l-101 9l85 166h162z" />
    <glyph glyph-name="Uogonek" unicode="&#x172;" horiz-adv-x="708" 
d="M556 -139q-17 -49 -54.5 -75t-85.5 -26q-57 0 -86.5 25.5t-29.5 72.5q0 40 22.5 72.5t54.5 58.5q-7 -1 -13.5 -1h-13.5q-150 0 -217.5 67.5t-67.5 209.5v459h155v-438q0 -42 6 -74t21.5 -53t42 -31.5t66.5 -10.5q38 0 63.5 9.5t40.5 29.5t21.5 51.5t6.5 75.5v441h154
v-463q0 -49 -9 -86.5t-25.5 -67t-40 -53t-53.5 -42.5q-45 -29 -73.5 -64t-28.5 -65q0 -33 31 -33q14 0 26 9.5t22 31.5z" />
    <glyph glyph-name="uogonek" unicode="&#x173;" horiz-adv-x="578" 
d="M568 -139q-17 -49 -54.5 -75t-85.5 -26q-57 0 -86.5 25.5t-29.5 72.5q0 45 24 79t56 63l-11 56q-28 -32 -70 -49.5t-96 -17.5q-160 0 -160 173v359h151v-329q0 -42 15 -61.5t51 -19.5q29 0 56.5 13.5t42.5 27.5v369h151v-521q-20 -10 -38 -24t-31.5 -29.5t-21 -32
t-7.5 -31.5q0 -33 31 -33q14 0 26 9.5t22 31.5z" />
    <glyph glyph-name="Wcircumflex" unicode="&#x174;" horiz-adv-x="964" 
d="M604 0l-117 499h-4l-116 -499h-203l-156 724h161l102 -558h4l129 558h165l133 -561h5l94 561h155l-155 -724h-197zM485 841l-75 -73l-102 7l107 142h140l102 -142l-100 -6z" />
    <glyph glyph-name="wcircumflex" unicode="&#x175;" horiz-adv-x="813" 
d="M150 0l-154 521h151l95 -366h2l92 366h148l92 -364h3l91 364h147l-155 -521h-170l-84 340h-2l-77 -340h-179zM484 576l-73 94l-76 -95l-101 6l105 164h144l101 -164z" />
    <glyph glyph-name="Ycircumflex" unicode="&#x176;" horiz-adv-x="606" 
d="M388 0h-155v271l-251 453h169l159 -310h5l153 310h156l-236 -451v-273zM310 841l-75 -73l-102 7l107 142h140l102 -142l-100 -6z" />
    <glyph glyph-name="ycircumflex" unicode="&#x177;" horiz-adv-x="526" 
d="M-4 521h163l109 -363h3l105 363h155q-52 -146 -105.5 -293.5t-101.5 -278.5q-17 -46 -34.5 -78.5t-40 -53.5t-52 -30.5t-69.5 -9.5q-31 0 -64 7t-50 15l11 109q21 -7 41.5 -11.5t37.5 -4.5q26 0 44 13t30 43l16 41zM337 576l-73 94l-76 -95l-101 6l105 164h144l101 -164z
" />
    <glyph glyph-name="Ydieresis" unicode="&#x178;" horiz-adv-x="606" 
d="M388 0h-155v271l-251 453h169l159 -310h5l153 310h156l-236 -451v-273zM279 858q0 -38 -24.5 -60.5t-63.5 -22.5q-41 0 -66 22.5t-25 60.5t25 61t66 23q39 0 63.5 -23t24.5 -61zM514 858q0 -38 -24 -60.5t-64 -22.5q-41 0 -65.5 22.5t-24.5 60.5t24.5 61t65.5 23
q40 0 64 -23t24 -61z" />
    <glyph glyph-name="Zacute" unicode="&#x179;" horiz-adv-x="592" 
d="M212 130h351v-130h-536v113l343 482h-334v129h513v-115zM301 768l-107 8l91 140h162z" />
    <glyph glyph-name="zacute" unicode="&#x17a;" horiz-adv-x="466" 
d="M199 121h246v-121h-418v107l240 301h-238v113h402v-107zM255 572l-101 9l75 162h161z" />
    <glyph glyph-name="Zdotaccent" unicode="&#x17b;" horiz-adv-x="592" 
d="M212 130h351v-130h-536v113l343 482h-334v129h513v-115zM372 868q0 -45 -23.5 -69t-67.5 -24q-43 0 -66.5 24t-23.5 69q0 44 23.5 67t66.5 23q44 0 67.5 -23t23.5 -67z" />
    <glyph glyph-name="zdotaccent" unicode="&#x17c;" horiz-adv-x="466" 
d="M199 121h246v-121h-418v107l240 301h-238v113h402v-107zM324 681q0 -44 -23.5 -68t-67.5 -24q-43 0 -66.5 24t-23.5 68t23.5 67.5t66.5 23.5q44 0 67.5 -23.5t23.5 -67.5z" />
    <glyph glyph-name="Zcaron" unicode="&#x17d;" horiz-adv-x="592" 
d="M212 130h351v-130h-536v113l343 482h-334v129h513v-115zM281 846l75 73l102 -7l-107 -142h-140l-102 142l100 6z" />
    <glyph glyph-name="zcaron" unicode="&#x17e;" horiz-adv-x="466" 
d="M199 121h246v-121h-418v107l240 301h-238v113h402v-107zM161 741l73 -93l76 94l99 -6l-105 -164h-144l-101 164z" />
    <glyph glyph-name="longs" unicode="&#x17f;" horiz-adv-x="299" 
d="M358 640q-15 5 -33.5 9t-36.5 4t-32.5 -3.5t-25 -12.5t-16.5 -26t-6 -44v-567h-151v581q0 48 14 83t39 57.5t60.5 33.5t78.5 11q41 0 71.5 -6.5t43.5 -12.5z" />
    <glyph glyph-name="florin" unicode="&#x192;" horiz-adv-x="578" 
d="M475 565q-7 28 -18 48t-39 20q-27 0 -40.5 -15.5t-19.5 -48.5l-23 -121h131l-15 -97h-132l-68 -355q-8 -44 -23 -77.5t-39 -55.5t-58.5 -33t-83.5 -11q-39 0 -67.5 10t-49 28t-33.5 41.5t-20 50.5l120 42q7 -28 18.5 -47t40.5 -19q27 0 39 14.5t19 48.5l69 363h-92l16 97
h93l22 111q9 44 23.5 77.5t38.5 56t58.5 33.5t82.5 11q39 0 67.5 -10t49 -27.5t33 -41t19.5 -50.5z" />
    <glyph glyph-name="Aringacute" unicode="&#x1fa;" horiz-adv-x="709" 
d="M472 798q0 -49 -27 -79l254 -719h-169l-60 176h-241l-56 -176h-159l234 717q-27 30 -27 76q0 30 10 53t27 38t39.5 22.5t48.5 7.5t49 -7.5t40 -22t27 -36t10 -50.5zM348 579h-4l-89 -280h183zM346 747q23 0 37 13t14 40q0 26 -14 38t-37 12t-38.5 -12.5t-15.5 -38.5
t14.5 -39t39.5 -13zM372 941l-107 8l91 140h162z" />
    <glyph glyph-name="aringacute" unicode="&#x1fb;" horiz-adv-x="558" 
d="M481 130q0 -21 5.5 -30.5t25.5 -9.5q11 0 31 6l4 -87q-15 -8 -43.5 -14t-52.5 -6q-45 0 -72 14.5t-35 51.5q-25 -32 -63 -49.5t-92 -17.5q-49 0 -79 14.5t-47 35.5t-23 45t-6 44q0 60 28 96t71.5 55t96.5 25t103 6v19q0 22 -2.5 39.5t-10 30t-22 19t-39.5 6.5
q-38 0 -54.5 -17t-24.5 -55l-128 25q6 37 21 66t41.5 49t65.5 30.5t92 10.5q105 0 157 -43t52 -141v-218zM334 221h-24q-27 -1 -50 -4.5t-39.5 -11t-25.5 -20.5t-9 -33q0 -23 12.5 -40t48.5 -17q27 0 51 11t36 23v92zM383 674q0 -51 -31 -78t-82 -27q-50 0 -81 26t-31 75
q0 54 33.5 81.5t78.5 27.5q47 0 80 -26.5t33 -78.5zM270 629q20 0 32 11t12 34q0 21 -12 31.5t-32 10.5q-19 0 -32 -11t-13 -32q0 -23 12.5 -33.5t32.5 -10.5zM285 804l-107 8l91 140h162z" />
    <glyph glyph-name="AEacute" unicode="&#x1fc;" horiz-adv-x="1003" 
d="M644 130h324v-130h-478v286h-178l-136 -286h-163l353 724h583v-130h-305v-181h287v-125h-287v-158zM490 594h-43l-90 -186h133v186zM682 768l-107 8l91 140h162z" />
    <glyph glyph-name="aeacute" unicode="&#x1fd;" horiz-adv-x="838" 
d="M580 -12q-71 0 -118 21t-76 57q-43 -42 -90 -60t-101 -18q-51 0 -82.5 14.5t-49 35.5t-23.5 45t-6 44q0 61 27 96.5t69.5 54.5t96 24t106.5 5v21q0 22 -2.5 39.5t-10 30t-22 19t-39.5 6.5q-38 0 -54.5 -17t-24.5 -55l-128 25q6 37 21 66t41.5 49t65.5 30.5t92 10.5
t89 -16.5t59 -54.5q26 33 71 52t98 19q56 0 96.5 -17.5t67 -49t39 -76t12.5 -98.5q0 -13 -0.5 -31t-2.5 -32h-317q1 -68 28 -95.5t77 -27.5q41 0 59 20.5t26 53.5l127 -31q-14 -73 -70.5 -116.5t-150.5 -43.5zM247 95q25 0 53.5 11.5t48.5 28.5q-8 20 -12 41.5t-6 44.5h-21
q-27 -1 -50 -4.5t-39.5 -11t-25.5 -20.5t-9 -33q0 -23 12.5 -40t48.5 -17zM648 319q2 58 -18.5 81t-57.5 23q-16 0 -31.5 -5.5t-27.5 -18t-19.5 -32.5t-7.5 -48h162zM454 572l-101 9l75 162h161z" />
    <glyph glyph-name="Oslashacute" unicode="&#x1fe;" horiz-adv-x="760" 
d="M409 768l-107 8l91 140h162zM375 -12q-40 0 -76 6l-27 -66h-143l46 112q-72 48 -104.5 130.5t-32.5 188.5q0 81 22 150t66.5 119.5t110.5 79.5t154 29q39 0 72 -6l27 63h142l-46 -110q71 -48 104 -130t33 -181q0 -88 -21.5 -159t-64.5 -121.5t-108.5 -77.5t-153.5 -27z
M197 362q0 -59 10 -102t30 -73l174 418q-5 1 -11 1.5t-12 0.5q-88 0 -139.5 -59.5t-51.5 -185.5zM381 118q40 0 74 13.5t58 42.5t37.5 76t13.5 114q0 57 -10 100t-29 73l-174 -418q8 -1 15 -1h15z" />
    <glyph glyph-name="oslashacute" unicode="&#x1ff;" horiz-adv-x="587" 
d="M322 572l-101 9l75 162h161zM288 -12q-18 0 -34 1.5t-31 3.5l-28 -65h-106l43 99q-54 35 -76 94.5t-22 136.5q0 63 16.5 113.5t49.5 86t83.5 55t118.5 19.5q14 0 27 -1t25 -3l26 58h105l-39 -88q57 -32 82 -91.5t25 -137.5q0 -64 -15 -116t-47.5 -88.5t-82.5 -56.5
t-120 -20zM295 100q25 0 43.5 8.5t31.5 28t19.5 50.5t6.5 77q0 59 -12 94l-113 -256q6 -1 11.5 -1.5t12.5 -0.5zM192 262q0 -52 7 -84l106 240h-7q-51 0 -78.5 -35.5t-27.5 -120.5z" />
    <glyph glyph-name="Scommaaccent" unicode="&#x218;" horiz-adv-x="596" 
d="M300 618q-56 0 -82 -21t-26 -56q0 -28 16 -46t42.5 -30.5t60.5 -22t69 -20.5t69 -25.5t60.5 -38t42.5 -57.5t16 -84q0 -62 -23 -105t-61.5 -71t-88.5 -40.5t-104 -12.5q-49 0 -97 9.5t-87 35t-65 70t-31 115.5l140 21q4 -26 12.5 -49.5t24.5 -41t41.5 -28t65.5 -10.5
q24 0 45.5 4.5t38 15t26.5 27.5t10 42q0 28 -16 45.5t-42.5 29.5t-60.5 20.5t-69.5 18.5t-69.5 24t-60.5 37.5t-42.5 58.5t-16 86q0 53 20.5 93.5t56.5 68.5t84 42t103 14q48 0 93 -9t80 -32.5t58 -65t27 -105.5l-141 -16q-2 25 -9 45.5t-21 34.5t-35.5 21.5t-53.5 7.5z
M241 -68h140l-83 -206l-103 15z" />
    <glyph glyph-name="scommaaccent" unicode="&#x219;" horiz-adv-x="501" 
d="M257 532q89 0 139 -36t69 -102l-124 -39q-10 33 -29 52t-61 19q-66 0 -66 -46q0 -14 8 -23.5t22 -15.5t33.5 -10t42.5 -8q34 -6 67 -14.5t58.5 -25t41.5 -45t16 -74.5q0 -45 -18 -78t-48.5 -54.5t-72.5 -32.5t-90 -11q-101 0 -154.5 39t-67.5 104l123 40q4 -15 11 -29
t19 -25.5t29.5 -18t44.5 -6.5q75 0 75 49q0 29 -25.5 38.5t-71.5 17.5q-34 6 -67.5 15t-60.5 26.5t-43.5 46.5t-16.5 77q0 43 17.5 75t47.5 53t69 31.5t83 10.5zM195 -68h140l-83 -206l-103 15z" />
    <glyph glyph-name="uni021A" unicode="&#x21a;" horiz-adv-x="595" 
d="M221 0v594h-213v130h579v-130h-211v-594h-155zM237 -68h140l-83 -206l-103 15z" />
    <glyph glyph-name="uni021B" unicode="&#x21b;" horiz-adv-x="412" 
d="M404 25q-20 -13 -61.5 -25t-91.5 -12q-82 0 -124 39.5t-42 129.5v254h-78v110h78v154l151 20v-174h138v-110h-138v-233q0 -35 12.5 -52.5t48.5 -17.5q23 0 47 7.5t39 16.5zM173 -68h140l-83 -206l-103 15z" />
    <glyph glyph-name="dotlessj" unicode="&#x237;" horiz-adv-x="266" 
d="M25 -223q-41 0 -75 9t-48 19l11 113q13 -6 35.5 -13t46.5 -7q27 0 46 15.5t19 62.5v545h151v-562q0 -49 -13.5 -83.5t-38 -56.5t-59 -32t-75.5 -10z" />
    <glyph glyph-name="apostrophe" unicode="&#x2bc;" horiz-adv-x="500" 
d="M201 713h140l-83 -206l-104 14z" />
    <glyph glyph-name="circumflex" unicode="&#x2c6;" horiz-adv-x="500" 
d="M324 576l-73 94l-76 -95l-101 6l105 164h144l101 -164z" />
    <glyph glyph-name="caron" unicode="&#x2c7;" horiz-adv-x="500" 
d="M178 741l73 -93l76 94l99 -6l-105 -164h-144l-101 164z" />
    <glyph glyph-name="uni02C9" unicode="&#x2c9;" horiz-adv-x="500" 
d="M94 599v102h311v-102h-311z" />
    <glyph glyph-name="breve" unicode="&#x2d8;" horiz-adv-x="500" 
d="M426 730q-6 -85 -54 -123t-124 -38q-74 0 -119 37.5t-48 120.5l100 11q5 -42 22 -59.5t50 -17.5q34 0 52.5 16t24.5 60z" />
    <glyph glyph-name="dotaccent" unicode="&#x2d9;" horiz-adv-x="500" 
d="M341 681q0 -44 -23.5 -68t-67.5 -24q-43 0 -66.5 24t-23.5 68t23.5 67.5t66.5 23.5q44 0 67.5 -23.5t23.5 -67.5z" />
    <glyph glyph-name="ring" unicode="&#x2da;" horiz-adv-x="500" 
d="M363 675q0 -51 -31 -78t-82 -27q-50 0 -81 26t-31 75q0 54 33.5 81.5t78.5 27.5q47 0 80 -26.5t33 -78.5zM250 630q20 0 32 11t12 34q0 21 -12 31.5t-32 10.5q-19 0 -32 -11t-13 -32q0 -23 12.5 -33.5t32.5 -10.5z" />
    <glyph glyph-name="ogonek" unicode="&#x2db;" horiz-adv-x="500" 
d="M382 -139q-17 -49 -54.5 -75t-85.5 -26q-57 0 -86.5 25.5t-29.5 72.5q0 27 11 50.5t29 44t40.5 38t45.5 32.5l71 -17q-38 -37 -61.5 -65t-23.5 -58q0 -33 31 -33q14 0 26 9.5t22 31.5z" />
    <glyph glyph-name="tilde" unicode="&#x2dc;" horiz-adv-x="500" 
d="M173 732q24 0 44 -7t37.5 -15t33.5 -15t33 -7t23.5 9.5t6.5 34.5l76 -4q7 -62 -15.5 -101.5t-75.5 -39.5q-26 0 -47 7t-39 15t-34 15t-32 7t-24 -9.5t-4 -37.5l-82 3q-8 66 20 105.5t79 39.5z" />
    <glyph glyph-name="hungarumlaut" unicode="&#x2dd;" horiz-adv-x="500" 
d="M216 572l-96 12l44 159h154zM373 572l-101 9l85 166h162z" />
    <glyph glyph-name="uni0394" unicode="&#x394;" horiz-adv-x="715" 
d="M9 0l258 724h178l261 -724h-697zM191 124h297l-141 441h-7z" />
    <glyph glyph-name="uni03A9" unicode="&#x3a9;" horiz-adv-x="830" 
d="M566 130h184v-130h-287v219q24 10 49.5 23.5t46.5 37t35 59t14 89.5q0 48 -13 83t-37 57t-57.5 32.5t-74.5 10.5q-40 0 -74 -12.5t-58.5 -37t-38 -60.5t-13.5 -84q0 -43 9.5 -74.5t26.5 -54.5t41 -39t53 -29v-220h-285v130h181v22q-91 34 -138 100t-47 163q0 71 24 130
t68.5 102t108.5 66.5t144 23.5q86 0 149 -21.5t104.5 -61.5t61.5 -97t20 -127q0 -56 -16.5 -100t-43.5 -78t-62.5 -59t-74.5 -41v-22z" />
    <glyph glyph-name="uni03BC" unicode="&#x3bc;" horiz-adv-x="629" 
d="M81 521h151v-330q0 -43 11.5 -62.5t43.5 -19.5t58.5 14.5t43.5 28.5v369h151v-521h-125l-5 54h-5q-35 -34 -77.5 -50t-99.5 -5l-1 -1l10 -174h-156v697z" />
    <glyph glyph-name="pi" unicode="&#x3c0;" horiz-adv-x="671" 
d="M562 0h-151v410h-152v-410h-150v521h453v-521z" />
    <glyph glyph-name="Wgrave" unicode="&#x1e80;" horiz-adv-x="964" 
d="M604 0l-117 499h-4l-116 -499h-203l-156 724h161l102 -558h4l129 558h165l133 -561h5l94 561h155l-155 -724h-197zM317 916h162l91 -140l-107 -8z" />
    <glyph glyph-name="wgrave" unicode="&#x1e81;" horiz-adv-x="813" 
d="M150 0l-154 521h151l95 -366h2l92 366h148l92 -364h3l91 364h147l-155 -521h-170l-84 340h-2l-77 -340h-179zM255 743h162l74 -162l-101 -9z" />
    <glyph glyph-name="Wacute" unicode="&#x1e82;" horiz-adv-x="964" 
d="M604 0l-117 499h-4l-116 -499h-203l-156 724h161l102 -558h4l129 558h165l133 -561h5l94 561h155l-155 -724h-197zM502 768l-107 8l91 140h162z" />
    <glyph glyph-name="wacute" unicode="&#x1e83;" horiz-adv-x="813" 
d="M150 0l-154 521h151l95 -366h2l92 366h148l92 -364h3l91 364h147l-155 -521h-170l-84 340h-2l-77 -340h-179zM432 572l-101 9l75 162h161z" />
    <glyph glyph-name="Wdieresis" unicode="&#x1e84;" horiz-adv-x="964" 
d="M604 0l-117 499h-4l-116 -499h-203l-156 724h161l102 -558h4l129 558h165l133 -561h5l94 561h155l-155 -724h-197zM454 858q0 -38 -24.5 -60.5t-63.5 -22.5q-41 0 -66 22.5t-25 60.5t25 61t66 23q39 0 63.5 -23t24.5 -61zM689 858q0 -38 -24 -60.5t-64 -22.5
q-41 0 -65.5 22.5t-24.5 60.5t24.5 61t65.5 23q40 0 64 -23t24 -61z" />
    <glyph glyph-name="wdieresis" unicode="&#x1e85;" horiz-adv-x="813" 
d="M150 0l-154 521h151l95 -366h2l92 366h148l92 -364h3l91 364h147l-155 -521h-170l-84 340h-2l-77 -340h-179zM381 679q0 -38 -24.5 -60.5t-63.5 -22.5q-41 0 -66 22.5t-25 60.5t25 61t66 23q39 0 63.5 -23t24.5 -61zM616 679q0 -38 -24 -60.5t-64 -22.5q-41 0 -65.5 22.5
t-24.5 60.5t24.5 61t65.5 23q40 0 64 -23t24 -61z" />
    <glyph glyph-name="Ygrave" unicode="&#x1ef2;" horiz-adv-x="606" 
d="M388 0h-155v271l-251 453h169l159 -310h5l153 310h156l-236 -451v-273zM142 916h162l91 -140l-107 -8z" />
    <glyph glyph-name="ygrave" unicode="&#x1ef3;" horiz-adv-x="526" 
d="M-4 521h163l109 -363h3l105 363h155q-52 -146 -105.5 -293.5t-101.5 -278.5q-17 -46 -34.5 -78.5t-40 -53.5t-52 -30.5t-69.5 -9.5q-31 0 -64 7t-50 15l11 109q21 -7 41.5 -11.5t37.5 -4.5q26 0 44 13t30 43l16 41zM108 743h162l74 -162l-101 -9z" />
    <glyph glyph-name="thinspace" unicode="&#x2009;" horiz-adv-x="125" 
 />
    <glyph glyph-name="endash" unicode="&#x2013;" horiz-adv-x="500" 
d="M0 225v111h500v-111h-500z" />
    <glyph glyph-name="emdash" unicode="&#x2014;" horiz-adv-x="1000" 
d="M0 225v111h1000v-111h-1000z" />
    <glyph glyph-name="quoteleft" unicode="&#x2018;" horiz-adv-x="218" 
d="M164 546h-145l89 245l109 -12z" />
    <glyph glyph-name="quoteright" unicode="&#x2019;" horiz-adv-x="218" 
d="M71.0303 774.1h144.974l-88.9844 -244.955l-108.979 11.998z" />
    <glyph glyph-name="quotesinglbase" unicode="&#x201a;" horiz-adv-x="214" 
d="M55.0303 95.0996h144.974l-88.9844 -244.955l-108.979 11.998z" />
    <glyph glyph-name="quotedblleft" unicode="&#x201c;" horiz-adv-x="401" 
d="M348 546h-145l89 245l109 -12zM164 546h-145l89 245l109 -12z" />
    <glyph glyph-name="quotedblright" unicode="&#x201d;" horiz-adv-x="401" 
d="M253.03 774.1h144.974l-88.9844 -244.955l-108.979 11.998zM71.0303 774.1h144.974l-88.9844 -244.955l-108.979 11.998z" />
    <glyph glyph-name="quotedblbase" unicode="&#x201e;" horiz-adv-x="399" 
d="M55.0303 95.0996h144.974l-88.9844 -244.955l-108.979 11.998zM239.03 95.0996h144.974l-88.9844 -244.955l-108.979 11.998z" />
    <glyph glyph-name="dagger" unicode="&#x2020;" horiz-adv-x="440" 
d="M270 459l19 -542h-138l18 543l-149 -16v122l149 -16l-15 174h132l-16 -173l150 15v-122z" />
    <glyph glyph-name="daggerdbl" unicode="&#x2021;" horiz-adv-x="446" 
d="M274 459v-278l149 16v-122l-149 16l15 -174h-132l16 173l-150 -15v122l149 -15v278l-149 -16v122l149 -16l-15 174h132l-16 -173l150 15v-122z" />
    <glyph glyph-name="bullet" unicode="&#x2022;" horiz-adv-x="460" 
d="M381 279q0 -74 -38.5 -110t-112.5 -36q-73 0 -112 36t-39 110t39 110.5t112 36.5q74 0 112.5 -36.5t38.5 -110.5z" />
    <glyph glyph-name="ellipsis" unicode="&#x2026;" horiz-adv-x="722" 
d="M219 76q0 -88 -93 -88t-93 88q0 89 93 89t93 -89zM457 76q0 -88 -93 -88t-93 88q0 89 93 89t93 -89zM690 76q0 -88 -93 -88t-93 88q0 89 93 89t93 -89z" />
    <glyph glyph-name="perthousand" unicode="&#x2030;" horiz-adv-x="1065" 
d="M187 412q-42 0 -70.5 11.5t-46.5 32.5t-26 50t-8 64q0 81 40.5 124t117.5 43q79 0 115 -41.5t36 -116.5q0 -79 -40.5 -123t-117.5 -44zM73 -13l438 737h132l-437 -737h-133zM191 491q26 0 37.5 19t11.5 67q0 43 -11 61.5t-37 18.5t-38.5 -19.5t-12.5 -61.5
q0 -46 12 -65.5t38 -19.5zM534 -12q-42 0 -70.5 11.5t-46.5 32.5t-26 50t-8 64q0 81 40.5 124t117.5 43q79 0 115 -41.5t36 -116.5q0 -79 -40.5 -123t-117.5 -44zM537 68q26 0 38 18.5t12 66.5q0 43 -11.5 61t-37.5 18t-38 -19t-12 -61q0 -46 11.5 -65t37.5 -19zM871 -12
q-42 0 -70.5 11.5t-46.5 32.5t-26 50t-8 64q0 81 40.5 124t117.5 43q79 0 115 -41.5t36 -116.5q0 -79 -40.5 -123t-117.5 -44zM874 68q26 0 38 18.5t12 66.5q0 43 -11.5 61t-37.5 18t-38 -19t-12 -61q0 -46 11.5 -65t37.5 -19z" />
    <glyph glyph-name="guilsinglleft" unicode="&#x2039;" horiz-adv-x="279" 
d="M123 103l-86 154l89 151h122l-88 -147l84 -158h-121z" />
    <glyph glyph-name="guilsinglright" unicode="&#x203a;" horiz-adv-x="279" 
d="M153 408l89 -153l-87 -152h-120l84 153l-88 152h122z" />
    <glyph glyph-name="fraction" unicode="&#x2044;" horiz-adv-x="184" 
d="M-160 -12l354 736h138l-353 -736h-139z" />
    <glyph glyph-name="zerosuperior" unicode="&#x2070;" horiz-adv-x="430" 
d="M212 342q-91 0 -136 56.5t-45 180.5q0 121 50 175.5t138 54.5q96 0 138 -54.5t42 -173.5q0 -126 -45.5 -182.5t-141.5 -56.5zM215 440q13 0 21.5 6t14 22t8 42.5t2.5 67.5q0 40 -2 66t-7.5 41t-14 21t-20.5 6q-13 0 -22 -5.5t-14.5 -20.5t-8 -41t-2.5 -67t2 -67.5
t7.5 -42.5t14 -22t21.5 -6z" />
    <glyph glyph-name="foursuperior" unicode="&#x2074;" horiz-adv-x="432" 
d="M235 349v92h-208v89l176 271h159v-260h52v-100h-51v-92h-128zM235 541v150l-98 -150h98z" />
    <glyph glyph-name="fivesuperior" unicode="&#x2075;" horiz-adv-x="411" 
d="M67 801h270v-105h-179l-12 -90l2 -4q16 16 39 26t54 10q57 0 90.5 -34t33.5 -103q0 -39 -14 -68.5t-38 -50t-57 -30.5t-71 -10q-30 0 -58 6t-50.5 21t-38 39t-19.5 60l112 19q2 -27 16 -39t37 -12t37.5 15.5t14.5 42.5q0 32 -14.5 43t-31.5 11q-18 0 -30.5 -7t-22.5 -17
l-86 27z" />
    <glyph glyph-name="sixsuperior" unicode="&#x2076;" horiz-adv-x="430" 
d="M279 670q-3 26 -13 37t-29 11q-29 0 -47 -31t-19 -99q15 16 40.5 27.5t60.5 11.5q23 0 45 -6.5t39.5 -21.5t28 -39.5t10.5 -60.5q0 -42 -14 -72t-38 -49t-55.5 -27.5t-66.5 -8.5q-52 0 -85.5 18.5t-53 49t-27.5 71.5t-8 86q0 41 8.5 84t31 78t60.5 57.5t98 22.5
q26 0 50 -5t44.5 -18t35 -35.5t20.5 -56.5zM177 521q1 -41 10.5 -63.5t37.5 -22.5q20 0 29.5 15.5t9.5 38.5q0 26 -8 40.5t-31 14.5q-14 0 -27 -7.5t-21 -15.5z" />
    <glyph glyph-name="sevensuperior" unicode="&#x2077;" horiz-adv-x="379" 
d="M43 349l174 347h-186v105h323v-95l-171 -357h-140z" />
    <glyph glyph-name="eightsuperior" unicode="&#x2078;" horiz-adv-x="419" 
d="M303 604q45 -18 70 -45t25 -75q0 -28 -13 -54t-38 -45.5t-61.5 -31t-83.5 -11.5q-88 0 -133.5 33.5t-45.5 86.5q0 45 25 71t67 43q-37 14 -55.5 41.5t-18.5 63.5q0 31 14 55t37.5 40.5t55 24.5t67.5 8q80 0 123 -28t43 -78q0 -32 -18 -57t-60 -42zM180 536
q-36 -23 -36 -55q0 -22 15.5 -35t44.5 -13q21 0 36.5 9.5t15.5 30.5q0 23 -20.5 37t-55.5 26zM234 639q14 9 23.5 22t9.5 28q0 17 -13.5 26t-33.5 9q-21 0 -32.5 -9.5t-11.5 -23.5q0 -29 58 -52z" />
    <glyph glyph-name="ninesuperior" unicode="&#x2079;" horiz-adv-x="427" 
d="M147 488q4 -23 13.5 -38.5t35.5 -15.5q29 0 46.5 30t18.5 95q-15 -13 -40.5 -23t-56.5 -10q-25 0 -48 6.5t-41 22t-28.5 40.5t-10.5 61q0 41 14.5 70t39.5 47.5t57 27t67 8.5q49 0 82 -16.5t52.5 -46.5t27.5 -71.5t8 -90.5q0 -38 -7 -80.5t-28 -78.5t-59 -59.5t-99 -23.5
q-29 0 -55 5t-47.5 18.5t-36.5 35.5t-21 57zM251 623q-2 43 -10 68t-35 25q-21 0 -30 -15.5t-9 -36.5q0 -25 9 -42.5t32 -17.5q26 0 43 19z" />
    <glyph glyph-name="plussuperior" unicode="&#x207a;" horiz-adv-x="443" 
d="M171 433v86h-84v95h84v83h99v-83h85v-95h-85v-86h-99z" />
    <glyph glyph-name="minussuperior" unicode="&#x207b;" horiz-adv-x="443" 
d="M92 521v94h260v-94h-260z" />
    <glyph glyph-name="equalsuperior" unicode="&#x207c;" horiz-adv-x="445" 
d="M92 430v94h261v-94h-261zM92 564v94h261v-94h-261z" />
    <glyph glyph-name="parenleftsuperior" unicode="&#x207d;" horiz-adv-x="292" 
d="M141 276q-19 23 -36.5 52.5t-31.5 64t-22.5 73t-8.5 80.5q0 84 30 150t78 128h128q-20 -26 -38.5 -55t-32.5 -62t-22.5 -72t-8.5 -86q0 -44 8.5 -82.5t22.5 -72t31.5 -62.5t34.5 -55z" />
    <glyph glyph-name="parenrightsuperior" unicode="&#x207e;" horiz-adv-x="309" 
d="M18 823q33 0 66 0.5t66 0.5q19 -24 37 -54t32.5 -64.5t23 -73.5t8.5 -81t-8 -79t-22 -70.5t-33.5 -64.5t-42.5 -61h-129q19 25 37 52.5t32.5 60.5t23 72.5t8.5 87.5q0 43 -8.5 81t-22.5 71.5t-32 64t-36 57.5z" />
    <glyph glyph-name="zeroinferior" unicode="&#x2080;" horiz-adv-x="430" 
d="M212 -152q-91 0 -136 56.5t-45 180.5q0 121 50 175.5t138 54.5q96 0 138 -54.5t42 -173.5q0 -126 -45.5 -182.5t-141.5 -56.5zM215 -54q13 0 21.5 6t14 22t8 42.5t2.5 67.5q0 40 -2 66t-7.5 41t-14 21t-20.5 6q-13 0 -22 -5.5t-14.5 -20.5t-8 -41t-2.5 -67t2 -67.5
t7.5 -42.5t14 -22t21.5 -6z" />
    <glyph glyph-name="oneinferior" unicode="&#x2081;" horiz-adv-x="328" 
d="M137 -147v314q-8 -4 -22 -7t-29 -5.5t-28.5 -4t-21.5 -1.5l-5 104q42 3 80 15.5t62 36.5h97v-452h-133z" />
    <glyph glyph-name="twoinferior" unicode="&#x2082;" horiz-adv-x="405" 
d="M203 315q83 0 120.5 -33.5t37.5 -86.5q0 -27 -8 -49.5t-24.5 -45t-42 -46.5t-61.5 -54l-32 -33v-4h175v-108h-327v108l97 97q25 25 42.5 44t28 33t15 25.5t4.5 23.5q0 34 -34 34q-43 0 -50 -57l-114 15q4 36 19 62t38.5 42.5t53 24.5t62.5 8z" />
    <glyph glyph-name="threeinferior" unicode="&#x2083;" horiz-adv-x="412" 
d="M136 -7q3 -28 16 -39t36 -11q21 0 34.5 11.5t13.5 36.5q0 27 -12.5 38.5t-44.5 11.5h-50v86h31q36 0 53 16t17 43q0 17 -9 26.5t-29 9.5q-21 0 -32.5 -12t-16.5 -35l-110 20q6 35 23 58t40 37t51.5 19.5t57.5 5.5q74 0 114.5 -27.5t40.5 -81.5q0 -23 -7.5 -40.5
t-19.5 -30t-27.5 -22t-32.5 -15.5v-3q98 -20 98 -107q0 -34 -13.5 -60t-38 -44t-57.5 -27t-72 -9q-29 0 -57 5.5t-51 20t-39.5 38.5t-20.5 60z" />
    <glyph glyph-name="fourinferior" unicode="&#x2084;" horiz-adv-x="432" 
d="M235 -145v92h-208v89l176 271h159v-260h52v-100h-51v-92h-128zM235 47v150l-98 -150h98z" />
    <glyph glyph-name="fiveinferior" unicode="&#x2085;" horiz-adv-x="411" 
d="M67 307h270v-105h-179l-12 -90l2 -4q16 16 39 26t54 10q57 0 90.5 -34t33.5 -103q0 -39 -14 -68.5t-38 -50t-57 -30.5t-71 -10q-30 0 -58 6t-50.5 21t-38 39t-19.5 60l112 19q2 -27 16 -39t37 -12t37.5 15.5t14.5 42.5q0 32 -14.5 43t-31.5 11q-18 0 -30.5 -7t-22.5 -17
l-86 27z" />
    <glyph glyph-name="sixinferior" unicode="&#x2086;" horiz-adv-x="430" 
d="M279 176q-3 26 -13 37t-29 11q-29 0 -47 -31t-19 -99q15 16 40.5 27.5t60.5 11.5q23 0 45 -6.5t39.5 -21.5t28 -39.5t10.5 -60.5q0 -42 -14 -72t-38 -49t-55.5 -27.5t-66.5 -8.5q-52 0 -85.5 18.5t-53 49t-27.5 71.5t-8 86q0 41 8.5 84t31 78t60.5 57.5t98 22.5
q26 0 50 -5t44.5 -18t35 -35.5t20.5 -56.5zM177 27q1 -41 10.5 -63.5t37.5 -22.5q20 0 29.5 15.5t9.5 38.5q0 26 -8 40.5t-31 14.5q-14 0 -27 -7.5t-21 -15.5z" />
    <glyph glyph-name="seveninferior" unicode="&#x2087;" horiz-adv-x="379" 
d="M43 -145l174 347h-186v105h323v-95l-171 -357h-140z" />
    <glyph glyph-name="eightinferior" unicode="&#x2088;" horiz-adv-x="419" 
d="M303 110q45 -18 70 -45t25 -75q0 -28 -13 -54t-38 -45.5t-61.5 -31t-83.5 -11.5q-88 0 -133.5 33.5t-45.5 86.5q0 45 25 71t67 43q-37 14 -55.5 41.5t-18.5 63.5q0 31 14 55t37.5 40.5t55 24.5t67.5 8q80 0 123 -28t43 -78q0 -32 -18 -57t-60 -42zM180 42
q-36 -23 -36 -55q0 -22 15.5 -35t44.5 -13q21 0 36.5 9.5t15.5 30.5q0 23 -20.5 37t-55.5 26zM234 145q14 9 23.5 22t9.5 28q0 17 -13.5 26t-33.5 9q-21 0 -32.5 -9.5t-11.5 -23.5q0 -29 58 -52z" />
    <glyph glyph-name="nineinferior" unicode="&#x2089;" horiz-adv-x="427" 
d="M147 -6q4 -23 13.5 -38.5t35.5 -15.5q29 0 46.5 30t18.5 95q-15 -13 -40.5 -23t-56.5 -10q-25 0 -48 6.5t-41 22t-28.5 40.5t-10.5 61q0 41 14.5 70t39.5 47.5t57 27t67 8.5q49 0 82 -16.5t52.5 -46.5t27.5 -71.5t8 -90.5q0 -38 -7 -80.5t-28 -78.5t-59 -59.5t-99 -23.5
q-29 0 -55 5t-47.5 18.5t-36.5 35.5t-21 57zM251 129q-2 43 -10 68t-35 25q-21 0 -30 -15.5t-9 -36.5q0 -25 9 -42.5t32 -17.5q26 0 43 19z" />
    <glyph glyph-name="parenleftinferior" unicode="&#x208d;" horiz-adv-x="292" 
d="M141 -218q-19 23 -36.5 52.5t-31.5 64t-22.5 73t-8.5 80.5q0 84 30 150t78 128h128q-20 -26 -38.5 -55t-32.5 -62t-22.5 -72t-8.5 -86q0 -44 8.5 -82.5t22.5 -72t31.5 -62.5t34.5 -55z" />
    <glyph glyph-name="parenrightinferior" unicode="&#x208e;" horiz-adv-x="309" 
d="M18 329q33 0 66 0.5t66 0.5q19 -24 37 -54t32.5 -64.5t23 -73.5t8.5 -81t-8 -79t-22 -70.5t-33.5 -64.5t-42.5 -61h-129q19 25 37 52.5t32.5 60.5t23 72.5t8.5 87.5q0 43 -8.5 81t-22.5 71.5t-32 64t-36 57.5z" />
    <glyph glyph-name="Euro" unicode="&#x20ac;" horiz-adv-x="645" 
d="M372 -12q-117 0 -183 61t-86 186h-93l15 88h70v62h-62l15 88h56q23 128 94.5 196.5t188.5 68.5q49 0 91.5 -12.5t74 -40.5t50.5 -73.5t22 -111.5l-132 -14q-5 71 -29 99.5t-78 28.5q-57 0 -88.5 -36t-43.5 -105h194l-15 -88h-187v-62h179l-15 -88h-154q13 -63 42.5 -92.5
t80.5 -29.5q29 0 48.5 7.5t33 22.5t21.5 36.5t14 48.5l126 -22q-8 -64 -33.5 -106t-60.5 -67t-76 -35t-80 -10z" />
    <glyph glyph-name="afii61352" unicode="&#x2116;" horiz-adv-x="1067" 
d="M425 0l-207 503v-503h-141v724h185l201 -506v506h140v-724h-178zM682 335h330v-93h-330v93zM843 371q-50 0 -84.5 13t-57 37t-32.5 56.5t-10 71.5q0 82 46.5 131t143.5 49q49 0 83.5 -13t56 -36t31.5 -54.5t10 -69.5q0 -84 -45 -134.5t-142 -50.5zM845 462q29 0 45.5 18
t16.5 72q0 52 -15.5 70t-43.5 18q-29 0 -47.5 -17.5t-18.5 -70.5q0 -54 17 -72t46 -18z" />
    <glyph glyph-name="trademark" unicode="&#x2122;" horiz-adv-x="856" 
d="M717 348v239l-89 -239h-63l-87 240v-239h-72v375h92l102 -284l103 284h87v-376h-73zM239 348h-80v308h-118v68h317v-68h-119v-308z" />
    <glyph glyph-name="Omega" unicode="&#x2126;" horiz-adv-x="830" 
d="M566 130h184v-130h-287v219q24 10 49.5 23.5t46.5 37t35 59t14 89.5q0 48 -13 83t-37 57t-57.5 32.5t-74.5 10.5q-40 0 -74 -12.5t-58.5 -37t-38 -60.5t-13.5 -84q0 -43 9.5 -74.5t26.5 -54.5t41 -39t53 -29v-220h-285v130h181v22q-91 34 -138 100t-47 163q0 71 24 130
t68.5 102t108.5 66.5t144 23.5q86 0 149 -21.5t104.5 -61.5t61.5 -97t20 -127q0 -56 -16.5 -100t-43.5 -78t-62.5 -59t-74.5 -41v-22z" />
    <glyph glyph-name="onethird" unicode="&#x2153;" horiz-adv-x="1012" 
d="M231 -12l354 736h138l-353 -736h-139zM153 281v314q-8 -4 -22 -7t-29 -5.5t-28.5 -4t-21.5 -1.5l-5 104q42 3 80 15.5t62 36.5h97v-452h-133zM725 140q3 -28 16 -39t36 -11q21 0 34.5 11.5t13.5 36.5q0 27 -12.5 38.5t-44.5 11.5h-50v86h31q36 0 53 16t17 43
q0 17 -9 26.5t-29 9.5q-21 0 -32.5 -12t-16.5 -35l-110 20q6 35 23 58t40 37t51.5 19.5t57.5 5.5q74 0 114.5 -27.5t40.5 -81.5q0 -23 -7.5 -40.5t-19.5 -30t-27.5 -22t-32.5 -15.5v-3q98 -20 98 -107q0 -34 -13.5 -60t-38 -44t-57.5 -27t-72 -9q-29 0 -57 5.5t-51 20
t-39.5 38.5t-20.5 60z" />
    <glyph glyph-name="twothirds" unicode="&#x2154;" horiz-adv-x="1012" 
d="M269 -12l354 736h138l-353 -736h-139zM203 743q83 0 120.5 -33.5t37.5 -86.5q0 -27 -8 -49.5t-24.5 -45t-42 -46.5t-61.5 -54l-32 -33v-4h175v-108h-327v108l97 97q25 25 42.5 44t28 33t15 25.5t4.5 23.5q0 34 -34 34q-43 0 -50 -57l-114 15q4 36 19 62t38.5 42.5
t53 24.5t62.5 8zM751 140q3 -28 16 -39t36 -11q21 0 34.5 11.5t13.5 36.5q0 27 -12.5 38.5t-44.5 11.5h-50v86h31q36 0 53 16t17 43q0 17 -9 26.5t-29 9.5q-21 0 -32.5 -12t-16.5 -35l-110 20q6 35 23 58t40 37t51.5 19.5t57.5 5.5q74 0 114.5 -27.5t40.5 -81.5
q0 -23 -7.5 -40.5t-19.5 -30t-27.5 -22t-32.5 -15.5v-3q98 -20 98 -107q0 -34 -13.5 -60t-38 -44t-57.5 -27t-72 -9q-29 0 -57 5.5t-51 20t-39.5 38.5t-20.5 60z" />
    <glyph glyph-name="partialdiff" unicode="&#x2202;" horiz-adv-x="577" 
d="M382 374q4 38 -0.5 72t-18 59.5t-37 40.5t-56.5 15q-39 0 -77 -16t-65 -36l-59 92q42 32 101 53t125 21q70 0 116 -25.5t72.5 -67.5t37 -97t10.5 -113q0 -71 -12 -140t-42 -123t-82 -87.5t-133 -33.5q-106 0 -166 53t-60 153q0 52 14.5 92.5t41.5 68.5t65 43t84 15
q48 0 83 -12.5t58 -26.5zM374 277q-20 12 -44.5 22.5t-53.5 10.5q-50 0 -68.5 -30t-18.5 -80q0 -18 3.5 -35.5t12.5 -32t24 -23t38 -8.5q30 0 50 15t32 40t17.5 56.5t7.5 64.5z" />
    <glyph glyph-name="Delta" unicode="&#x2206;" horiz-adv-x="715" 
d="M9 0l258 724h178l261 -724h-697zM191 124h297l-141 441h-7z" />
    <glyph glyph-name="product" unicode="&#x220f;" horiz-adv-x="788" 
d="M684 -162h-154v758h-274v-758h-155v886h583v-886z" />
    <glyph glyph-name="summation" unicode="&#x2211;" horiz-adv-x="627" 
d="M184 -41h384v-135h-558v105l222 350l-213 354v91h546v-121h-358l183 -316z" />
    <glyph glyph-name="minus" unicode="&#x2212;" 
d="M92 264v119h387v-119h-387z" />
    <glyph glyph-name="uni2215" unicode="&#x2215;" horiz-adv-x="454" 
d="M8 -17l313 648h129l-312 -648h-130z" />
    <glyph glyph-name="uni2219" unicode="&#x2219;" horiz-adv-x="289" 
d="M236 308q0 -42 -23.5 -64t-69.5 -22q-93 0 -93 86q0 42 23.5 64.5t69.5 22.5t69.5 -22.5t23.5 -64.5z" />
    <glyph glyph-name="radical" unicode="&#x221a;" 
d="M240 0l-122 211q-4 7 -12 5l-64 -17l-39 89l167 81l120 -225l160 603l121 -32l-192 -715h-139z" />
    <glyph glyph-name="infinity" unicode="&#x221e;" horiz-adv-x="672" 
d="M335 251q-23 -26 -60 -48.5t-87 -22.5q-29 0 -55.5 8t-46.5 25.5t-31.5 44t-11.5 64.5q0 34 12 60.5t32.5 44.5t48 27.5t58.5 9.5q49 0 83.5 -22t61.5 -49q13 13 28.5 25.5t33.5 22.5t39 16.5t46 6.5q30 0 56 -8.5t45.5 -26t30.5 -44.5t11 -65q0 -33 -11.5 -59.5t-31 -45
t-46.5 -28t-57 -9.5q-25 0 -46.5 6.5t-40 17t-34 23.5t-27.5 26zM285 324q-22 23 -41.5 38t-47.5 15q-26 0 -42 -15.5t-16 -39.5q0 -20 14 -38t42 -18q26 0 49.5 19t41.5 39zM393 323q19 -20 38.5 -37t48.5 -17q27 0 40.5 17t13.5 38q0 26 -13 40t-39 14t-48 -18t-41 -37z
" />
    <glyph glyph-name="integral" unicode="&#x222b;" horiz-adv-x="427" 
d="M68 -65q18 -9 36.5 -13.5t32.5 -4.5q21 0 32 13t8 56l-53 596q-4 45 9.5 73t35 44t47.5 22t48 6q37 0 65.5 -6t60.5 -17l-20 -101q-37 17 -70 17q-20 0 -31.5 -13.5t-7.5 -54.5l52 -596q4 -45 -9.5 -73.5t-35 -44.5t-47.5 -21.5t-47 -5.5q-38 0 -66 6t-60 17z" />
    <glyph glyph-name="approxequal" unicode="&#x2248;" 
d="M168 548q24 0 59 -7t70 -15t66 -15t48 -7t23.5 9.5t6.5 34.5l83 -4q4 -31 0 -57.5t-16 -46.5t-32.5 -31.5t-49.5 -11.5q-26 0 -61.5 7t-71.5 15t-67 15t-47 7t-24 -9.5t-4 -37.5l-89 3q-8 66 19 108.5t87 42.5zM168 348q24 0 59 -7t70 -15t66 -15t48 -7t23.5 9.5
t6.5 34.5l83 -4q4 -31 0 -57.5t-16 -46.5t-32.5 -31.5t-49.5 -11.5q-26 0 -61.5 7t-71.5 15t-67 15t-47 7t-24 -9.5t-4 -37.5l-89 3q-8 66 19 108.5t87 42.5z" />
    <glyph glyph-name="notequal" unicode="&#x2260;" 
d="M216 247l27 69h-151v120h194l34 87h108l-35 -87h85v-120h-128l-27 -69h155v-120h-198l-34 -84h-107l34 84h-81v120h124z" />
    <glyph glyph-name="lessequal" unicode="&#x2264;" 
d="M89 265v141l387 141v-120l-264 -88l264 -89v-122zM89 0v119h387v-119h-387z" />
    <glyph glyph-name="greaterequal" unicode="&#x2265;" 
d="M88 129v121l265 89l-265 83v125l388 -141v-140zM88 0v119h387v-119h-387z" />
    <glyph glyph-name="triangle" unicode="&#x25b3;" horiz-adv-x="425" 
d="M150 203v231l185 -114z" />
    <glyph glyph-name="lozenge" unicode="&#x25ca;" 
d="M230 -17l-155 324l155 324h110l155 -324l-155 -324h-110zM382 307l-97 196l-96 -196l96 -203z" />
    <glyph glyph-name="circle" unicode="&#x25cb;" horiz-adv-x="610" 
d="M305 119q-42 0 -79.5 16t-65.5 44t-44 65.5t-16 79.5t16 79.5t44 65.5t65.5 44t79.5 16t79.5 -16t65.5 -44t44 -65.5t16 -79.5t-16 -79.5t-44 -65.5t-65.5 -44t-79.5 -16z" />
    <glyph glyph-name="s_t" unicode="&#xfb06;" horiz-adv-x="875" 
d="M867 25q-20 -13 -61.5 -25t-91.5 -12q-82 0 -124 39.5t-42 129.5v518l151 20v-174h138v-110h-138v-233q0 -35 12.5 -52.5t48.5 -17.5q23 0 47 7.5t39 16.5zM257 532q89 0 139 -36t69 -102l-124 -39q-10 33 -29 52t-61 19q-66 0 -66 -46q0 -14 8 -23.5t22 -15.5t33.5 -10
t42.5 -8q34 -6 67 -14.5t58.5 -25t41.5 -45t16 -74.5q0 -45 -18 -78t-48.5 -54.5t-72.5 -32.5t-90 -11q-101 0 -154.5 39t-67.5 104l123 40q4 -15 11 -29t19 -25.5t29.5 -18t44.5 -6.5q75 0 75 49q0 29 -25.5 38.5t-71.5 17.5q-34 6 -67.5 15t-60.5 26.5t-43.5 46.5
t-16.5 77q0 43 17.5 75t47.5 53t69 31.5t83 10.5z" />
    <glyph glyph-name="hyphen.case" horiz-adv-x="313" 
d="M20 288v129h271v-129h-271z" />
    <glyph glyph-name="zero.osf" horiz-adv-x="617" 
d="M303 -12q-75 0 -126 21.5t-82.5 61.5t-45 96t-13.5 124t16.5 123.5t51 95t87 61t124.5 21.5q75 0 126 -21t82.5 -60t45 -93t13.5 -120q0 -71 -15.5 -128t-49 -97.5t-86.5 -62.5t-128 -22zM309 105q59 0 86 44.5t27 143.5q0 94 -25.5 136.5t-83.5 42.5q-60 0 -88.5 -44
t-28.5 -139q0 -94 25.5 -139t87.5 -45z" />
    <glyph glyph-name="one.osf" horiz-adv-x="441" 
d="M199 0v402q-12 -7 -33 -13t-44 -10t-44 -6t-33 -2l-7 124q66 5 119.5 24.5t88.5 58.5h103v-578h-150z" />
    <glyph glyph-name="two.osf" horiz-adv-x="538" 
d="M280 592q103 0 155.5 -47t52.5 -126q0 -37 -8.5 -65.5t-26.5 -54t-46.5 -50t-68.5 -52.5l-90 -64v-3h250v-130h-445v122l138 114q42 34 70 57.5t44.5 42t23.5 35.5t7 38q0 35 -18.5 52t-53.5 17q-48 0 -66.5 -26t-26.5 -74l-132 26q9 55 32 91t55 57.5t71.5 30.5t82.5 9z
" />
    <glyph glyph-name="three.osf" horiz-adv-x="542" 
d="M150 129q6 -46 29.5 -70.5t74.5 -24.5q20 0 38 4.5t31.5 14.5t21.5 26t8 39q0 48 -28 65.5t-84 17.5h-74v112h49q62 0 94.5 23.5t32.5 67.5q0 31 -17 52t-63 21q-47 0 -68.5 -23t-31.5 -67l-128 26q10 51 33 85.5t55 55t71.5 29.5t81.5 9q103 0 159.5 -41.5t56.5 -124.5
q0 -34 -11.5 -60t-30 -45t-41.5 -31.5t-45 -18.5v-3q63 -9 102.5 -48.5t39.5 -109.5q0 -49 -19.5 -85.5t-53.5 -60.5t-80.5 -35.5t-101.5 -11.5q-42 0 -81.5 9t-71 30.5t-53 57t-27.5 87.5z" />
    <glyph glyph-name="four.osf" horiz-adv-x="581" 
d="M337 -67v133h-311v107l273 405h184v-390h81v-122h-81v-133h-146zM337 188v259l-177 -259h177z" />
    <glyph glyph-name="five.osf" horiz-adv-x="552" 
d="M83 576h381v-129h-269l-15 -141q23 18 56.5 32t81.5 14q40 0 74.5 -13t59.5 -38.5t39.5 -64.5t14.5 -91q0 -53 -19 -95.5t-52.5 -72t-79.5 -45t-100 -15.5q-45 0 -85 9.5t-72 31t-53.5 56t-28.5 85.5l133 26q6 -39 29 -64t74 -25q44 0 74 25t30 81q0 53 -27.5 74
t-64.5 21q-32 0 -57.5 -13.5t-48.5 -36.5l-98 41z" />
    <glyph glyph-name="six.osf" horiz-adv-x="577" 
d="M403 458q-8 41 -27 62.5t-60 21.5q-32 0 -55 -14.5t-37.5 -40t-21.5 -60.5t-7 -75q30 26 70.5 40.5t88.5 14.5q40 0 74.5 -12t59.5 -36.5t39 -61.5t14 -86q0 -59 -19.5 -101.5t-52.5 -69.5t-77.5 -39.5t-94.5 -12.5q-72 0 -119.5 25t-75.5 69.5t-39.5 104.5t-11.5 129
q0 59 12.5 119.5t44 109.5t84.5 80t134 31q84 0 136 -39t72 -124zM204 250q1 -24 4.5 -50.5t14 -48.5t29.5 -36.5t51 -14.5q46 0 68 29t22 74q0 93 -80 93q-30 0 -60.5 -14.5t-48.5 -31.5z" />
    <glyph glyph-name="seven.osf" horiz-adv-x="531" 
d="M74 -67l272 513h-313v130h469v-117l-269 -526h-159z" />
    <glyph glyph-name="eight.osf" horiz-adv-x="563" 
d="M404 355q61 -27 96.5 -66.5t35.5 -104.5q0 -46 -18.5 -82.5t-53 -61.5t-84 -38.5t-110.5 -13.5q-121 0 -185 46.5t-64 121.5q0 63 33 103t98 70q-51 23 -77 59t-26 89q0 41 18.5 74t51.5 56.5t78 36.5t99 13q104 0 161 -41t57 -109q0 -30 -9 -53t-24 -41t-35 -32t-42 -26
zM248 272q-32 -19 -55.5 -42.5t-23.5 -60.5q0 -33 25.5 -52.5t79.5 -19.5q52 0 77 20t25 55q0 19 -10.5 33.5t-28 26t-41 21.5t-48.5 19zM305 399q29 20 50.5 40t21.5 52q0 31 -22.5 46.5t-63.5 15.5q-35 0 -59.5 -15.5t-24.5 -50.5q0 -17 8 -29.5t21.5 -22.5t31 -18.5
t37.5 -17.5z" />
    <glyph glyph-name="nine.osf" horiz-adv-x="582" 
d="M178 116q8 -40 31 -63t66 -23q33 0 56 15.5t37.5 41.5t21 60.5t6.5 72.5q-30 -27 -71.5 -40t-88.5 -13q-40 0 -74.5 12.5t-59.5 37t-39 61.5t-14 87q0 59 19.5 102.5t52.5 71.5t77 41.5t94 13.5q70 0 117.5 -25t75.5 -69t40 -103t12 -127q0 -66 -11 -129.5t-40.5 -113
t-81 -79.5t-133.5 -30q-93 0 -152.5 41t-72.5 122zM385 323q0 27 -4 54.5t-14.5 50.5t-29.5 37.5t-51 14.5q-45 0 -67 -28.5t-22 -73.5q0 -49 18.5 -75.5t60.5 -26.5q31 0 60 13.5t49 33.5z" />
    <glyph glyph-name="dollar.osf" horiz-adv-x="537" 
d="M263 538q-42 0 -63.5 -18.5t-21.5 -47.5q0 -21 9.5 -35.5t27.5 -25t42.5 -18.5t54.5 -15q33 -9 66 -20.5t59.5 -32t42.5 -51.5t16 -78q0 -84 -48 -131t-127 -60v-87h-127v88q-32 5 -61 16.5t-51.5 33.5t-37 55t-17.5 81l123 19q4 -25 10 -45.5t18.5 -35.5t33.5 -23t54 -8
q48 0 71 21t23 56q0 21 -10 35t-27 23.5t-41 16.5t-52 14q-36 9 -69.5 20.5t-59.5 31.5t-42 51.5t-16 80.5q0 37 12 67t33 52.5t50 37.5t63 23v87h128v-84q31 -5 57.5 -16.5t46.5 -32t32 -50.5t15 -72l-125 -14q-5 48 -25 69.5t-67 21.5z" />
    <glyph glyph-name="Euro.osf" horiz-adv-x="649" 
d="M107 429q22 105 91 167t188 62q47 0 89 -12t74 -39t52 -69.5t23 -103.5l-136 -14q-5 64 -29 91.5t-78 27.5q-44 0 -76.5 -25t-47.5 -85h187l-15 -88h-183v-18v-19t1 -17h175l-15 -88h-147q14 -48 42.5 -69t73.5 -21q54 0 78 26.5t35 78.5l132 -21q-8 -59 -32.5 -98
t-59 -63t-75.5 -34t-81 -10q-62 0 -107.5 14.5t-78 42t-52 66.5t-29.5 88h-99l15 88h74v54h-67l15 88h63z" />
    <glyph glyph-name="cent.osf" horiz-adv-x="530" 
d="M355 633v-104q66 -12 107 -58.5t47 -120.5l-136 -20q-5 46 -21.5 68t-54.5 22q-21 0 -38.5 -5.5t-31 -20.5t-21 -40.5t-7.5 -65.5q0 -71 22 -107t76 -36q42 0 61 20.5t27 66.5l126 -23q-11 -75 -55 -118.5t-109 -56.5v-112h-127v112q-89 17 -132.5 82t-43.5 157
q0 106 48.5 170.5t135.5 83.5v106h127z" />
    <glyph glyph-name="sterling.osf" horiz-adv-x="601" 
d="M90 117q23 23 34.5 46t11.5 56q0 28 -10 52h-96v104h64q-8 17 -15 38t-7 54q0 40 16 75t47 60t76 39.5t103 14.5q100 0 159 -42.5t77 -143.5l-132 -28q-3 21 -8.5 39.5t-17 32.5t-30.5 22t-49 8q-39 0 -67 -17.5t-28 -63.5q0 -25 7.5 -47t17.5 -41h198v-104h-170
q9 -24 9 -47q0 -35 -11.5 -59.5t-33.5 -47.5h105q31 0 51.5 5.5t33.5 17t20 30t12 44.5l125 -21q-8 -101 -62 -147t-166 -46h-322v117h58z" />
    <glyph glyph-name="yen.osf" horiz-adv-x="567" 
d="M363 211h129v-89h-129v-122h-151v122h-127v89h127v66h-127v89h86l-163 266h163l119 -211h3l115 211h152l-160 -266h92v-89h-129v-66z" />
    <glyph glyph-name="florin.osf" horiz-adv-x="565" 
d="M480 484q-8 28 -18.5 48t-38.5 20q-27 0 -40.5 -15.5t-20.5 -48.5l-19 -101h132l-16 -96h-132l-52 -280q-8 -44 -22.5 -77.5t-39 -55.5t-60 -33t-85.5 -11q-38 0 -66 10t-48 28t-33 41.5t-20 50.5l120 42q7 -28 18.5 -47t40.5 -19q27 0 39.5 14.5t18.5 48.5l54 288h-92
l16 96h92l18 92q9 44 23.5 77t38.5 55.5t59 33.5t83 11q39 0 67.5 -10t48.5 -27.5t32.5 -41t20.5 -50.5z" />
    <glyph glyph-name="afii61352.osf" horiz-adv-x="1028" 
d="M397 0l-180 410v-410h-142v626h185l172 -418v418h140v-626h-175zM647 234h330v-93h-330v93zM808 270q-50 0 -84.5 13t-57 37t-32.5 56.5t-10 71.5q0 82 46.5 131t143.5 49q49 0 83.5 -13t56 -36t31.5 -54.5t10 -69.5q0 -84 -45 -134.5t-142 -50.5zM810 361q29 0 45.5 18
t16.5 72q0 52 -15.5 70t-43.5 18q-29 0 -47.5 -17.5t-18.5 -70.5q0 -54 17 -72t46 -18z" />
    <glyph glyph-name="percent.osf" horiz-adv-x="888" 
d="M168 258q-48 0 -80 14t-51.5 38t-28 56t-8.5 68q0 85 42.5 136t133.5 51q45 0 76.5 -12.5t52 -35t29.5 -54.5t9 -72q0 -86 -43.5 -137.5t-131.5 -51.5zM172 342q32 0 44.5 24t12.5 77q0 48 -12 70.5t-44 22.5q-31 0 -44.5 -24t-13.5 -71q0 -51 12.5 -75t44.5 -24z
M681 -12q-48 0 -80 14t-51.5 38t-28 56t-8.5 68q0 85 42.5 136t133.5 51q45 0 76.5 -12.5t52 -35t29.5 -54.5t9 -72q0 -86 -43.5 -137.5t-131.5 -51.5zM685 72q32 0 44.5 24t12.5 77q0 48 -12 70.5t-44 22.5q-31 0 -44.5 -24t-13.5 -71q0 -51 12.5 -75t44.5 -24zM168 -16
l381 639h132l-380 -639h-133z" />
    <glyph glyph-name="perthousand.osf" horiz-adv-x="1127" 
d="M169 295q-42 0 -70.5 11.5t-46.5 32.5t-26 50t-8 64q0 81 40.5 124t117.5 43q79 0 115 -41.5t36 -116.5q0 -79 -40.5 -123t-117.5 -44zM173 375q26 0 37.5 18.5t11.5 66.5q0 43 -11 60.5t-37 17.5t-38 -18.5t-12 -60.5q0 -46 11.5 -65t37.5 -19zM599 -12
q-42 0 -70.5 11.5t-46.5 32.5t-26 50t-8 64q0 81 40.5 124t117.5 43q79 0 115 -41.5t36 -116.5q0 -79 -40.5 -123t-117.5 -44zM603 68q26 0 37.5 18.5t11.5 66.5q0 43 -11 60.5t-37 17.5t-38 -18.5t-12 -60.5q0 -46 11.5 -65t37.5 -19zM936 -12q-42 0 -70.5 11.5t-46.5 32.5
t-26 50t-8 64q0 81 40.5 124t117.5 43q79 0 115 -41.5t36 -116.5q0 -79 -40.5 -123t-117.5 -44zM940 68q26 0 37.5 18.5t11.5 66.5q0 43 -11 60.5t-37 17.5t-38 -18.5t-12 -60.5q0 -46 11.5 -65t37.5 -19zM128 -16l381 639h132l-380 -639h-133z" />
    <glyph glyph-name="zero.slash" 
d="M281 -12q-75 0 -124 25t-78 73t-41 118t-12 160t13.5 159.5t44.5 117t81.5 72t125.5 24.5t124 -24.5t77.5 -71.5t40 -115t11.5 -154q0 -93 -13 -165t-43.5 -120.5t-81 -73.5t-125.5 -25zM187 363q0 -48 1 -85.5t6 -66.5l119 404q-11 3 -24 3q-31 0 -50.5 -14t-31 -44.5
t-16 -79t-4.5 -117.5zM285 106q30 0 49.5 14.5t30.5 46t15 81t4 118.5q0 86 -6 142l-118 -399q10 -3 25 -3z" />
    <glyph glyph-name="zero.tf" 
d="M281 -12q-75 0 -124 25t-78 73t-41 118t-12 160t13.5 159.5t44.5 117t81.5 72t125.5 24.5t124 -24.5t77.5 -71.5t40 -115t11.5 -154q0 -93 -13 -165t-43.5 -120.5t-81 -73.5t-125.5 -25zM285 106q30 0 49.5 14.5t30.5 46t15 81t4 118.5q0 67 -3.5 115t-13.5 78.5
t-29 44.5t-49 14q-31 0 -50.5 -14t-31 -44.5t-16 -79t-4.5 -117.5q0 -68 3.5 -116.5t14 -79.5t30 -46t50.5 -15z" />
    <glyph glyph-name="one.tf" 
d="M96 130h143v414q-13 -7 -34 -12.5t-44 -9.5t-44 -6.5t-33 -2.5l-7 128q67 5 120 24.5t89 58.5h103v-594h124v-130h-417v130z" />
    <glyph glyph-name="two.tf" 
d="M291 737q109 0 163.5 -48.5t54.5 -138.5q0 -39 -9.5 -72t-28.5 -66t-48.5 -69t-69.5 -80l-118 -130v-3h285v-130h-462v126l155 181q34 39 61 70.5t45.5 58.5t28 52.5t9.5 53.5q0 36 -19.5 56t-61.5 20q-48 0 -69.5 -28t-29.5 -79l-136 23q6 54 27 92t54 63t76 36.5
t93 11.5z" />
    <glyph glyph-name="three.tf" 
d="M159 200q6 -46 28.5 -70.5t73.5 -24.5q43 0 72.5 25.5t29.5 82.5q0 58 -30 81t-87 23h-71v114h47q64 0 97.5 29.5t33.5 80.5q0 36 -17.5 58t-64.5 22t-68.5 -23t-31.5 -67l-130 26q10 51 33.5 85.5t56 55.5t72.5 30t82 9q105 0 161 -46t56 -130q0 -36 -12 -64t-31.5 -49
t-43.5 -35.5t-49 -22.5v-4q72 -17 111.5 -59.5t39.5 -121.5q0 -50 -18 -90.5t-51.5 -68.5t-81 -43t-105.5 -15q-43 0 -83 9.5t-72.5 31.5t-54 58t-27.5 88z" />
    <glyph glyph-name="four.tf" 
d="M325 0v162h-303v107l266 455h184v-440h73v-122h-74v-162h-146zM325 284v305l-177 -305h177z" />
    <glyph glyph-name="five.tf" 
d="M97 724h381v-130h-271l-17 -181q23 20 56.5 34t81.5 14q40 0 75 -12.5t61 -39t41 -68.5t15 -101t-18.5 -106t-52 -79.5t-81.5 -49.5t-107 -17q-44 0 -83.5 9.5t-71 31.5t-53 57.5t-28.5 87.5l131 27q6 -43 30 -68.5t75 -25.5q22 0 41.5 7.5t34.5 23t24 39.5t9 57t-8 54.5
t-21.5 34t-31 17.5t-35.5 5q-32 0 -59 -14t-47 -34l-98 41z" />
    <glyph glyph-name="six.tf" 
d="M397 532q-8 51 -29 69.5t-56 18.5q-34 0 -58 -20.5t-39.5 -53.5t-23 -74t-7.5 -82q26 23 66 39t90 16q43 0 79 -13t61.5 -39t40 -65.5t14.5 -91.5q0 -64 -19 -110.5t-52 -77t-78 -45.5t-97 -15q-75 0 -123.5 27.5t-76.5 75.5t-39 113t-11 140q0 42 5 87.5t17.5 89.5
t33.5 83t52.5 68.5t75 47t101.5 17.5q37 0 70 -8t60 -27.5t47 -51.5t30 -81zM192 287q1 -36 5 -69.5t15 -59t30 -40.5t51 -15q45 0 67 33t22 89q0 54 -19 80.5t-66 26.5q-27 0 -56 -14t-49 -31z" />
    <glyph glyph-name="seven.tf" 
d="M96 -1l279 595h-318v130h475v-116l-276 -609h-160z" />
    <glyph glyph-name="eight.tf" 
d="M407 394q73 -33 106 -77t33 -119q0 -43 -19 -81.5t-54 -67t-85.5 -45t-114.5 -16.5q-66 0 -114 15.5t-79 41.5t-46 60t-15 72q0 66 33 113.5t106 80.5q-61 29 -86 72.5t-25 94.5q0 47 18 84t50.5 62.5t78 39t101.5 13.5q114 0 173 -46.5t59 -122.5q0 -62 -32 -101
t-88 -73zM252 315q-35 -20 -60 -48t-25 -74q0 -41 25 -65.5t84 -24.5q55 0 82 26t27 63q0 26 -11 44.5t-30 33t-43 25t-49 20.5zM306 445q35 21 55.5 49.5t20.5 61.5q0 35 -21 53.5t-69 18.5q-40 0 -64.5 -18t-24.5 -51q0 -40 27 -65t76 -49z" />
    <glyph glyph-name="nine.tf" 
d="M162 200q9 -51 31 -74t64 -23q33 0 57 18.5t39.5 50t23.5 73t9 87.5q-26 -23 -66.5 -37.5t-90.5 -14.5q-43 0 -79 13t-61.5 39t-40 66t-14.5 94q0 63 19.5 109t53.5 76t79.5 45t98.5 15q73 0 120 -27.5t75 -75.5t39 -113t11 -140q0 -66 -10.5 -136t-40.5 -127t-84 -93.5
t-142 -36.5q-41 0 -78 8t-66.5 28t-50.5 53t-30 83zM377 435q-2 39 -6 73t-14.5 59t-30 39.5t-50.5 14.5q-45 0 -67 -31.5t-22 -88.5q0 -54 20 -82.5t66 -28.5q27 0 54.5 12.5t49.5 32.5z" />
    <glyph glyph-name="dollar.tf" 
d="M286 594q-47 0 -68 -20t-21 -51q0 -45 33.5 -67.5t95.5 -38.5q37 -10 74 -23t66 -35.5t47.5 -58t18.5 -89.5q0 -47 -15 -84t-41.5 -63t-62 -42.5t-76.5 -23.5v-80h-128v80q-33 4 -64 16t-56 35t-42 59.5t-23 89.5l132 25q4 -28 11.5 -49t21 -35.5t35.5 -22t55 -7.5
q47 0 76 19.5t29 61.5q0 25 -11.5 41t-30.5 27t-44 18.5t-52 15.5q-36 10 -72 23.5t-65 36.5t-47 59t-18 90q0 42 13.5 75.5t37 58.5t55 42t67.5 25v90h127v-89q34 -4 64 -16.5t53 -35t37.5 -56t17.5 -80.5l-134 -16q-7 47 -26.5 71t-69.5 24z" />
    <glyph glyph-name="Euro.tf" 
d="M307 -12q-118 0 -180.5 63t-79.5 191h-81l15 88h59v52h-52l15 88h45q21 130 90 199t184 69q49 0 91.5 -12.5t74 -40.5t50.5 -73.5t22 -111.5l-132 -14q-5 71 -29 99.5t-78 28.5q-55 0 -84 -36.5t-40 -107.5h196l-15 -88h-187v-52h180l-15 -88h-158q10 -67 37.5 -98
t78.5 -31q29 0 48.5 7.5t33 22.5t21.5 36.5t14 48.5l126 -22q-8 -64 -33.5 -106t-60.5 -67t-76 -35t-80 -10z" />
    <glyph glyph-name="cent.tf" 
d="M362 711v-104q66 -12 107 -58.5t47 -120.5l-136 -20q-5 46 -21.5 68t-54.5 22q-21 0 -38.5 -5.5t-31 -20.5t-21 -40.5t-7.5 -65.5q0 -71 22 -107t76 -36q42 0 61 20.5t27 66.5l126 -23q-11 -75 -55 -118.5t-109 -56.5v-112h-127v112q-89 17 -132.5 82t-43.5 157
q0 106 48.5 170.5t135.5 83.5v106h127z" />
    <glyph glyph-name="sterling.tf" 
d="M69 120q35 31 51.5 58t16.5 65q0 32 -17 69h-96v110h65q-12 21 -26 51.5t-14 69.5q0 43 17 79t49.5 61.5t78.5 39.5t104 14q100 0 159 -43.5t75 -147.5l-134 -23q-3 21 -9 39.5t-17 32.5t-29 22t-45 8q-92 0 -92 -84q0 -32 13 -62t27 -57h193v-110h-165q11 -28 11 -60
q0 -38 -13.5 -68.5t-47.5 -63.5h105q31 0 51 5t33 16t19.5 29.5t11.5 44.5l127 -22q-8 -101 -62 -147t-166 -46h-333v120h59z" />
    <glyph glyph-name="yen.tf" 
d="M402 417h88v-94h-129v-69h129v-94h-129v-160h-151v160h-127v94h127v69h-127v94h83l-159 307h162l119 -253h4l115 253h151z" />
    <glyph glyph-name="florin.tf" 
d="M473 565q-7 28 -18 48t-39 20q-27 0 -40.5 -15.5t-19.5 -48.5l-23 -121h131l-15 -97h-132l-68 -355q-8 -44 -23 -77.5t-39 -55.5t-58.5 -33t-83.5 -11q-39 0 -67.5 10t-49 28t-33.5 41.5t-20 50.5l120 42q7 -28 18.5 -47t40.5 -19q27 0 39 14.5t19 48.5l69 363h-92l16 97
h93l22 111q9 44 23.5 77.5t38.5 56t58.5 33.5t82.5 11q39 0 67.5 -10t49 -27.5t33 -41t19.5 -50.5z" />
    <glyph glyph-name="zeroslash.tosf" 
d="M279 -12q-75 0 -124.5 21.5t-79 61.5t-41.5 96t-12 124t14 123.5t46 95t83.5 61t125.5 21.5q75 0 124 -21t78.5 -60t41.5 -93t12 -120q0 -71 -14 -128t-45.5 -97.5t-82.5 -62.5t-126 -22zM285 102q56 0 79 44t23 147q0 86 -16 128l-94 -319h8zM183 289q0 -43 3.5 -75
t12.5 -55l96 316h-6q-57 0 -81.5 -42.5t-24.5 -143.5z" />
    <glyph glyph-name="zero.tosf" 
d="M279 -12q-75 0 -124.5 21.5t-79 61.5t-41.5 96t-12 124t14 123.5t46 95t83.5 61t125.5 21.5q75 0 124 -21t78.5 -60t41.5 -93t12 -120q0 -71 -14 -128t-45.5 -97.5t-82.5 -62.5t-126 -22zM285 102q56 0 79 44t23 147q0 99 -21.5 140.5t-76.5 41.5q-57 0 -81.5 -42.5
t-24.5 -143.5q0 -99 22 -143t80 -44z" />
    <glyph glyph-name="one.tosf" 
d="M109 130h136v272q-12 -7 -33 -13t-44 -10t-44 -6t-33 -2l-7 124q66 5 119.5 24.5t88.5 58.5h103v-448h114v-130h-400v130z" />
    <glyph glyph-name="two.tosf" 
d="M297 592q103 0 155.5 -47t52.5 -126q0 -37 -8.5 -65.5t-26.5 -54t-46.5 -50t-68.5 -52.5l-90 -64v-3h250v-130h-445v122l138 114q42 34 70 57.5t44.5 42t23.5 35.5t7 38q0 35 -18.5 52t-53.5 17q-48 0 -66.5 -26t-26.5 -74l-132 26q9 55 32 91t55 57.5t71.5 30.5t82.5 9z
" />
    <glyph glyph-name="three.tosf" 
d="M164 129q6 -46 29.5 -70.5t74.5 -24.5q20 0 38 4.5t31.5 14.5t21.5 26t8 39q0 48 -28 65.5t-84 17.5h-74v112h49q62 0 94.5 23.5t32.5 67.5q0 31 -17 52t-63 21q-47 0 -68.5 -23t-31.5 -67l-128 26q10 51 33 85.5t55 55t71.5 29.5t81.5 9q103 0 159.5 -41.5t56.5 -124.5
q0 -34 -11.5 -60t-30 -45t-41.5 -31.5t-45 -18.5v-3q63 -9 102.5 -48.5t39.5 -109.5q0 -49 -19.5 -85.5t-53.5 -60.5t-80.5 -35.5t-101.5 -11.5q-42 0 -81.5 9t-71 30.5t-53 57t-27.5 87.5z" />
    <glyph glyph-name="four.tosf" 
d="M326 -67v133h-296v107l259 405h184v-390h74v-122h-75v-133h-146zM326 188v259l-169 -259h169z" />
    <glyph glyph-name="five.tosf" 
d="M102 576h381v-129h-269l-15 -141q23 18 56.5 32t81.5 14q40 0 74.5 -13t59.5 -38.5t39.5 -64.5t14.5 -91q0 -53 -19 -95.5t-52.5 -72t-79.5 -45t-100 -15.5q-45 0 -85 9.5t-72 31t-53.5 56t-28.5 85.5l133 26q6 -39 29 -64t74 -25q44 0 74 25t30 81q0 53 -27.5 74
t-64.5 21q-32 0 -57.5 -13.5t-48.5 -36.5l-98 41z" />
    <glyph glyph-name="six.tosf" 
d="M399 458q-8 41 -27 62.5t-60 21.5q-32 0 -55 -14.5t-37.5 -40t-21.5 -60.5t-7 -75q30 26 70.5 40.5t88.5 14.5q40 0 74.5 -12t59.5 -36.5t39 -61.5t14 -86q0 -59 -19.5 -101.5t-52.5 -69.5t-77.5 -39.5t-94.5 -12.5q-72 0 -119.5 25t-75.5 69.5t-39.5 104.5t-11.5 129
q0 59 12.5 119.5t44 109.5t84.5 80t134 31q84 0 136 -39t72 -124zM200 250q1 -24 4.5 -50.5t14 -48.5t29.5 -36.5t51 -14.5q46 0 68 29t22 74q0 93 -80 93q-30 0 -60.5 -14.5t-48.5 -31.5z" />
    <glyph glyph-name="seven.tosf" 
d="M98 -67l272 513h-313v130h469v-117l-269 -526h-159z" />
    <glyph glyph-name="eight.tosf" 
d="M410 355q61 -27 96.5 -66.5t35.5 -104.5q0 -46 -18.5 -82.5t-53 -61.5t-84 -38.5t-110.5 -13.5q-121 0 -185 46.5t-64 121.5q0 63 33 103t98 70q-51 23 -77 59t-26 89q0 41 18.5 74t51.5 56.5t78 36.5t99 13q104 0 161 -41t57 -109q0 -30 -9 -53t-24 -41t-35 -32t-42 -26
zM254 272q-32 -19 -55.5 -42.5t-23.5 -60.5q0 -33 25.5 -52.5t79.5 -19.5q52 0 77 20t25 55q0 19 -10.5 33.5t-28 26t-41 21.5t-48.5 19zM311 399q29 20 50.5 40t21.5 52q0 31 -22.5 46.5t-63.5 15.5q-35 0 -59.5 -15.5t-24.5 -50.5q0 -17 8 -29.5t21.5 -22.5t31 -18.5
t37.5 -17.5z" />
    <glyph glyph-name="nine.tosf" 
d="M168 116q8 -40 31 -63t66 -23q33 0 56 15.5t37.5 41.5t21 60.5t6.5 72.5q-30 -27 -71.5 -40t-88.5 -13q-40 0 -74.5 12.5t-59.5 37t-39 61.5t-14 87q0 59 19.5 102.5t52.5 71.5t77 41.5t94 13.5q70 0 117.5 -25t75.5 -69t40 -103t12 -127q0 -66 -11 -129.5t-40.5 -113
t-81 -79.5t-133.5 -30q-93 0 -152.5 41t-72.5 122zM375 323q0 27 -4 54.5t-14.5 50.5t-29.5 37.5t-51 14.5q-45 0 -67 -28.5t-22 -73.5q0 -49 18.5 -75.5t60.5 -26.5q31 0 60 13.5t49 33.5z" />
    <glyph glyph-name="dollar.tosf" 
d="M283 538q-42 0 -63.5 -18.5t-21.5 -47.5q0 -21 9.5 -35.5t27.5 -25t42.5 -18.5t54.5 -15q33 -9 66 -20.5t59.5 -32t42.5 -51.5t16 -78q0 -84 -48 -131t-127 -60v-87h-127v88q-32 5 -61 16.5t-51.5 33.5t-37 55t-17.5 81l123 19q4 -25 10 -45.5t18.5 -35.5t33.5 -23t54 -8
q48 0 71 21t23 56q0 21 -10 35t-27 23.5t-41 16.5t-52 14q-36 9 -69.5 20.5t-59.5 31.5t-42 51.5t-16 80.5q0 37 12 67t33 52.5t50 37.5t63 23v87h128v-84q31 -5 57.5 -16.5t46.5 -32t32 -50.5t15 -72l-125 -14q-5 48 -25 69.5t-67 21.5z" />
    <glyph glyph-name="Euro.tosf" 
d="M204 341v-52h161l-16 -88h-135q11 -48 37 -70t71 -22q25 0 42.5 6.5t29 20t19 33t12.5 45.5l133 -21q-8 -59 -31 -98t-56 -63t-72.5 -34t-78.5 -10q-118 0 -178.5 55t-78.5 158h-88l15 88h64v52h-57l15 88h52q21 105 86.5 167t181.5 62q46 0 86.5 -12t71 -39t49 -69.5
t21.5 -103.5l-135 -14q-5 60 -25.5 89.5t-72.5 29.5q-44 0 -72.5 -26t-41.5 -84h174l-16 -88h-167z" />
    <glyph glyph-name="cent.tosf" 
d="M368 635v-104q66 -12 107 -58.5t47 -120.5l-136 -20q-5 46 -21.5 68t-54.5 22q-21 0 -38.5 -5.5t-31 -20.5t-21 -40.5t-7.5 -65.5q0 -71 22 -107t76 -36q42 0 61 20.5t27 66.5l126 -23q-11 -75 -55 -118.5t-109 -56.5v-112h-127v112q-89 17 -132.5 82t-43.5 157
q0 106 48.5 170.5t135.5 83.5v106h127z" />
    <glyph glyph-name="sterling.tosf" 
d="M72 117q23 23 34.5 46t11.5 56q0 28 -10 52h-96v104h64q-8 17 -15 38t-7 54q0 40 16 75t47 60t76 39.5t103 14.5q100 0 159 -42.5t77 -143.5l-132 -28q-3 21 -8.5 39.5t-17 32.5t-30.5 22t-49 8q-39 0 -67 -17.5t-28 -63.5q0 -25 7.5 -47t17.5 -41h198v-104h-170
q9 -24 9 -47q0 -35 -11.5 -59.5t-33.5 -47.5h105q31 0 51.5 5.5t33.5 17t20 30t12 44.5l125 -21q-8 -101 -62 -147t-166 -46h-322v117h58z" />
    <glyph glyph-name="yen.tosf" 
d="M365 211h129v-89h-129v-122h-151v122h-127v89h127v66h-127v89h86l-163 266h163l119 -211h3l115 211h152l-160 -266h92v-89h-129v-66z" />
    <glyph glyph-name="florin.tosf" 
d="M484 484q-8 28 -18.5 48t-38.5 20q-27 0 -40.5 -15.5t-20.5 -48.5l-19 -101h132l-16 -96h-132l-52 -280q-8 -44 -22.5 -77.5t-39 -55.5t-60 -33t-85.5 -11q-38 0 -66 10t-48 28t-33 41.5t-20 50.5l120 42q7 -28 18.5 -47t40.5 -19q27 0 39.5 14.5t18.5 48.5l54 288h-92
l16 96h92l18 92q9 44 23.5 77t38.5 55.5t59 33.5t83 11q39 0 67.5 -10t48.5 -27.5t32.5 -41t20.5 -50.5z" />
    <glyph glyph-name="idotaccent" horiz-adv-x="268" 
d="M211 0h-151v521h151v-521zM227 681q0 -44 -24 -68t-67 -24q-44 0 -67.5 24t-23.5 68t23.5 67.5t67.5 23.5q43 0 67 -23.5t24 -67.5z" />
    <glyph glyph-name="s_p" horiz-adv-x="1080" 
d="M547 521h128l9 -53q34 34 76.5 49t86.5 15q42 0 77.5 -13.5t62 -44.5t41.5 -80.5t15 -121.5q0 -78 -17 -132t-46 -87.5t-67.5 -49t-81.5 -15.5q-48 0 -80.5 13.5t-57.5 36.5v-250h-146v733zM696 144q11 -11 37 -23t54 -12q53 0 75.5 41.5t22.5 117.5q0 79 -23 111.5
t-69 32.5q-26 0 -53 -13t-44 -27v-228zM257 532q89 0 139 -36t69 -102l-124 -39q-10 33 -29 52t-61 19q-66 0 -66 -46q0 -14 8 -23.5t22 -15.5t33.5 -10t42.5 -8q34 -6 67 -14.5t58.5 -25t41.5 -45t16 -74.5q0 -45 -18 -78t-48.5 -54.5t-72.5 -32.5t-90 -11
q-101 0 -154.5 39t-67.5 104l123 40q4 -15 11 -29t19 -25.5t29.5 -18t44.5 -6.5q75 0 75 49q0 29 -25.5 38.5t-71.5 17.5q-34 6 -67.5 15t-60.5 26.5t-43.5 46.5t-16.5 77q0 43 17.5 75t47.5 53t69 31.5t83 10.5z" />
    <glyph glyph-name="c_t" horiz-adv-x="922" 
d="M914 25q-20 -13 -61.5 -25t-91.5 -12q-82 0 -124 39.5t-42 129.5v518l151 20v-174h138v-110h-138v-233q0 -35 12.5 -52.5t48.5 -17.5q23 0 47 7.5t39 16.5zM285 -12q-65 0 -112.5 19.5t-78.5 54.5t-45.5 83.5t-14.5 106.5q0 135 69 207.5t197 72.5q94 0 151.5 -50.5
t65.5 -146.5l-135 -20q-5 49 -22.5 75t-62.5 26q-21 0 -40.5 -6t-33.5 -22.5t-22.5 -45.5t-8.5 -74t7 -76t20.5 -50t32.5 -27.5t43 -8.5q44 0 67 22.5t30 72.5l127 -24q-7 -49 -27 -84.5t-51 -59t-70.5 -34.5t-85.5 -11z" />
    <glyph glyph-name="c_h" horiz-adv-x="1122" 
d="M1068 0h-151v329q0 42 -17 61t-52 19q-31 0 -59 -13.5t-43 -27.5v-368h-151v755h150v-282q28 22 66.5 40.5t94.5 18.5q85 0 123.5 -43t38.5 -133v-356zM285 -12q-65 0 -112.5 19.5t-78.5 54.5t-45.5 83.5t-14.5 106.5q0 135 69 207.5t197 72.5q94 0 151.5 -50.5
t65.5 -146.5l-135 -20q-5 49 -22.5 75t-62.5 26q-21 0 -40.5 -6t-33.5 -22.5t-22.5 -45.5t-8.5 -74t7 -76t20.5 -50t32.5 -27.5t43 -8.5q44 0 67 22.5t30 72.5l127 -24q-7 -49 -27 -84.5t-51 -59t-70.5 -34.5t-85.5 -11z" />
    <glyph glyph-name="c_k" horiz-adv-x="1098" 
d="M285 -12q-65 0 -112.5 19.5t-78.5 54.5t-45.5 83.5t-14.5 106.5q0 135 69 207.5t197 72.5q94 0 151.5 -50.5t65.5 -146.5l-135 -20q-5 49 -22.5 75t-62.5 26q-21 0 -40.5 -6t-33.5 -22.5t-22.5 -45.5t-8.5 -74t7 -76t20.5 -50t32.5 -27.5t43 -8.5q44 0 67 22.5t30 72.5
l127 -24q-7 -49 -27 -84.5t-51 -59t-70.5 -34.5t-85.5 -11zM744 339l172 182h167l-173 -187l186 -334h-167l-135 238l-50 -49v-189h-151v755h151v-416z" />
    <glyph glyph-name="T_h" horiz-adv-x="1094" 
d="M1040 0h-151v329q0 42 -16.5 61t-51.5 19q-32 0 -60 -13.5t-43 -27.5v-368h-151v594h-191v-594h-155v594h-213v130h559v31h150v-283q29 25 67.5 42.5t93.5 17.5q85 0 123.5 -43t38.5 -133v-356z" />
    <glyph glyph-name="commaaccent" horiz-adv-x="500" 
d="M199 -68h140l-83 -206l-103 15z" />
    <glyph glyph-name="revcommaaccent" horiz-adv-x="500" 
d="M311 569h-140l83 207l103 -15z" />
    <glyph glyph-name="caron.alt" horiz-adv-x="500" 
d="M198 755h138l-66 -202l-105 9z" />
    <glyph glyph-name="tilde.cap" horiz-adv-x="500" 
d="M175 930q24 0 44 -6.5t37.5 -15t33.5 -15t33 -6.5t23.5 9.5t6.5 34.5l76 -4q7 -62 -15.5 -101.5t-75.5 -39.5q-26 0 -47 7t-39 15t-34 15t-32 7t-24 -9.5t-4 -37.5l-82 3q-8 66 20 105t79 39z" />
    <glyph glyph-name="ring.cap" horiz-adv-x="500" 
d="M366 835q0 -53 -32.5 -80.5t-83.5 -27.5t-83 26.5t-32 77.5q0 28 9 48.5t25 34.5t37 21t44 7q48 0 82 -26.5t34 -80.5zM250 788q22 0 34.5 12t12.5 37q0 23 -12.5 34.5t-34.5 11.5q-21 0 -35 -11.5t-14 -35.5t13 -36t36 -12z" />
    <glyph glyph-name="circumflex.cap" horiz-adv-x="500" 
d="M252 841l-75 -73l-102 7l107 142h140l102 -142l-100 -6z" />
    <glyph glyph-name="acute.cap" horiz-adv-x="500" 
d="M269 768l-107 8l91 140h162z" />
    <glyph glyph-name="grave.cap" horiz-adv-x="500" 
d="M84 916h162l91 -140l-107 -8z" />
    <glyph glyph-name="dieresis.cap" horiz-adv-x="500" 
d="M221 858q0 -38 -24.5 -60.5t-63.5 -22.5q-41 0 -66 22.5t-25 60.5t25 61t66 23q39 0 63.5 -23t24.5 -61zM456 858q0 -38 -24 -60.5t-64 -22.5q-41 0 -65.5 22.5t-24.5 60.5t24.5 61t65.5 23q40 0 64 -23t24 -61z" />
    <glyph glyph-name="caron.cap" horiz-adv-x="500" 
d="M249 846l75 73l102 -7l-107 -142h-140l-102 142l100 6z" />
    <glyph glyph-name="macron.cap" horiz-adv-x="500" 
d="M91 784v103h317v-103h-317z" />
    <glyph glyph-name="dotaccent.cap" horiz-adv-x="500" 
d="M340 868q0 -45 -23.5 -69t-67.5 -24q-43 0 -66.5 24t-23.5 69q0 44 23.5 67t66.5 23q44 0 67.5 -23t23.5 -67z" />
    <glyph glyph-name="cedilla.cap" horiz-adv-x="500" 
d="M157 -162q12 -3 23.5 -5t24.5 -2q23 0 36.5 8.5t13.5 28.5q0 23 -17 29.5t-47 7.5l16 125l72 -8l-9 -67q16 -3 31.5 -9t27.5 -17t19 -27t7 -39q0 -55 -37.5 -82t-93.5 -27q-46 0 -82 14z" />
    <glyph glyph-name="hungarumlaut.cap" horiz-adv-x="500" 
d="M217 768l-97 12l50 135h154zM373 768l-101 8l92 144h162z" />
    <glyph glyph-name="commaaccent.cap" horiz-adv-x="500" 
d="M199 -68h140l-83 -206l-103 15z" />
    <glyph glyph-name="breve.cap" horiz-adv-x="500" 
d="M255 861q32 0 50 14.5t26 52.5l96 -6q-8 -81 -55.5 -117t-121.5 -36q-72 0 -116.5 35.5t-49.5 115.5l100 10q6 -38 22.5 -53.5t48.5 -15.5z" />
    <glyph glyph-name="ogonek.cap" horiz-adv-x="500" 
d="M382 -139q-17 -49 -54.5 -75t-85.5 -26q-57 0 -86.5 25.5t-29.5 72.5q0 27 11 50.5t29 44t40.5 38t45.5 32.5l71 -17q-38 -37 -61.5 -65t-23.5 -58q0 -33 31 -33q14 0 26 9.5t22 31.5z" />
    <glyph glyph-name="hyphensuperior" horiz-adv-x="220" 
d="M20 489v102h179v-102h-179z" />
    <glyph glyph-name="commasuperior" horiz-adv-x="199" 
d="M36 455h128l-72 -186l-101 8z" />
    <glyph glyph-name="periodsuperior" horiz-adv-x="214" 
d="M182 408q0 -32 -18 -49t-56 -17q-76 0 -76 66q0 68 76 68q74 0 74 -68z" />
    <glyph glyph-name="a.sup" horiz-adv-x="397" 
d="M341 444q0 -18 8 -23.5t30 1.5l3 -66q-11 -5 -28.5 -9t-35.5 -4q-32 0 -52.5 10.5t-27.5 36.5q-17 -21 -42 -34.5t-63 -13.5q-33 0 -54 9.5t-33 23.5t-16 30t-4 29q0 40 20.5 63.5t50.5 35t65 15t64 3.5v13q0 22 -6.5 37.5t-37.5 15.5q-22 0 -32.5 -11t-14.5 -35l-100 18
q4 24 14.5 44t29.5 35t46.5 23t65.5 8q75 0 112.5 -28.5t37.5 -92.5v-134zM227 488q-10 0 -24 -0.5t-27 -4.5t-22.5 -11.5t-9.5 -22.5q0 -13 7.5 -21.5t28.5 -8.5q16 0 28 6t19 12v51z" />
    <glyph glyph-name="b.sup" horiz-adv-x="420" 
d="M40 350v493h116v-180q39 36 103 36q27 0 51.5 -9t43 -29t29 -52.5t10.5 -79.5q0 -50 -11 -85.5t-31 -58t-47 -33t-60 -10.5q-34 0 -57 11t-39 27h-4l-5 -30h-99zM157 448q9 -6 23 -12.5t31 -6.5q29 0 43.5 22.5t14.5 73.5q0 18 -2.5 33.5t-9 27t-17.5 18.5t-28 7
q-14 0 -29.5 -6.5t-25.5 -14.5v-142z" />
    <glyph glyph-name="c.sup" horiz-adv-x="385" 
d="M201 342q-90 0 -133 48.5t-43 123.5q0 89 48.5 137t138.5 48q68 0 108.5 -34.5t45.5 -98.5l-104 -14q-3 30 -13 46.5t-39 16.5q-26 0 -44 -18.5t-18 -70.5q0 -51 15.5 -73.5t46.5 -22.5q53 0 62 62l95 -22q-9 -66 -54 -97t-112 -31z" />
    <glyph glyph-name="d.sup" horiz-adv-x="419" 
d="M380 350h-98l-7 33q-1 0 -1 0.5t-1 0.5q-17 -20 -42 -31t-60 -11q-64 0 -104 40t-40 132q0 52 13.5 87t35.5 57t49.5 31.5t54.5 9.5q30 0 50.5 -7t37.5 -21v172h112v-493zM263 597q-19 16 -47 16q-35 0 -50 -27t-15 -68q0 -42 14.5 -66t47.5 -24q28 0 50 19v150z" />
    <glyph glyph-name="e.sup" horiz-adv-x="386" 
d="M204 342q-49 0 -83 14.5t-55.5 39.5t-31 57t-9.5 67q0 46 14 80t38 56t56.5 32.5t69.5 10.5q84 0 121 -43.5t37 -116.5v-21.5t-1 -21.5h-211q-3 -70 62 -70q25 0 38 12t17 32l94 -23q-9 -48 -48 -76.5t-108 -28.5zM240 561q1 34 -11 46.5t-32 12.5q-17 0 -32 -13.5
t-15 -45.5h90z" />
    <glyph glyph-name="f.sup" horiz-adv-x="270" 
d="M274 760q-11 3 -23 5.5t-24 2.5q-25 0 -40 -9.5t-15 -44.5v-22h93v-80h-93v-262h-118v262h-47v80h47v35q0 65 39 95t101 30q31 0 53 -5t31 -9z" />
    <glyph glyph-name="g.sup" horiz-adv-x="397" 
d="M195 699q28 0 51.5 -4t40.5 -13q25 53 69 53q18 0 38 -6v-70q-16 2 -34 1t-34 -6q17 -17 24 -36.5t7 -40.5q0 -58 -44 -90.5t-116 -32.5q-36 0 -65 7q-9 -9 -9 -18q0 -6 5.5 -10.5t21.5 -6.5l108 -8q59 -4 91.5 -24t32.5 -72q0 -32 -14 -54.5t-39.5 -37t-60 -21
t-76.5 -6.5q-98 0 -137.5 20.5t-39.5 57.5q0 23 17.5 39t49.5 20v1q-55 17 -55 61q0 26 17 44.5t39 33.5q-23 14 -37 36t-14 56q0 31 13.5 55t36 40t52 24t61.5 8zM253 577q0 25 -14 37.5t-39 12.5t-41.5 -12t-16.5 -38q0 -49 56 -49q24 0 39.5 13t15.5 36zM270 298
q0 11 -8 17t-34 8l-93 5q-16 -10 -16 -26q0 -10 7.5 -16t19 -9t26 -4t28.5 -1q29 0 49.5 4t20.5 22z" />
    <glyph glyph-name="h.sup" horiz-adv-x="411" 
d="M374 350h-117v215q0 47 -42 47q-18 0 -34 -7.5t-25 -15.5v-239h-117v493h116v-180q17 15 43 25.5t64 10.5q58 0 85 -28t27 -87v-234z" />
    <glyph glyph-name="i.sup" horiz-adv-x="198" 
d="M158 350h-117v342h117v-342zM169 796q0 -31 -18.5 -48t-51.5 -17q-32 0 -49.5 17t-17.5 48q0 64 67 64q33 0 51.5 -16.5t18.5 -47.5z" />
    <glyph glyph-name="j.sup" horiz-adv-x="198" 
d="M22 204q-32 0 -56 6.5t-34 13.5l7 83q8 -4 24 -8.5t34 -4.5q17 0 30.5 9.5t13.5 40.5v348h118v-364q0 -33 -10.5 -56.5t-28.5 -38.5t-43 -22t-55 -7zM169 796q0 -30 -18.5 -47.5t-50.5 -17.5t-50 17.5t-18 47.5q0 31 18 48t50 17t50.5 -17t18.5 -48z" />
    <glyph glyph-name="k.sup" horiz-adv-x="405" 
d="M158 580l107 112h130l-118 -122l127 -220h-130l-88 151l-28 -27v-124h-118v493h118v-263z" />
    <glyph glyph-name="l.sup" horiz-adv-x="198" 
d="M159 350h-118v493h118v-493z" />
    <glyph glyph-name="m.sup" horiz-adv-x="595" 
d="M156 350h-117v342h100l5 -29q19 16 44.5 26t59.5 10q31 0 55 -8.5t38 -31.5q17 19 44 29.5t63 10.5q54 0 82 -28t28 -85v-236h-118v219q0 43 -35 43q-11 0 -25.5 -5.5t-22.5 -14.5v-242h-118v219q0 21 -7.5 32t-26.5 11q-12 0 -26 -5.5t-23 -14.5v-242z" />
    <glyph glyph-name="n.sup" horiz-adv-x="411" 
d="M374 350h-117v215q0 47 -42 47q-18 0 -34 -7.5t-25 -15.5v-239h-117v342h104l6 -32q18 17 46 28t64 11q60 0 87.5 -28t27.5 -87v-234z" />
    <glyph glyph-name="o.sup" horiz-adv-x="416" 
d="M203 342q-50 0 -84 13t-55 36.5t-30 56t-9 71.5q0 83 45.5 131.5t142.5 48.5q48 0 82 -13t55.5 -35.5t31 -54.5t9.5 -69q0 -85 -44.5 -135t-143.5 -50zM208 424q31 0 45.5 21t14.5 78q0 53 -13.5 73t-44.5 20t-46.5 -21t-15.5 -73q0 -53 13.5 -75.5t46.5 -22.5z" />
    <glyph glyph-name="p.sup" horiz-adv-x="420" 
d="M40 692h100l7 -33q23 22 52 31t57 9t53 -9t43.5 -29t29 -52.5t10.5 -79.5q0 -51 -11.5 -86.5t-31.5 -58t-46 -32.5t-56 -10q-34 0 -55 8t-38 23v-162h-114v481zM156 448q8 -6 23 -12.5t30 -6.5q32 0 45.5 24.5t13.5 71.5q0 48 -14 67.5t-41 19.5q-15 0 -30.5 -6.5
t-26.5 -15.5v-142z" />
    <glyph glyph-name="q.sup" horiz-adv-x="420" 
d="M380 211h-112v165q-19 -16 -43.5 -25t-56.5 -9q-63 0 -102 40t-39 133q0 51 13.5 86.5t35.5 57t49.5 31t54.5 9.5q30 0 53.5 -9.5t39.5 -30.5l11 33h96v-481zM263 597q-21 16 -49 16q-34 0 -48.5 -26t-14.5 -67q0 -39 13.5 -65t48.5 -26q27 0 50 18v150z" />
    <glyph glyph-name="r.sup" horiz-adv-x="287" 
d="M278 593q-35 2 -67 -5.5t-55 -24.5v-213h-117v342h100l9 -55q17 24 42.5 43t69.5 19h8.5t9.5 -1v-105z" />
    <glyph glyph-name="s.sup" horiz-adv-x="359" 
d="M183 699q61 0 97.5 -22.5t51.5 -65.5l-92 -29q-7 19 -19.5 32t-37.5 13q-41 0 -41 -25q0 -18 20 -25t49 -12q22 -3 44.5 -8.5t41 -16.5t30 -29.5t11.5 -49.5t-13 -53.5t-35.5 -37t-52.5 -21.5t-63 -7q-72 0 -109.5 24t-47.5 63l94 33q6 -18 18.5 -30.5t43.5 -12.5
q25 0 36.5 7.5t11.5 19.5q0 17 -16.5 20.5t-45.5 8.5q-24 4 -46.5 10.5t-40.5 18.5t-29 32t-11 50q0 28 12 49.5t33 35.5t48.5 21t57.5 7z" />
    <glyph glyph-name="t.sup" horiz-adv-x="300" 
d="M291 369q-14 -8 -43.5 -17.5t-67.5 -9.5q-59 0 -89.5 27t-30.5 88v155h-53v80h53v102l118 14v-116h94v-80h-94v-137q0 -22 8.5 -33t31.5 -11q15 0 31 5t27 11z" />
    <glyph glyph-name="u.sup" horiz-adv-x="407" 
d="M38 692h117v-215q0 -47 39 -47q17 0 32.5 7.5t24.5 15.5v239h117v-342h-100l-9 36q-17 -20 -45 -32t-65 -12q-111 0 -111 114v236z" />
    <glyph glyph-name="v.sup" horiz-adv-x="386" 
d="M124 350l-124 342h127l67 -237h3l68 237h121l-125 -342h-137z" />
    <glyph glyph-name="w.sup" horiz-adv-x="582" 
d="M104 350l-104 342h117l59 -229h2l58 229h114l60 -228h2l55 228h115l-106 -342h-131l-54 210h-1l-47 -210h-139z" />
    <glyph glyph-name="x.sup" horiz-adv-x="384" 
d="M260 523l117 -173h-124l-66 98l-65 -98h-111l116 170l-120 172h127l64 -101l64 101h113z" />
    <glyph glyph-name="y.sup" horiz-adv-x="381" 
d="M0 692h126l67 -230h2l66 230h121l-70 -188t-67 -179q-12 -32 -24.5 -55t-29 -37.5t-38 -21.5t-51.5 -7q-22 0 -46 4.5t-36 10.5l8 81q15 -5 29 -7.5t25 -2.5q23 0 33.5 12t21.5 40z" />
    <glyph glyph-name="z.sup" horiz-adv-x="333" 
d="M154 437h160v-87h-291v77l154 181h-153v84h279v-80z" />
    <glyph glyph-name="hypheninferior" horiz-adv-x="220" 
d="M20 -5v102h179v-102h-179z" />
    <glyph glyph-name="commainferior" horiz-adv-x="199" 
d="M36 -39h128l-72 -186l-101 8z" />
    <glyph glyph-name="periodinferior" horiz-adv-x="214" 
d="M182 -86q0 -32 -18 -49t-56 -17q-76 0 -76 66q0 68 76 68q74 0 74 -68z" />
    <glyph glyph-name="minusinferior" horiz-adv-x="443" 
d="M92 27v94h260v-94h-260z" />
    <glyph glyph-name="plusinferior" horiz-adv-x="443" 
d="M171 -61v86h-84v95h84v83h99v-83h85v-95h-85v-86h-99z" />
    <glyph glyph-name="equalinferior" horiz-adv-x="445" 
d="M92 -64v94h261v-94h-261zM92 70v94h261v-94h-261z" />
    <glyph glyph-name="a.sinf" horiz-adv-x="397" 
d="M341 -50q0 -18 8 -23.5t30 1.5l3 -66q-11 -5 -28.5 -9t-35.5 -4q-32 0 -52.5 10.5t-27.5 36.5q-17 -21 -42 -34.5t-63 -13.5q-33 0 -54 9.5t-33 23.5t-16 30t-4 29q0 40 20.5 63.5t50.5 35t65 15t64 3.5v13q0 22 -6.5 37.5t-37.5 15.5q-22 0 -32.5 -11t-14.5 -35l-100 18
q4 24 14.5 44t29.5 35t46.5 23t65.5 8q75 0 112.5 -28.5t37.5 -92.5v-134zM227 -6q-10 0 -24 -0.5t-27 -4.5t-22.5 -11.5t-9.5 -22.5q0 -13 7.5 -21.5t28.5 -8.5q16 0 28 6t19 12v51z" />
    <glyph glyph-name="b.sinf" horiz-adv-x="420" 
d="M40 -144v493h116v-180q39 36 103 36q27 0 51.5 -9t43 -29t29 -52.5t10.5 -79.5q0 -50 -11 -85.5t-31 -58t-47 -33t-60 -10.5q-34 0 -57 11t-39 27h-4l-5 -30h-99zM157 -46q9 -6 23 -12.5t31 -6.5q29 0 43.5 22.5t14.5 73.5q0 18 -2.5 33.5t-9 27t-17.5 18.5t-28 7
q-14 0 -29.5 -6.5t-25.5 -14.5v-142z" />
    <glyph glyph-name="c.sinf" horiz-adv-x="385" 
d="M201 -152q-90 0 -133 48.5t-43 123.5q0 89 48.5 137t138.5 48q68 0 108.5 -34.5t45.5 -98.5l-104 -14q-3 30 -13 46.5t-39 16.5q-26 0 -44 -18.5t-18 -70.5q0 -51 15.5 -73.5t46.5 -22.5q53 0 62 62l95 -22q-9 -66 -54 -97t-112 -31z" />
    <glyph glyph-name="d.sinf" horiz-adv-x="419" 
d="M380 -144h-98l-7 33q-1 0 -1 0.5t-1 0.5q-17 -20 -42 -31t-60 -11q-64 0 -104 40t-40 132q0 52 13.5 87t35.5 57t49.5 31.5t54.5 9.5q30 0 50.5 -7t37.5 -21v172h112v-493zM263 103q-19 16 -47 16q-35 0 -50 -27t-15 -68q0 -42 14.5 -66t47.5 -24q28 0 50 19v150z" />
    <glyph glyph-name="e.sinf" horiz-adv-x="386" 
d="M204 -152q-49 0 -83 14.5t-55.5 39.5t-31 57t-9.5 67q0 46 14 80t38 56t56.5 32.5t69.5 10.5q84 0 121 -43.5t37 -116.5v-21.5t-1 -21.5h-211q-3 -70 62 -70q25 0 38 12t17 32l94 -23q-9 -48 -48 -76.5t-108 -28.5zM240 67q1 34 -11 46.5t-32 12.5q-17 0 -32 -13.5
t-15 -45.5h90z" />
    <glyph glyph-name="f.sinf" horiz-adv-x="270" 
d="M274 266q-11 3 -23 5.5t-24 2.5q-25 0 -40 -9.5t-15 -44.5v-22h93v-80h-93v-262h-118v262h-47v80h47v35q0 65 39 95t101 30q31 0 53 -5t31 -9z" />
    <glyph glyph-name="g.sinf" horiz-adv-x="397" 
d="M195 205q28 0 51.5 -4t40.5 -13q25 53 69 53q18 0 38 -6v-70q-16 2 -34 1t-34 -6q17 -17 24 -36.5t7 -40.5q0 -58 -44 -90.5t-116 -32.5q-36 0 -65 7q-9 -9 -9 -18q0 -6 5.5 -10.5t21.5 -6.5l108 -8q59 -4 91.5 -24t32.5 -72q0 -32 -14 -54.5t-39.5 -37t-60 -21
t-76.5 -6.5q-98 0 -137.5 20.5t-39.5 57.5q0 23 17.5 39t49.5 20v1q-55 17 -55 61q0 26 17 44.5t39 33.5q-23 14 -37 36t-14 56q0 31 13.5 55t36 40t52 24t61.5 8zM253 83q0 25 -14 37.5t-39 12.5t-41.5 -12t-16.5 -38q0 -49 56 -49q24 0 39.5 13t15.5 36zM270 -196
q0 11 -8 17t-34 8l-93 5q-16 -10 -16 -26q0 -10 7.5 -16t19 -9t26 -4t28.5 -1q29 0 49.5 4t20.5 22z" />
    <glyph glyph-name="h.sinf" horiz-adv-x="411" 
d="M374 -144h-117v215q0 47 -42 47q-18 0 -34 -7.5t-25 -15.5v-239h-117v493h116v-180q17 15 43 25.5t64 10.5q58 0 85 -28t27 -87v-234z" />
    <glyph glyph-name="i.sinf" horiz-adv-x="198" 
d="M158 -144h-117v342h117v-342zM169 302q0 -31 -18.5 -48t-51.5 -17q-32 0 -49.5 17t-17.5 48q0 64 67 64q33 0 51.5 -16.5t18.5 -47.5z" />
    <glyph glyph-name="j.sinf" horiz-adv-x="198" 
d="M22 -290q-32 0 -56 6.5t-34 13.5l7 83q8 -4 24 -8.5t34 -4.5q17 0 30.5 9.5t13.5 40.5v348h118v-364q0 -33 -10.5 -56.5t-28.5 -38.5t-43 -22t-55 -7zM169 302q0 -30 -18.5 -47.5t-50.5 -17.5t-50 17.5t-18 47.5q0 31 18 48t50 17t50.5 -17t18.5 -48z" />
    <glyph glyph-name="k.sinf" horiz-adv-x="405" 
d="M158 86l107 112h130l-118 -122l127 -220h-130l-88 151l-28 -27v-124h-118v493h118v-263z" />
    <glyph glyph-name="l.sinf" horiz-adv-x="198" 
d="M159 -144h-118v493h118v-493z" />
    <glyph glyph-name="m.sinf" horiz-adv-x="595" 
d="M156 -144h-117v342h100l5 -29q19 16 44.5 26t59.5 10q31 0 55 -8.5t38 -31.5q17 19 44 29.5t63 10.5q54 0 82 -28t28 -85v-236h-118v219q0 43 -35 43q-11 0 -25.5 -5.5t-22.5 -14.5v-242h-118v219q0 21 -7.5 32t-26.5 11q-12 0 -26 -5.5t-23 -14.5v-242z" />
    <glyph glyph-name="n.sinf" horiz-adv-x="411" 
d="M374 -144h-117v215q0 47 -42 47q-18 0 -34 -7.5t-25 -15.5v-239h-117v342h104l6 -32q18 17 46 28t64 11q60 0 87.5 -28t27.5 -87v-234z" />
    <glyph glyph-name="o.sinf" horiz-adv-x="416" 
d="M203 -152q-50 0 -84 13t-55 36.5t-30 56t-9 71.5q0 83 45.5 131.5t142.5 48.5q48 0 82 -13t55.5 -35.5t31 -54.5t9.5 -69q0 -85 -44.5 -135t-143.5 -50zM208 -70q31 0 45.5 21t14.5 78q0 53 -13.5 73t-44.5 20t-46.5 -21t-15.5 -73q0 -53 13.5 -75.5t46.5 -22.5z" />
    <glyph glyph-name="p.sinf" horiz-adv-x="420" 
d="M40 198h100l7 -33q23 22 52 31t57 9t53 -9t43.5 -29t29 -52.5t10.5 -79.5q0 -51 -11.5 -86.5t-31.5 -58t-46 -32.5t-56 -10q-34 0 -55 8t-38 23v-162h-114v481zM156 -46q8 -6 23 -12.5t30 -6.5q32 0 45.5 24.5t13.5 71.5q0 48 -14 67.5t-41 19.5q-15 0 -30.5 -6.5
t-26.5 -15.5v-142z" />
    <glyph glyph-name="q.sinf" horiz-adv-x="420" 
d="M380 -283h-112v165q-19 -16 -43.5 -25t-56.5 -9q-63 0 -102 40t-39 133q0 51 13.5 86.5t35.5 57t49.5 31t54.5 9.5q30 0 53.5 -9.5t39.5 -30.5l11 33h96v-481zM263 103q-21 16 -49 16q-34 0 -48.5 -26t-14.5 -67q0 -39 13.5 -65t48.5 -26q27 0 50 18v150z" />
    <glyph glyph-name="r.sinf" horiz-adv-x="287" 
d="M278 99q-35 2 -67 -5.5t-55 -24.5v-213h-117v342h100l9 -55q17 24 42.5 43t69.5 19h8.5t9.5 -1v-105z" />
    <glyph glyph-name="s.sinf" horiz-adv-x="359" 
d="M183 205q61 0 97.5 -22.5t51.5 -65.5l-92 -29q-7 19 -19.5 32t-37.5 13q-41 0 -41 -25q0 -18 20 -25t49 -12q22 -3 44.5 -8.5t41 -16.5t30 -29.5t11.5 -49.5t-13 -53.5t-35.5 -37t-52.5 -21.5t-63 -7q-72 0 -109.5 24t-47.5 63l94 33q6 -18 18.5 -30.5t43.5 -12.5
q25 0 36.5 7.5t11.5 19.5q0 17 -16.5 20.5t-45.5 8.5q-24 4 -46.5 10.5t-40.5 18.5t-29 32t-11 50q0 28 12 49.5t33 35.5t48.5 21t57.5 7z" />
    <glyph glyph-name="t.sinf" horiz-adv-x="300" 
d="M291 -125q-14 -8 -43.5 -17.5t-67.5 -9.5q-59 0 -89.5 27t-30.5 88v155h-53v80h53v102l118 14v-116h94v-80h-94v-137q0 -22 8.5 -33t31.5 -11q15 0 31 5t27 11z" />
    <glyph glyph-name="u.sinf" horiz-adv-x="407" 
d="M38 198h117v-215q0 -47 39 -47q17 0 32.5 7.5t24.5 15.5v239h117v-342h-100l-9 36q-17 -20 -45 -32t-65 -12q-111 0 -111 114v236z" />
    <glyph glyph-name="v.sinf" horiz-adv-x="386" 
d="M124 -144l-124 342h127l67 -237h3l68 237h121l-125 -342h-137z" />
    <glyph glyph-name="w.sinf" horiz-adv-x="582" 
d="M104 -144l-104 342h117l59 -229h2l58 229h114l60 -228h2l55 228h115l-106 -342h-131l-54 210h-1l-47 -210h-139z" />
    <glyph glyph-name="x.sinf" horiz-adv-x="384" 
d="M260 29l117 -173h-124l-66 98l-65 -98h-111l116 170l-120 172h127l64 -101l64 101h113z" />
    <glyph glyph-name="y.sinf" horiz-adv-x="381" 
d="M0 198h126l67 -230h2l66 230h121l-70 -188t-67 -179q-12 -32 -24.5 -55t-29 -37.5t-38 -21.5t-51.5 -7q-22 0 -46 4.5t-36 10.5l8 81q15 -5 29 -7.5t25 -2.5q23 0 33.5 12t21.5 40z" />
    <glyph glyph-name="z.sinf" horiz-adv-x="333" 
d="M154 -57h160v-87h-291v77l154 181h-153v84h279v-80z" />
    <glyph glyph-name="zero.num" horiz-adv-x="430" 
d="M212 276q-91 0 -136 56.5t-45 180.5q0 121 50 175.5t138 54.5q96 0 138 -54.5t42 -173.5q0 -126 -45.5 -182.5t-141.5 -56.5zM215 374q13 0 21.5 6t14 22t8 42.5t2.5 67.5q0 40 -2 66t-7.5 41t-14 21t-20.5 6q-13 0 -22 -5.5t-14.5 -20.5t-8 -41t-2.5 -67t2 -67.5
t7.5 -42.5t14 -22t21.5 -6z" />
    <glyph glyph-name="one.num" horiz-adv-x="328" 
d="M137 281v314q-8 -4 -22 -7t-29 -5.5t-28.5 -4t-21.5 -1.5l-5 104q42 3 80 15.5t62 36.5h97v-452h-133z" />
    <glyph glyph-name="two.num" horiz-adv-x="405" 
d="M203 743q83 0 120.5 -33.5t37.5 -86.5q0 -27 -8 -49.5t-24.5 -45t-42 -46.5t-61.5 -54l-32 -33v-4h175v-108h-327v108l97 97q25 25 42.5 44t28 33t15 25.5t4.5 23.5q0 34 -34 34q-43 0 -50 -57l-114 15q4 36 19 62t38.5 42.5t53 24.5t62.5 8z" />
    <glyph glyph-name="three.num" horiz-adv-x="412" 
d="M136 421q3 -28 16 -39t36 -11q21 0 34.5 11.5t13.5 36.5q0 27 -12.5 38.5t-44.5 11.5h-50v86h31q36 0 53 16t17 43q0 17 -9 26.5t-29 9.5q-21 0 -32.5 -12t-16.5 -35l-110 20q6 35 23 58t40 37t51.5 19.5t57.5 5.5q74 0 114.5 -27.5t40.5 -81.5q0 -23 -7.5 -40.5
t-19.5 -30t-27.5 -22t-32.5 -15.5v-3q98 -20 98 -107q0 -34 -13.5 -60t-38 -44t-57.5 -27t-72 -9q-29 0 -57 5.5t-51 20t-39.5 38.5t-20.5 60z" />
    <glyph glyph-name="four.num" horiz-adv-x="432" 
d="M235 283v92h-208v89l176 271h159v-260h52v-100h-51v-92h-128zM235 475v150l-98 -150h98z" />
    <glyph glyph-name="five.num" horiz-adv-x="411" 
d="M67 735h270v-105h-179l-12 -90l2 -4q16 16 39 26t54 10q57 0 90.5 -34t33.5 -103q0 -39 -14 -68.5t-38 -50t-57 -30.5t-71 -10q-30 0 -58 6t-50.5 21t-38 39t-19.5 60l112 19q2 -27 16 -39t37 -12t37.5 15.5t14.5 42.5q0 32 -14.5 43t-31.5 11q-18 0 -30.5 -7t-22.5 -17
l-86 27z" />
    <glyph glyph-name="six.num" horiz-adv-x="430" 
d="M279 604q-3 26 -13 37t-29 11q-29 0 -47 -31t-19 -99q15 16 40.5 27.5t60.5 11.5q23 0 45 -6.5t39.5 -21.5t28 -39.5t10.5 -60.5q0 -42 -14 -72t-38 -49t-55.5 -27.5t-66.5 -8.5q-52 0 -85.5 18.5t-53 49t-27.5 71.5t-8 86q0 41 8.5 84t31 78t60.5 57.5t98 22.5
q26 0 50 -5t44.5 -18t35 -35.5t20.5 -56.5zM177 455q1 -41 10.5 -63.5t37.5 -22.5q20 0 29.5 15.5t9.5 38.5q0 26 -8 40.5t-31 14.5q-14 0 -27 -7.5t-21 -15.5z" />
    <glyph glyph-name="seven.num" horiz-adv-x="379" 
d="M43 283l174 347h-186v105h323v-95l-171 -357h-140z" />
    <glyph glyph-name="eight.num" horiz-adv-x="419" 
d="M303 538q45 -18 70 -45t25 -75q0 -28 -13 -54t-38 -45.5t-61.5 -31t-83.5 -11.5q-88 0 -133.5 33.5t-45.5 86.5q0 45 25 71t67 43q-37 14 -55.5 41.5t-18.5 63.5q0 31 14 55t37.5 40.5t55 24.5t67.5 8q80 0 123 -28t43 -78q0 -32 -18 -57t-60 -42zM180 470
q-36 -23 -36 -55q0 -22 15.5 -35t44.5 -13q21 0 36.5 9.5t15.5 30.5q0 23 -20.5 37t-55.5 26zM234 573q14 9 23.5 22t9.5 28q0 17 -13.5 26t-33.5 9q-21 0 -32.5 -9.5t-11.5 -23.5q0 -29 58 -52z" />
    <glyph glyph-name="nine.num" horiz-adv-x="427" 
d="M147 422q4 -23 13.5 -38.5t35.5 -15.5q29 0 46.5 30t18.5 95q-15 -13 -40.5 -23t-56.5 -10q-25 0 -48 6.5t-41 22t-28.5 40.5t-10.5 61q0 41 14.5 70t39.5 47.5t57 27t67 8.5q49 0 82 -16.5t52.5 -46.5t27.5 -71.5t8 -90.5q0 -38 -7 -80.5t-28 -78.5t-59 -59.5t-99 -23.5
q-29 0 -55 5t-47.5 18.5t-36.5 35.5t-21 57zM251 557q-2 43 -10 68t-35 25q-21 0 -30 -15.5t-9 -36.5q0 -25 9 -42.5t32 -17.5q26 0 43 19z" />
    <glyph glyph-name="parenleft.ordn" horiz-adv-x="292" 
d="M141 210q-19 23 -36.5 52.5t-31.5 64t-22.5 73t-8.5 80.5q0 84 30 150t78 128h128q-20 -26 -38.5 -55t-32.5 -62t-22.5 -72t-8.5 -86q0 -44 8.5 -82.5t22.5 -72t31.5 -62.5t34.5 -55z" />
    <glyph glyph-name="parenright.ordn" horiz-adv-x="309" 
d="M18 757q33 0 66 0.5t66 0.5q19 -24 37 -54t32.5 -64.5t23 -73.5t8.5 -81t-8 -79t-22 -70.5t-33.5 -64.5t-42.5 -61h-129q19 25 37 52.5t32.5 60.5t23 72.5t8.5 87.5q0 43 -8.5 81t-22.5 71.5t-32 64t-36 57.5z" />
    <glyph glyph-name="hyphen.ordn" horiz-adv-x="220" 
d="M20 423v102h179v-102h-179z" />
    <glyph glyph-name="comma.ordn" horiz-adv-x="199" 
d="M36 389h128l-72 -186l-101 8z" />
    <glyph glyph-name="period.ordn" horiz-adv-x="214" 
d="M182 342q0 -32 -18 -49t-56 -17q-76 0 -76 66q0 68 76 68q74 0 74 -68z" />
    <glyph glyph-name="minus.ordn" horiz-adv-x="443" 
d="M92 455v94h260v-94h-260z" />
    <glyph glyph-name="plus.ordn" horiz-adv-x="443" 
d="M171 367v86h-84v95h84v83h99v-83h85v-95h-85v-86h-99z" />
    <glyph glyph-name="equal.ordn" horiz-adv-x="445" 
d="M92 364v94h261v-94h-261zM92 498v94h261v-94h-261z" />
    <glyph glyph-name="a.ordn" horiz-adv-x="397" 
d="M341 378q0 -18 8 -23.5t30 1.5l3 -66q-11 -5 -28.5 -9t-35.5 -4q-32 0 -52.5 10.5t-27.5 36.5q-17 -21 -42 -34.5t-63 -13.5q-33 0 -54 9.5t-33 23.5t-16 30t-4 29q0 40 20.5 63.5t50.5 35t65 15t64 3.5v13q0 22 -6.5 37.5t-37.5 15.5q-22 0 -32.5 -11t-14.5 -35l-100 18
q4 24 14.5 44t29.5 35t46.5 23t65.5 8q75 0 112.5 -28.5t37.5 -92.5v-134zM227 422q-10 0 -24 -0.5t-27 -4.5t-22.5 -11.5t-9.5 -22.5q0 -13 7.5 -21.5t28.5 -8.5q16 0 28 6t19 12v51z" />
    <glyph glyph-name="b.ordn" horiz-adv-x="420" 
d="M40 284v493h116v-180q39 36 103 36q27 0 51.5 -9t43 -29t29 -52.5t10.5 -79.5q0 -50 -11 -85.5t-31 -58t-47 -33t-60 -10.5q-34 0 -57 11t-39 27h-4l-5 -30h-99zM157 382q9 -6 23 -12.5t31 -6.5q29 0 43.5 22.5t14.5 73.5q0 18 -2.5 33.5t-9 27t-17.5 18.5t-28 7
q-14 0 -29.5 -6.5t-25.5 -14.5v-142z" />
    <glyph glyph-name="c.ordn" horiz-adv-x="385" 
d="M201 276q-90 0 -133 48.5t-43 123.5q0 89 48.5 137t138.5 48q68 0 108.5 -34.5t45.5 -98.5l-104 -14q-3 30 -13 46.5t-39 16.5q-26 0 -44 -18.5t-18 -70.5q0 -51 15.5 -73.5t46.5 -22.5q53 0 62 62l95 -22q-9 -66 -54 -97t-112 -31z" />
    <glyph glyph-name="d.ordn" horiz-adv-x="419" 
d="M380 284h-98l-7 33q-1 0 -1 0.5t-1 0.5q-17 -20 -42 -31t-60 -11q-64 0 -104 40t-40 132q0 52 13.5 87t35.5 57t49.5 31.5t54.5 9.5q30 0 50.5 -7t37.5 -21v172h112v-493zM263 531q-19 16 -47 16q-35 0 -50 -27t-15 -68q0 -42 14.5 -66t47.5 -24q28 0 50 19v150z" />
    <glyph glyph-name="e.ordn" horiz-adv-x="386" 
d="M204 276q-49 0 -83 14.5t-55.5 39.5t-31 57t-9.5 67q0 46 14 80t38 56t56.5 32.5t69.5 10.5q84 0 121 -43.5t37 -116.5v-21.5t-1 -21.5h-211q-3 -70 62 -70q25 0 38 12t17 32l94 -23q-9 -48 -48 -76.5t-108 -28.5zM240 495q1 34 -11 46.5t-32 12.5q-17 0 -32 -13.5
t-15 -45.5h90z" />
    <glyph glyph-name="f.ordn" horiz-adv-x="270" 
d="M274 694q-11 3 -23 5.5t-24 2.5q-25 0 -40 -9.5t-15 -44.5v-22h93v-80h-93v-262h-118v262h-47v80h47v35q0 65 39 95t101 30q31 0 53 -5t31 -9z" />
    <glyph glyph-name="g.ordn" horiz-adv-x="397" 
d="M195 633q28 0 51.5 -4t40.5 -13q25 53 69 53q18 0 38 -6v-70q-16 2 -34 1t-34 -6q17 -17 24 -36.5t7 -40.5q0 -58 -44 -90.5t-116 -32.5q-36 0 -65 7q-9 -9 -9 -18q0 -6 5.5 -10.5t21.5 -6.5l108 -8q59 -4 91.5 -24t32.5 -72q0 -32 -14 -54.5t-39.5 -37t-60 -21
t-76.5 -6.5q-98 0 -137.5 20.5t-39.5 57.5q0 23 17.5 39t49.5 20v1q-55 17 -55 61q0 26 17 44.5t39 33.5q-23 14 -37 36t-14 56q0 31 13.5 55t36 40t52 24t61.5 8zM253 511q0 25 -14 37.5t-39 12.5t-41.5 -12t-16.5 -38q0 -49 56 -49q24 0 39.5 13t15.5 36zM270 232
q0 11 -8 17t-34 8l-93 5q-16 -10 -16 -26q0 -10 7.5 -16t19 -9t26 -4t28.5 -1q29 0 49.5 4t20.5 22z" />
    <glyph glyph-name="h.ordn" horiz-adv-x="411" 
d="M374 284h-117v215q0 47 -42 47q-18 0 -34 -7.5t-25 -15.5v-239h-117v493h116v-180q17 15 43 25.5t64 10.5q58 0 85 -28t27 -87v-234z" />
    <glyph glyph-name="i.ordn" horiz-adv-x="198" 
d="M158 284h-117v342h117v-342zM169 730q0 -31 -18.5 -48t-51.5 -17q-32 0 -49.5 17t-17.5 48q0 64 67 64q33 0 51.5 -16.5t18.5 -47.5z" />
    <glyph glyph-name="j.ordn" horiz-adv-x="198" 
d="M22 138q-32 0 -56 6.5t-34 13.5l7 83q8 -4 24 -8.5t34 -4.5q17 0 30.5 9.5t13.5 40.5v348h118v-364q0 -33 -10.5 -56.5t-28.5 -38.5t-43 -22t-55 -7zM169 730q0 -30 -18.5 -47.5t-50.5 -17.5t-50 17.5t-18 47.5q0 31 18 48t50 17t50.5 -17t18.5 -48z" />
    <glyph glyph-name="k.ordn" horiz-adv-x="405" 
d="M158 514l107 112h130l-118 -122l127 -220h-130l-88 151l-28 -27v-124h-118v493h118v-263z" />
    <glyph glyph-name="l.ordn" horiz-adv-x="198" 
d="M159 284h-118v493h118v-493z" />
    <glyph glyph-name="m.ordn" horiz-adv-x="595" 
d="M156 284h-117v342h100l5 -29q19 16 44.5 26t59.5 10q31 0 55 -8.5t38 -31.5q17 19 44 29.5t63 10.5q54 0 82 -28t28 -85v-236h-118v219q0 43 -35 43q-11 0 -25.5 -5.5t-22.5 -14.5v-242h-118v219q0 21 -7.5 32t-26.5 11q-12 0 -26 -5.5t-23 -14.5v-242z" />
    <glyph glyph-name="n.ordn" horiz-adv-x="411" 
d="M374 284h-117v215q0 47 -42 47q-18 0 -34 -7.5t-25 -15.5v-239h-117v342h104l6 -32q18 17 46 28t64 11q60 0 87.5 -28t27.5 -87v-234z" />
    <glyph glyph-name="o.ordn" horiz-adv-x="416" 
d="M203 276q-50 0 -84 13t-55 36.5t-30 56t-9 71.5q0 83 45.5 131.5t142.5 48.5q48 0 82 -13t55.5 -35.5t31 -54.5t9.5 -69q0 -85 -44.5 -135t-143.5 -50zM208 358q31 0 45.5 21t14.5 78q0 53 -13.5 73t-44.5 20t-46.5 -21t-15.5 -73q0 -53 13.5 -75.5t46.5 -22.5z" />
    <glyph glyph-name="p.ordn" horiz-adv-x="420" 
d="M40 626h100l7 -33q23 22 52 31t57 9t53 -9t43.5 -29t29 -52.5t10.5 -79.5q0 -51 -11.5 -86.5t-31.5 -58t-46 -32.5t-56 -10q-34 0 -55 8t-38 23v-162h-114v481zM156 382q8 -6 23 -12.5t30 -6.5q32 0 45.5 24.5t13.5 71.5q0 48 -14 67.5t-41 19.5q-15 0 -30.5 -6.5
t-26.5 -15.5v-142z" />
    <glyph glyph-name="q.ordn" horiz-adv-x="420" 
d="M380 145h-112v165q-19 -16 -43.5 -25t-56.5 -9q-63 0 -102 40t-39 133q0 51 13.5 86.5t35.5 57t49.5 31t54.5 9.5q30 0 53.5 -9.5t39.5 -30.5l11 33h96v-481zM263 531q-21 16 -49 16q-34 0 -48.5 -26t-14.5 -67q0 -39 13.5 -65t48.5 -26q27 0 50 18v150z" />
    <glyph glyph-name="r.ordn" horiz-adv-x="287" 
d="M278 527q-35 2 -67 -5.5t-55 -24.5v-213h-117v342h100l9 -55q17 24 42.5 43t69.5 19h8.5t9.5 -1v-105z" />
    <glyph glyph-name="s.ordn" horiz-adv-x="359" 
d="M183 633q61 0 97.5 -22.5t51.5 -65.5l-92 -29q-7 19 -19.5 32t-37.5 13q-41 0 -41 -25q0 -18 20 -25t49 -12q22 -3 44.5 -8.5t41 -16.5t30 -29.5t11.5 -49.5t-13 -53.5t-35.5 -37t-52.5 -21.5t-63 -7q-72 0 -109.5 24t-47.5 63l94 33q6 -18 18.5 -30.5t43.5 -12.5
q25 0 36.5 7.5t11.5 19.5q0 17 -16.5 20.5t-45.5 8.5q-24 4 -46.5 10.5t-40.5 18.5t-29 32t-11 50q0 28 12 49.5t33 35.5t48.5 21t57.5 7z" />
    <glyph glyph-name="t.ordn" horiz-adv-x="300" 
d="M291 303q-14 -8 -43.5 -17.5t-67.5 -9.5q-59 0 -89.5 27t-30.5 88v155h-53v80h53v102l118 14v-116h94v-80h-94v-137q0 -22 8.5 -33t31.5 -11q15 0 31 5t27 11z" />
    <glyph glyph-name="u.ordn" horiz-adv-x="407" 
d="M38 626h117v-215q0 -47 39 -47q17 0 32.5 7.5t24.5 15.5v239h117v-342h-100l-9 36q-17 -20 -45 -32t-65 -12q-111 0 -111 114v236z" />
    <glyph glyph-name="v.ordn" horiz-adv-x="386" 
d="M124 284l-124 342h127l67 -237h3l68 237h121l-125 -342h-137z" />
    <glyph glyph-name="w.ordn" horiz-adv-x="582" 
d="M104 284l-104 342h117l59 -229h2l58 229h114l60 -228h2l55 228h115l-106 -342h-131l-54 210h-1l-47 -210h-139z" />
    <glyph glyph-name="x.ordn" horiz-adv-x="384" 
d="M260 457l117 -173h-124l-66 98l-65 -98h-111l116 170l-120 172h127l64 -101l64 101h113z" />
    <glyph glyph-name="y.ordn" horiz-adv-x="381" 
d="M0 626h126l67 -230h2l66 230h121l-70 -188t-67 -179q-12 -32 -24.5 -55t-29 -37.5t-38 -21.5t-51.5 -7q-22 0 -46 4.5t-36 10.5l8 81q15 -5 29 -7.5t25 -2.5q23 0 33.5 12t21.5 40z" />
    <glyph glyph-name="z.ordn" horiz-adv-x="333" 
d="M154 371h160v-87h-291v77l154 181h-153v84h279v-80z" />
    <glyph glyph-name="zero.denom" horiz-adv-x="430" 
d="M212 -5q-91 0 -136 56.5t-45 180.5q0 121 50 175.5t138 54.5q96 0 138 -54.5t42 -173.5q0 -126 -45.5 -182.5t-141.5 -56.5zM215 93q13 0 21.5 6t14 22t8 42.5t2.5 67.5q0 40 -2 66t-7.5 41t-14 21t-20.5 6q-13 0 -22 -5.5t-14.5 -20.5t-8 -41t-2.5 -67t2 -67.5
t7.5 -42.5t14 -22t21.5 -6z" />
    <glyph glyph-name="one.denom" horiz-adv-x="328" 
d="M137 0v314q-8 -4 -22 -7t-29 -5.5t-28.5 -4t-21.5 -1.5l-5 104q42 3 80 15.5t62 36.5h97v-452h-133z" />
    <glyph glyph-name="two.denom" horiz-adv-x="405" 
d="M203 462q83 0 120.5 -33.5t37.5 -86.5q0 -27 -8 -49.5t-24.5 -45t-42 -46.5t-61.5 -54l-32 -33v-4h175v-108h-327v108l97 97q25 25 42.5 44t28 33t15 25.5t4.5 23.5q0 34 -34 34q-43 0 -50 -57l-114 15q4 36 19 62t38.5 42.5t53 24.5t62.5 8z" />
    <glyph glyph-name="three.denom" horiz-adv-x="412" 
d="M136 140q3 -28 16 -39t36 -11q21 0 34.5 11.5t13.5 36.5q0 27 -12.5 38.5t-44.5 11.5h-50v86h31q36 0 53 16t17 43q0 17 -9 26.5t-29 9.5q-21 0 -32.5 -12t-16.5 -35l-110 20q6 35 23 58t40 37t51.5 19.5t57.5 5.5q74 0 114.5 -27.5t40.5 -81.5q0 -23 -7.5 -40.5
t-19.5 -30t-27.5 -22t-32.5 -15.5v-3q98 -20 98 -107q0 -34 -13.5 -60t-38 -44t-57.5 -27t-72 -9q-29 0 -57 5.5t-51 20t-39.5 38.5t-20.5 60z" />
    <glyph glyph-name="four.denom" horiz-adv-x="432" 
d="M235 2v92h-208v89l176 271h159v-260h52v-100h-51v-92h-128zM235 194v150l-98 -150h98z" />
    <glyph glyph-name="five.denom" horiz-adv-x="411" 
d="M67 454h270v-105h-179l-12 -90l2 -4q16 16 39 26t54 10q57 0 90.5 -34t33.5 -103q0 -39 -14 -68.5t-38 -50t-57 -30.5t-71 -10q-30 0 -58 6t-50.5 21t-38 39t-19.5 60l112 19q2 -27 16 -39t37 -12t37.5 15.5t14.5 42.5q0 32 -14.5 43t-31.5 11q-18 0 -30.5 -7t-22.5 -17
l-86 27z" />
    <glyph glyph-name="six.denom" horiz-adv-x="430" 
d="M279 323q-3 26 -13 37t-29 11q-29 0 -47 -31t-19 -99q15 16 40.5 27.5t60.5 11.5q23 0 45 -6.5t39.5 -21.5t28 -39.5t10.5 -60.5q0 -42 -14 -72t-38 -49t-55.5 -27.5t-66.5 -8.5q-52 0 -85.5 18.5t-53 49t-27.5 71.5t-8 86q0 41 8.5 84t31 78t60.5 57.5t98 22.5
q26 0 50 -5t44.5 -18t35 -35.5t20.5 -56.5zM177 174q1 -41 10.5 -63.5t37.5 -22.5q20 0 29.5 15.5t9.5 38.5q0 26 -8 40.5t-31 14.5q-14 0 -27 -7.5t-21 -15.5z" />
    <glyph glyph-name="seven.denom" horiz-adv-x="379" 
d="M43 2l174 347h-186v105h323v-95l-171 -357h-140z" />
    <glyph glyph-name="eight.denom" horiz-adv-x="419" 
d="M303 257q45 -18 70 -45t25 -75q0 -28 -13 -54t-38 -45.5t-61.5 -31t-83.5 -11.5q-88 0 -133.5 33.5t-45.5 86.5q0 45 25 71t67 43q-37 14 -55.5 41.5t-18.5 63.5q0 31 14 55t37.5 40.5t55 24.5t67.5 8q80 0 123 -28t43 -78q0 -32 -18 -57t-60 -42zM180 189
q-36 -23 -36 -55q0 -22 15.5 -35t44.5 -13q21 0 36.5 9.5t15.5 30.5q0 23 -20.5 37t-55.5 26zM234 292q14 9 23.5 22t9.5 28q0 17 -13.5 26t-33.5 9q-21 0 -32.5 -9.5t-11.5 -23.5q0 -29 58 -52z" />
    <glyph glyph-name="nine.denom" horiz-adv-x="427" 
d="M147 141q4 -23 13.5 -38.5t35.5 -15.5q29 0 46.5 30t18.5 95q-15 -13 -40.5 -23t-56.5 -10q-25 0 -48 6.5t-41 22t-28.5 40.5t-10.5 61q0 41 14.5 70t39.5 47.5t57 27t67 8.5q49 0 82 -16.5t52.5 -46.5t27.5 -71.5t8 -90.5q0 -38 -7 -80.5t-28 -78.5t-59 -59.5t-99 -23.5
q-29 0 -55 5t-47.5 18.5t-36.5 35.5t-21 57zM251 276q-2 43 -10 68t-35 25q-21 0 -30 -15.5t-9 -36.5q0 -25 9 -42.5t32 -17.5q26 0 43 19z" />
    <glyph glyph-name="square" horiz-adv-x="610" 
d="M130 151v349h349v-349h-349z" />
    <glyph glyph-name="square.open" horiz-adv-x="610" 
d="M434 455h-259v-259h259v259zM130 151v349h349v-349h-349z" />
    <glyph glyph-name="circle.open" horiz-adv-x="610" 
d="M305 119q-42 0 -79.5 16t-65.5 44t-44 65.5t-16 79.5t16 79.5t44 65.5t65.5 44t79.5 16t79.5 -16t65.5 -44t44 -65.5t16 -79.5t-16 -79.5t-44 -65.5t-65.5 -44t-79.5 -16zM305 167q32 0 59.5 13t48 35t32 51t11.5 61t-11.5 60t-32 48.5t-48 32.5t-59.5 12t-59.5 -12.5
t-47.5 -33.5t-31.5 -49.5t-11.5 -60.5t11.5 -60.5t31.5 -50t47.5 -34t59.5 -12.5z" />
    <glyph glyph-name="doublecircle" horiz-adv-x="610" 
d="M305 269q-23 0 -38 16t-15 39q0 22 15 38.5t38 16.5t38 -15.5t15 -38.5t-15 -39.5t-38 -16.5zM305 180q-30 0 -56 11.5t-45.5 31t-31 45.5t-11.5 56t11.5 56t31 45.5t45.5 30.5t56 11t56 -11t45.5 -30.5t30.5 -45.5t11 -56t-11 -56t-30.5 -45.5t-45.5 -31t-56 -11.5z
M305 214q22 0 41.5 9t33.5 24.5t22.5 35.5t8.5 43q0 22 -8.5 42t-22.5 34t-33.5 22.5t-41.5 8.5q-23 0 -42 -8.5t-33 -23.5t-22 -35t-8 -42q0 -23 8 -43t22 -35t33 -23.5t42 -8.5z" />
    <glyph glyph-name="triangle.left" horiz-adv-x="425" 
d="M90 320l185 114v-231z" />
    <glyph glyph-name="raute" horiz-adv-x="610" 
d="M304 116l-209 210l210 209l209 -210z" />
    <glyph glyph-name="arrow.right" 
d="M36 333h335l-61 121h124l100 -181l-100 -180h-122l60 122h-336v118z" />
    <glyph glyph-name="arrow.left" 
d="M534 215h-336l60 -122h-122l-100 180l100 181h124l-61 -121h335v-118z" />
    <glyph glyph-name="arrow.up" 
d="M225 24v336l-121 -62v124l181 100l180 -100v-122l-122 60v-336h-118z" />
    <glyph glyph-name="arrow.down" 
d="M343 526v-336l122 60v-122l-180 -100l-181 100v124l121 -62v336h118z" />
    <glyph glyph-name="arrow.leftup" 
d="M116 450l198 57l88 -89l-129 -42l238 -237l-84 -83l-238 238l-44 -130l-86 87z" />
    <glyph glyph-name="arrow.rightup" 
d="M511 251l-86 -87l-45 130l-238 -238l-83 83l238 237l-129 42l88 89l197 -57z" />
    <glyph glyph-name="arrowleft.down" 
d="M59 313l86 86l44 -130l238 238l84 -83l-238 -238l129 -41l-88 -89l-198 57z" />
    <glyph glyph-name="arrowright.down" 
d="M453 113l-197 -57l-88 89l129 41l-238 238l83 83l238 -238l45 130l86 -86z" />
    <glyph glyph-name="arrowright.alt" 
d="M302 372v115l218 -214l-218 -218v116l-237 -21v247z" />
    <glyph glyph-name="arrowleft.alt" 
d="M505 397v-247l-237 21v-116l-218 218l218 214v-115z" />
    <glyph glyph-name="arrowup.alt" 
d="M410 54h-247l21 237h-116l218 218l214 -218h-115z" />
    <glyph glyph-name="arrowdown.alt" 
d="M385 259h115l-214 -218l-218 218h116l-21 237h247z" />
    <glyph glyph-name="arrowleftup.alt" 
d="M519 207l-175 -175l-152 183l-82 -83v309l305 -3l-81 -81z" />
    <glyph glyph-name="arrowrightup.alt" 
d="M225 32l-175 175l183 152l-83 82h309l-3 -305l-81 81z" />
    <glyph glyph-name="arrowleftdown.alt" 
d="M344 540l175 -175l-183 -152l83 -82h-309l3 305l81 -81z" />
    <glyph glyph-name="arrowrightdown.alt" 
d="M50 365l175 175l152 -183l82 83v-309l-305 3l81 81z" />
    <glyph glyph-name="arrowlong.left" horiz-adv-x="700" 
d="M50 422h438l-79 158h125l115 -218l-116 -217h-122l78 159h-439v118z" />
    <glyph glyph-name="arrowlong.right" horiz-adv-x="700" 
d="M649 302h-438l79 -157h-125l-115 217l116 218h122l-78 -160h439v-118z" />
    <glyph glyph-name="arrowlong.up" horiz-adv-x="700" 
d="M290 64v438l-158 -80v125l218 115l218 -116v-122l-160 78v-438h-118z" />
    <glyph glyph-name="arrowlong.down" horiz-adv-x="700" 
d="M408 663v-438l160 78v-123l-218 -115l-218 115v125l158 -80v438h118z" />
    <glyph glyph-name="arrowlong.leftup" horiz-adv-x="700" 
d="M477 560l-169 -58l310 -310l-83 -83l-310 310l-55 -168l-88 88l72 235l236 73z" />
    <glyph glyph-name="arrowlong.leftdown" horiz-adv-x="700" 
d="M310 647l236 -73l72 -235l-88 -88l-55 168l-310 -310l-83 83l310 310l-169 58z" />
    <glyph glyph-name="arrowlong.rightup" horiz-adv-x="700" 
d="M390 109l-236 72l-72 235l88 89l55 -169l310 311l83 -84l-310 -310l169 -58z" />
    <glyph glyph-name="arrowlong.rightdown" horiz-adv-x="700" 
d="M223 195l169 58l-310 310l83 84l310 -311l55 169l88 -89l-72 -235l-236 -72z" />
    <glyph glyph-name="ornm1" horiz-adv-x="600" 
d="M550 0h-500v500h500v-500z" />
    <glyph glyph-name="ornm2" horiz-adv-x="500" 
d="M255 494l43 -143l147 32l-102 -108l102 -111l-147 33l-43 -144l-44 144l-148 -33l102 111l-102 108l148 -32z" />
    <glyph glyph-name="ornm3" horiz-adv-x="500" 
d="M252 489l48 -137l144 -4l-116 -87l43 -140l-119 83l-120 -83l43 140l-116 87l144 4z" />
    <glyph glyph-name="ornm4" horiz-adv-x="500" 
d="M203 352l48 134v-283l-119 -82l43 140l-116 87z" />
    <glyph glyph-name="ornm5" horiz-adv-x="500" 
d="M300 352l144 -4l-116 -87l43 -140l-119 83v285z" />
    <glyph glyph-name="ornm6" horiz-adv-x="752" 
d="M589 529l113 -105l-390 -425l-262 204l95 114l146 -122z" />
    <glyph glyph-name="ornm7" horiz-adv-x="634" 
d="M50 404l105 113l155 -143l145 157l113 -105l-144 -158l160 -147l-106 -115l-159 148l-141 -154l-115 106l142 154z" />
    <glyph glyph-name="ornm8" horiz-adv-x="844" 
d="M50 377q0 48 17 90t47.5 72.5t72.5 48.5t91 18q51 0 93.5 -16.5t73 -46.5t47.5 -71.5t17 -92.5q0 -29 -5.5 -54t-15.5 -48l306 -199l-58 -92l-301 219q-62 -54 -157 -54q-50 0 -92 16.5t-72 46t-47 71t-17 92.5zM132 377q0 -33 10.5 -60.5t30 -47.5t46 -31t59.5 -11
t60 11t47 31t31 48t11 62t-11 62t-31 48t-47 31t-60 11q-32 0 -58.5 -11.5t-46 -32t-30.5 -48.5t-11 -62z" />
    <glyph glyph-name="ornm9" horiz-adv-x="818" 
d="M631 476v-170h137v-243h-102v-63h-514v63h-102v243h137v285h317v-115h127zM152 -46h514v-65h-514v65zM529 499v92l7 5l100 -90l-5 -7h-102z" />
    <glyph glyph-name="ornm10" horiz-adv-x="562" 
d="M148 489q0 30 10 55t27.5 42.5t42 27.5t53.5 10t53.5 -10t42.5 -27.5t28 -42.5t10 -55q0 -43 -20 -74.5t-52 -47.5v-4q90 -6 129.5 -46.5t39.5 -128.5v-188h-462v188q0 88 39.5 128.5t129.5 46.5v4q-32 16 -51.5 47.5t-19.5 74.5z" />
    <glyph glyph-name="ornm11" horiz-adv-x="720" 
d="M122 210v-142h475v142h73v-210h-620v210h72zM236 619h247l-21 -237h116l-218 -218l-214 218h115z" />
    <glyph glyph-name="ornm12" horiz-adv-x="571" 
d="M50 615h113v-299q0 -78 14 -115t58 -37t57 37t13 115v161h-45v-161q0 -62 -3.5 -87.5t-21.5 -25.5q-20 0 -24 26.5t-4 86.5v299h314v-615h-471v615z" />
    <glyph glyph-name="ornm13" horiz-adv-x="774" 
d="M311 -80v8q0 23 -9 43.5t-24 35.5t-35.5 24t-43.5 9q-38 0 -66 -22l-82 143q30 14 45 42t14.5 59.5t-15.5 59.5t-45 42l83 141q29 -21 66 -21q23 0 43.5 8.5t35.5 23.5t24 35.5t9 43.5v11h158q0 -3 -0.5 -5.5t-0.5 -5.5q0 -23 8.5 -43.5t23.5 -35.5t35.5 -23.5t43.5 -8.5
q36 0 65 21l80 -138q-32 -12 -51.5 -40.5t-19.5 -64.5t19.5 -64t51.5 -40l-80 -138q-28 20 -65 20q-23 0 -43.5 -9t-35.5 -24t-23.5 -35.5t-8.5 -43.5v-8h-157zM239 268q0 -33 11 -60.5t30.5 -47t46.5 -30.5t59 -11t59 11t47 30.5t31 47t11 60.5t-11 60.5t-31 47t-47 30.5
t-59 11t-59 -11t-46.5 -30.5t-30.5 -47t-11 -60.5z" />
    <glyph glyph-name="ornm14" horiz-adv-x="541" 
d="M50 0v406h54q0 66 7 115t25.5 81t51 47.5t83.5 15.5q52 0 84.5 -14.5t50.5 -45.5t24.5 -80t6.5 -119h54v-406h-441zM271 598q-29 0 -47 -9t-28.5 -30.5t-14.5 -58.5t-4 -94h188q0 57 -3.5 94t-14 58.5t-29 30.5t-47.5 9zM231 109h80l-16 96q25 12 25 38q0 23 -14 35.5
t-35 12.5t-35 -12.5t-14 -35.5q0 -25 24 -38z" />
    <glyph glyph-name="ornm15" horiz-adv-x="729" 
d="M231 109h79l-15 96q25 12 25 38q0 23 -14.5 35.5t-35.5 12.5q-20 0 -34 -12.5t-14 -35.5q0 -25 23 -38zM606 424q0 49 -3 82.5t-12.5 54t-26.5 29t-45 8.5q-25 0 -43.5 -7t-31 -24t-18.5 -45.5t-6 -70.5v-45h71v-406h-441v406h296v43q0 46 9 85t29.5 67.5t53 44.5
t80.5 16q52 0 83.5 -15t49 -45t23 -74.5t5.5 -103.5h-73z" />
    <glyph glyph-name="ornm16" horiz-adv-x="846" 
d="M421 109l375 318v-427h-746v429zM71 478h704l-354 -302z" />
    <glyph glyph-name="ornm17" horiz-adv-x="846" 
d="M796 512h-255l30 89h225v-89zM796 478v-478h-746v478h746z" />
    <glyph glyph-name="ornm18" horiz-adv-x="785" 
d="M281 -43q19 7 38 18.5t33.5 28t23 38.5t7.5 51q-54 1 -113 17.5t-107.5 49.5t-80.5 82.5t-32 114.5q0 66 32.5 115.5t82.5 82.5t111.5 50t119.5 17q64 0 125.5 -19.5t108.5 -54.5t76 -84.5t29 -107.5q0 -47 -16.5 -84t-43.5 -66t-61.5 -50.5t-71.5 -36.5
q-13 -38 -33.5 -69.5t-51.5 -53.5t-74 -34t-100 -12z" />
    </font>
</defs>
</svg>
